<?xml version="1.0" encoding="utf-8"?>
<!-- Generator: Adobe Illustrator 25.4.1, SVG Export Plug-In . SVG Version: 6.00 Build 0)  -->
<svg version="1.1" xmlns="http://www.w3.org/2000/svg" xmlns:xlink="http://www.w3.org/1999/xlink" x="0px" y="0px"
	 viewBox="0 0 345 525" style="enable-background:new 0 0 345 525;" xml:space="preserve">
<style type="text/css">
	.st0{fill:#2B1452;}
	.st1{fill:#FFFFFF;}
	.st2{fill:#C3B0CF;}
	.st3{fill:url(#SVGID_1_);stroke:#2B1452;stroke-width:4;stroke-miterlimit:10;}
	.st4{fill:#2B1452;stroke:#2B1452;stroke-width:4;stroke-miterlimit:10;}
	.st5{fill:none;stroke:#2B1452;stroke-width:4;stroke-miterlimit:10;}
	.st6{fill:#FFFFFF;stroke:#2B1452;stroke-width:4;stroke-miterlimit:10;}
	.st7{fill:url(#SVGID_00000117648655982558176170000013099807998678213821_);}
	.st8{fill:url(#SVGID_00000049180351847031623900000012090988371492631700_);}
	.st9{fill:#644C86;}
	.st10{fill:#D8759B;stroke:#2B1452;stroke-width:4;stroke-miterlimit:10;}
	.st11{fill:url(#SVGID_00000004547267555858336850000012277608454382319272_);}
	.st12{fill:url(#SVGID_00000084491970056321779210000002295004918243947931_);}
	
		.st13{fill:url(#SVGID_00000152258428165187668350000008690193614296155539_);stroke:#2B1452;stroke-width:2.4639;stroke-miterlimit:10;}
	
		.st14{fill:url(#SVGID_00000050646825714570270320000009522676875726483371_);stroke:#2B1452;stroke-width:2.4639;stroke-miterlimit:10;}
</style>
<g id="sketch">
</g>
<g id="레이어_2">
	<g>
		<ellipse class="st0" cx="180.08" cy="501.49" rx="125.31" ry="13.28"/>
		<path class="st1" d="M12.15,307.96c0,0-48.3-296.02,160.53-297.72s159.81,265.72,156.75,281.04
			c-3.06,15.32-10.21,66.04-34.38,115.06c-24.17,49.02-41.46,60.6-59.37,68.77c-17.91,8.17-95.52,9.87-103.35,8.51
			c-7.83-1.36-18.04-1.2-28.94,0.42s-31.72-0.42-44.26-8.93c-11.16-7.58-18.99-22.29-30.35-31.76c-1.75-1.46-9.72-5.09-12.22-6.2
			c-1.81-0.81-1.38-3.48,0.59-3.7c5.13-0.59,17.69,1.63,23.94,6.26c10.55,7.83,22.47-0.68,24.51-7.49
			c2.04-6.81-5.11-38.81-18.38-54.47S13.84,320.56,12.15,307.96z"/>
		<g>
			<path class="st2" d="M65.46,430.69c-1.12,19.39-22.84,8.91-22.84,8.91c-6.35-4.49-18.81-6.86-23.94-6.26
				c-1.97,0.23-2.4,2.9-0.59,3.7c2.51,1.12,10.47,4.74,12.22,6.2c11.35,9.47,19.19,24.18,30.35,31.76
				c12.53,8.51,33.36,10.55,44.26,8.93c9.17-1.36,17.83-1.68,25.02-0.94c-0.66,1.76-1.56,3.13-2.81,3.72
				c-5.51,2.61-12.19,10.45-1.74,11.03c10.45,0.58,36.57-0.87,39.76-3.77c1.32-1.2,2.59-5.68,3.63-10.53
				c9.45-0.36,19.75-0.94,29.53-1.77c1.1,5.48,2.51,10.95,3.99,12.29c3.19,2.9,29.31,4.35,39.76,3.77
				c10.45-0.58,3.77-8.42-1.74-11.03c-2.78-1.32-3.86-6.46-4.25-11.24c0.4-0.16,0.78-0.31,1.14-0.47
				c17.91-8.17,35.2-19.74,59.37-68.77c24.17-49.02,31.32-99.74,34.38-115.06c2.51-12.55,33.78-187.73-63.93-253.08
				c6.33,6.39,12.2,19.41,24.09,42.6c60.02,117.01-21.97,276.85-29.71,290.57c-15.7,27.84-50.27,39.48-83.89,37.63
				c-16.27-0.89-29.46-1.78-39.52-2.54c-15.59-1.17-27.54-4.88-39.15,5.6c0,0-19.99-28.37-20.01-32.93
				c-0.02-4.56-16.42,21.33-15.12,31.65"/>
		</g>
		<radialGradient id="SVGID_1_" cx="172.6812" cy="212.023" r="106.5024" gradientUnits="userSpaceOnUse">
			<stop  offset="0" style="stop-color:#E3BFD3"/>
			<stop  offset="0.9972" style="stop-color:#D9ACC3"/>
			<stop  offset="1" style="stop-color:#D4ADC5"/>
		</radialGradient>
		<ellipse class="st3" cx="172.68" cy="212.02" rx="104.38" ry="108.58"/>
		<path class="st4" d="M180.08,84.17c0,0-50.39-8.63-76.97,19.67c-23.62,25.15-26.79,38.31-29.87,53.77
			c-0.59,2.97,1.84,5.68,4.85,5.41l25.02-2.22c0,0-0.31-9.25,2.57-13.18c0.2-0.28,0.64-0.19,0.73,0.14
			c0.64,2.45,2.79,10.04,5.68,12.35c0,0,101.17-7.64,154.76,2.14c3.19,0.58,5.96-2.24,5.27-5.4
			C267.99,137.9,250.23,85.3,180.08,84.17z"/>
		<path class="st5" d="M168.07,266.17c0,0,4.85-10.72,9.45,0"/>
		<path class="st4" d="M220.02,174.61c4.74-3.07,15.11-8.03,28.15-3.89c0.5,0.16,0.36,0.89-0.16,0.84
			c-5.38-0.54-15.77-0.68-27.59,3.81C219.93,175.55,219.58,174.9,220.02,174.61z"/>
		<path class="st4" d="M129.97,174.61c-4.74-3.07-15.11-8.03-28.15-3.89c-0.5,0.16-0.36,0.89,0.16,0.84
			c5.38-0.54,15.77-0.68,27.59,3.81C130.06,175.55,130.41,174.9,129.97,174.61z"/>
		<path class="st0" d="M161.18,209c-0.67,1.3-2.21,1.45-3.05,0.3c-4.99-6.79-22.55-26.22-44.39-26.22c-20.16,0-39,14.05-44.07,20.78
			c-1.04,1.38-2.95,0.78-3.28-1.03v0c-0.65-3.56,0.81-6.95,2.96-9.44c7.76-8.96,30.39-18.04,50.98-15.45
			c25.38,3.19,37.78,23.6,40.79,28.57C161.56,207.25,161.58,208.22,161.18,209L161.18,209z"/>
		<path class="st6" d="M115.84,181.9c0,0,40.05-0.26,46.68,36.77c6.64,37.02-5.36,49.79-12.51,54.89
			c-7.15,5.11-18.38,8.68-18.38,8.68s-21.7-12-40.09,0c0,0-26.3-14.81-27.32-48.77C63.2,199.51,78.09,183.68,115.84,181.9z"/>
		<g>
			
				<radialGradient id="SVGID_00000160167358992509989970000006352009958233286289_" cx="-180.7513" cy="228.8752" r="44.8788" gradientTransform="matrix(-1 0 0 1 -81.0851 0)" gradientUnits="userSpaceOnUse">
				<stop  offset="1.331947e-07" style="stop-color:#483464"/>
				<stop  offset="1" style="stop-color:#33214D"/>
			</radialGradient>
			<circle style="fill:url(#SVGID_00000160167358992509989970000006352009958233286289_);" cx="112.89" cy="227.09" r="44.68"/>
			<circle class="st1" cx="124.14" cy="205.07" r="5.36"/>
		</g>
		<path class="st6" d="M234.15,181.9c0,0-40.05-0.26-46.68,36.77c-6.64,37.02,5.36,49.79,12.51,54.89
			c7.15,5.11,18.38,8.68,18.38,8.68s21.7-12,40.09,0c0,0,26.3-14.81,27.32-48.77S271.9,183.68,234.15,181.9z"/>
		<path class="st0" d="M189.17,209c0.67,1.3,2.21,1.45,3.05,0.3c4.99-6.79,22.55-26.22,44.39-26.22c20.16,0,39,14.05,44.07,20.78
			c1.04,1.38,2.95,0.78,3.28-1.03v0c0.65-3.56-0.81-6.95-2.96-9.44c-7.76-8.96-30.39-18.04-50.98-15.45
			c-25.38,3.19-37.78,23.6-40.79,28.57C188.79,207.25,188.76,208.22,189.17,209L189.17,209z"/>
		<g>
			
				<radialGradient id="SVGID_00000009571199412297220770000004064210625049537202_" cx="250.3646" cy="228.8752" r="44.8788" gradientUnits="userSpaceOnUse">
				<stop  offset="1.331947e-07" style="stop-color:#483464"/>
				<stop  offset="1" style="stop-color:#33214D"/>
			</radialGradient>
			<circle style="fill:url(#SVGID_00000009571199412297220770000004064210625049537202_);" cx="237.14" cy="227.09" r="44.68"/>
			<circle class="st1" cx="256.56" cy="205.07" r="5.36"/>
		</g>
		<g>
			<g>
				<path class="st1" d="M121.39,333.12c0,0,2.28,15.71,5.31,22.66c3.03,6.95,2.89,15.68,20.98,19.22s23.13,15.13,10.38,30.14
					c-12.76,15.01-27.58,26.2-51.68,15.63c-24.1-10.57-29.1-36.95-27.15-44.69"/>
				<path class="st0" d="M107.79,423.52c-0.73-0.29-1.47-0.6-2.22-0.93c-25.01-10.97-30.45-38.42-28.29-47.01l3.88,0.97
					c-1.69,6.72,2.93,32.24,26.02,42.37c23.39,10.25,37.54-1.19,49.35-15.09c5.61-6.6,7.71-12.56,6.08-17.23
					c-1.61-4.61-7.05-8.04-15.32-9.65c-16.34-3.2-19.03-10.91-21.19-17.1c-0.4-1.15-0.78-2.25-1.24-3.28
					c-2.48-5.68-4.41-16.64-5.14-21.17c-0.18-1.1,0.58-2.14,1.69-2.3h0c1.08-0.16,2.09,0.58,2.26,1.66c0.71,4.37,2.59,15,4.86,20.21
					c0.51,1.17,0.94,2.39,1.34,3.56c2.11,6.04,4.1,11.74,18.18,14.49c9.86,1.93,16.2,6.17,18.32,12.26
					c1.48,4.24,1.51,11.35-6.81,21.14C147.73,420.37,132.34,433.17,107.79,423.52z"/>
			</g>
			<path class="st0" d="M63.87,411.96c0,0-2.38-12.76,7.9-29.97c10.28-17.21,16.93-26.61,18.62-25.76s-6.16,19.2-13.93,26.86
				S63.87,411.96,63.87,411.96z"/>
			<path class="st0" d="M83.86,348.8c0,0,3.77-1.81,3.8-0.25c0.03,1.56-18.14,12.72-19.7,14.55c-1.56,1.84-6.76,7.52-7.73,8.37
				c-0.97,0.84,1.44-5.97,3.31-8.27C65.41,360.9,83.86,348.8,83.86,348.8z"/>
			<path class="st0" d="M77.6,340.52c0,0,2.8-0.01,1.68,1.15c-1.11,1.16-13,4.54-14.21,5.01c-1.21,0.47-2.34-1.25-1.06-1.9
				C65.29,344.15,77.6,340.52,77.6,340.52z"/>
		</g>
		<g>
			<g>
				<path class="st1" d="M231.9,331.85c0,0-1.47,15.81-4.13,22.9c-2.67,7.1-2.08,15.8-19.96,20.27s-22.33,16.3-8.81,30.63
					c13.51,14.34,28.89,24.74,52.42,12.95c23.53-11.8,27.16-38.4,24.82-46.03"/>
				<path class="st0" d="M250.13,421.44c-24.02,10.9-40.05-1.09-52.59-14.4c-8.81-9.35-9.15-16.45-7.89-20.76
					c1.81-6.19,7.92-10.75,17.67-13.18c13.92-3.48,15.62-9.27,17.41-15.41c0.35-1.19,0.71-2.43,1.16-3.62
					c2-5.32,3.33-16.03,3.81-20.43c0.12-1.09,1.09-1.87,2.17-1.77l0,0c1.11,0.1,1.93,1.09,1.81,2.21c-0.5,4.55-1.87,15.6-4.05,21.4
					c-0.4,1.06-0.72,2.17-1.06,3.34c-1.84,6.3-4.13,14.13-20.28,18.17c-8.17,2.04-13.43,5.74-14.8,10.43
					c-1.39,4.75,1.02,10.59,6.96,16.89c12.51,13.27,27.23,23.96,50.06,12.53c22.54-11.3,25.84-37.02,23.8-43.65l3.82-1.17
					c2.6,8.46-1.42,36.16-25.83,48.4C251.57,420.76,250.84,421.11,250.13,421.44z"/>
			</g>
			<path class="st0" d="M293.39,407.62c0,0,1.72-12.87-9.43-29.53c-11.15-16.66-18.27-25.7-19.92-24.77
				c-1.65,0.94,7.14,18.86,15.29,26.11C287.49,386.69,293.39,407.62,293.39,407.62z"/>
			<path class="st0" d="M270.18,345.58c0,0-3.85-1.61-3.8-0.05c0.05,1.56,18.77,11.77,20.42,13.52c1.65,1.75,7.14,7.17,8.15,7.96
				c1.02,0.79-1.75-5.89-3.73-8.09C289.23,356.72,270.18,345.58,270.18,345.58z"/>
			<path class="st0" d="M276.01,336.99c0,0-2.79,0.13-1.62,1.24c1.17,1.1,13.21,3.87,14.45,4.27c1.23,0.41,2.28-1.37,0.96-1.95
				C288.48,339.97,276.01,336.99,276.01,336.99z"/>
		</g>
		<path class="st5" d="M172.68,10.24C-36.15,11.94,12.15,307.96,12.15,307.96c1.69,12.6,21.79,54.13,35.06,69.79
			c13.28,15.66,20.43,47.66,18.38,54.47c-2.04,6.81-13.96,15.32-24.51,7.49c-6.25-4.63-18.81-6.86-23.94-6.26
			c-1.97,0.23-2.4,2.9-0.59,3.7c2.51,1.12,10.47,4.74,12.22,6.2c11.35,9.47,19.19,24.18,30.35,31.76
			c12.53,8.51,33.36,10.55,44.26,8.93c10.03-1.49,19.45-1.73,27-0.7c-0.67,2.42-1.69,4.37-3.26,5.12
			c-5.51,2.61-12.19,10.45-1.74,11.03c10.45,0.58,36.57-0.87,39.76-3.77c1.48-1.34,2.89-6.78,3.98-12.23
			c9.31-0.38,19.35-0.97,28.84-1.8c1.13,6.01,2.69,12.54,4.33,14.03c3.19,2.9,29.31,4.35,39.76,3.77
			c10.45-0.58,3.77-8.42-1.74-11.03c-3.22-1.52-4.16-8.18-4.39-13.46c17.82-8.16,35.06-19.86,59.11-68.65
			c24.17-49.02,31.32-99.74,34.38-115.06S381.51,8.53,172.68,10.24z"/>
		<path class="st9" d="M185.24,84.2c0,0,33.42,25.03,37.33,73.12c0,0,20.3,1.26,29.63,2.3C261.53,160.66,241.52,96.03,185.24,84.2z"
			/>
		<path class="st9" d="M164.45,82.93c0,0-39.99,23.9-35.38,74.39l-11.25,0.87C117.82,158.2,112.52,98.98,164.45,82.93z"/>
		<path class="st9" d="M180.08,84.17c0,0,23.11,33.36,21.97,73.16h8.65C210.69,157.33,206.39,113.07,180.08,84.17z"/>
		<path class="st10" d="M154.54,287.99c8.15,2.81,21.57,5.33,36.45-0.5c1.92-0.75,3.62,1.52,2.29,3.1
			c-6.94,8.24-21.63,19.59-40.76,0.7C151.01,289.81,152.55,287.3,154.54,287.99z"/>
		<path class="st9" d="M202.49,238.29c0,0,6.21,29.88,43.99,27.5C246.47,265.79,208.71,272.32,202.49,238.29z"/>
		<path class="st9" d="M77.13,238.29c0,0,6.21,29.88,43.99,27.5C121.11,265.79,83.35,272.32,77.13,238.29z"/>
		
			<radialGradient id="SVGID_00000020372384797961000710000008111098004328937864_" cx="238.0241" cy="263.9174" r="32.3158" gradientUnits="userSpaceOnUse">
			<stop  offset="0" style="stop-color:#E3BFD3"/>
			<stop  offset="0.0318" style="stop-color:#FF5584"/>
			<stop  offset="0.9972" style="stop-color:#D9ACC3"/>
			<stop  offset="1" style="stop-color:#D4ADC5"/>
		</radialGradient>
		
			<ellipse style="fill:url(#SVGID_00000020372384797961000710000008111098004328937864_);" cx="239.56" cy="285.34" rx="23.49" ry="10.75"/>
		
			<radialGradient id="SVGID_00000022527690219431646600000007761489971032251781_" cx="110.3619" cy="263.9174" r="32.3158" gradientUnits="userSpaceOnUse">
			<stop  offset="0" style="stop-color:#E3BFD3"/>
			<stop  offset="0.0318" style="stop-color:#FF5584"/>
			<stop  offset="0.9972" style="stop-color:#D9ACC3"/>
			<stop  offset="1" style="stop-color:#D4ADC5"/>
		</radialGradient>
		
			<ellipse style="fill:url(#SVGID_00000022527690219431646600000007761489971032251781_);" cx="111.89" cy="285.34" rx="23.49" ry="10.75"/>
		
			<radialGradient id="SVGID_00000122686255519800832520000016922758518628434057_" cx="38.8978" cy="131.5068" r="25.4784" gradientTransform="matrix(0.8178 -0.5755 0.5755 0.8178 120.6483 -30.9836)" gradientUnits="userSpaceOnUse">
			<stop  offset="1.331947e-07" style="stop-color:#483464"/>
			<stop  offset="1" style="stop-color:#33214D"/>
		</radialGradient>
		
			<path style="fill:url(#SVGID_00000122686255519800832520000016922758518628434057_);stroke:#2B1452;stroke-width:2.4639;stroke-miterlimit:10;" d="
			M219.22,73.43c14.59,6.76,30.41,3.63,35.34-7s-2.91-24.73-17.5-31.49s-30.41-3.63-35.34,7C196.79,52.56,204.63,66.66,219.22,73.43
			z"/>
		
			<radialGradient id="SVGID_00000088093163812698242580000013665711321522424492_" cx="-335.2595" cy="-131.7662" r="25.4784" gradientTransform="matrix(-0.8178 -0.5755 -0.5755 0.8178 -233.5639 -30.9836)" gradientUnits="userSpaceOnUse">
			<stop  offset="1.331947e-07" style="stop-color:#483464"/>
			<stop  offset="1" style="stop-color:#33214D"/>
		</radialGradient>
		
			<path style="fill:url(#SVGID_00000088093163812698242580000013665711321522424492_);stroke:#2B1452;stroke-width:2.4639;stroke-miterlimit:10;" d="
			M125.37,73.43c-14.59,6.76-30.41,3.63-35.34-7s2.91-24.73,17.5-31.49s30.41-3.63,35.34,7S139.96,66.66,125.37,73.43z"/>
	</g>
</g>
</svg>
