<?xml version="1.0" encoding="utf-8"?>
<!-- Generator: Adobe Illustrator 25.4.1, SVG Export Plug-In . SVG Version: 6.00 Build 0)  -->
<svg version="1.1" xmlns="http://www.w3.org/2000/svg" xmlns:xlink="http://www.w3.org/1999/xlink" x="0px" y="0px"
	 viewBox="0 0 1020 720" style="enable-background:new 0 0 1020 720;" xml:space="preserve">
<style type="text/css">
	.st0{fill:url(#SVGID_1_);}
	.st1{fill:url(#SVGID_00000124842947029128359230000017082516024300609179_);}
	.st2{fill:url(#SVGID_00000163038558754208556950000006401927195408738956_);}
	.st3{fill:none;stroke:url(#SVGID_00000051351207437692324640000013758316230324510386_);stroke-width:2;stroke-miterlimit:10;}
	.st4{fill:none;stroke:url(#SVGID_00000145046574068642796280000003849576287532892561_);stroke-width:2;stroke-miterlimit:10;}
	.st5{fill:none;stroke:url(#SVGID_00000163761173728603991750000014555600110515337658_);stroke-width:2;stroke-miterlimit:10;}
	.st6{fill:none;stroke:url(#SVGID_00000114058901207309165970000008500305838054037123_);stroke-width:2;stroke-miterlimit:10;}
	.st7{fill:none;stroke:url(#SVGID_00000008133420284074108880000014595522126612824985_);stroke-width:2;stroke-miterlimit:10;}
	.st8{fill:none;stroke:url(#SVGID_00000147189267853982155040000015369675655959829156_);stroke-width:2;stroke-miterlimit:10;}
	
		.st9{fill:none;stroke:url(#SVGID_00000128476461631139525860000017576229018664984719_);stroke-width:1.1723;stroke-miterlimit:10;}
	
		.st10{fill:none;stroke:url(#SVGID_00000163785444845564352010000009809371238071342750_);stroke-width:1.1723;stroke-miterlimit:10;}
	
		.st11{fill:none;stroke:url(#SVGID_00000142887676486328694410000000740947074661744818_);stroke-width:1.1723;stroke-miterlimit:10;}
	
		.st12{fill:none;stroke:url(#SVGID_00000137832215341185123850000017077604290475034274_);stroke-width:1.1723;stroke-miterlimit:10;}
	
		.st13{fill:none;stroke:url(#SVGID_00000152952708015402264010000013504815219243857840_);stroke-width:1.1723;stroke-miterlimit:10;}
	
		.st14{fill:none;stroke:url(#SVGID_00000000942565716347226470000005237231491651963030_);stroke-width:1.1723;stroke-miterlimit:10;}
	.st15{fill:url(#SVGID_00000173875012542974348910000005032515845055682457_);}
	.st16{fill:url(#SVGID_00000150811755110547718450000012085403605373946301_);}
	.st17{fill:url(#SVGID_00000009560167341589488160000015635997689825406595_);}
	.st18{fill:url(#SVGID_00000057118142733962405060000000167149802890856591_);}
	.st19{fill:url(#SVGID_00000011717357130778101460000017502019519159487679_);}
	.st20{fill:url(#SVGID_00000006677609908513416710000013050571561107862410_);}
	.st21{fill:url(#SVGID_00000059311440242818058490000009480194655638247594_);}
	.st22{fill:url(#SVGID_00000043418348400052950920000003628681474833766577_);}
	.st23{fill:url(#SVGID_00000102536659150204467680000014964135093164297907_);}
	.st24{fill:url(#SVGID_00000124152870747510081920000018360182938689236631_);}
	.st25{fill:url(#SVGID_00000040575614658867475910000007953695249271007657_);}
	.st26{fill:url(#SVGID_00000085236701535824079830000014598033771036639400_);}
	.st27{fill:url(#SVGID_00000118362603004672107330000006049082082933248899_);}
	.st28{fill:url(#SVGID_00000048499638516128310060000018127751974976660414_);}
	.st29{fill:url(#SVGID_00000181084207732280518690000013582027975178885815_);}
	.st30{fill:url(#SVGID_00000070096856907197727180000004537114806588757915_);}
	.st31{fill:url(#SVGID_00000078731779835497478020000011013663877222993316_);}
	.st32{fill:url(#SVGID_00000118365591752499279380000017174889391096033921_);}
	.st33{fill:url(#SVGID_00000119092326359560501500000001540662475391358341_);}
	.st34{fill:url(#SVGID_00000110441021827250779910000014856351743454743978_);}
	.st35{fill:url(#SVGID_00000028291441937893011330000006564010341178205845_);}
	.st36{opacity:0.1;fill:#FFFFFF;}
	.st37{fill:url(#SVGID_00000034090857803024986480000001551661306196706978_);}
	.st38{fill:url(#SVGID_00000050629954221358881900000016338293227666673846_);}
	.st39{fill:url(#SVGID_00000007398059802165060640000016645043669084019077_);}
	.st40{fill:url(#SVGID_00000109721021576793732000000011811242642446571157_);}
	.st41{fill:url(#SVGID_00000075133456077780866800000006421692797034012560_);}
	.st42{fill:url(#SVGID_00000142171816460112477050000015326674493210826403_);}
	.st43{fill:url(#SVGID_00000057148307457882212270000001081655257201925289_);}
	.st44{fill:url(#SVGID_00000014603040865240946800000006043485804451658659_);}
	.st45{fill:url(#SVGID_00000049905079758694321930000006315277006678996618_);}
	.st46{fill:url(#SVGID_00000177470736681834555220000004437595856627743665_);}
	.st47{fill:url(#SVGID_00000150799392594302058820000013412080896484806823_);}
	.st48{fill:url(#SVGID_00000005968874047581803160000010295682551671544980_);}
	.st49{fill:url(#SVGID_00000103255906842281064920000003095754088924181409_);}
	.st50{fill:url(#SVGID_00000096747600122729937760000009947824799825146760_);}
	.st51{fill:url(#SVGID_00000026858688029406546980000018133962829378866099_);}
	.st52{fill:url(#SVGID_00000079454113346006529730000009741935919216372104_);}
	.st53{fill:url(#SVGID_00000155860203404907743690000011435917341011153586_);}
	.st54{fill:url(#SVGID_00000092431465410690907030000010062149754335656891_);}
	.st55{fill:url(#SVGID_00000046328286211717534990000015176791496710873011_);}
</style>
<g id="reference">
	<linearGradient id="SVGID_1_" gradientUnits="userSpaceOnUse" x1="510" y1="776.3192" x2="510" y2="-81.0327">
		<stop  offset="0" style="stop-color:#8256A5"/>
		<stop  offset="1" style="stop-color:#0A0019"/>
	</linearGradient>
	<rect class="st0" width="1020" height="720"/>
	
		<linearGradient id="SVGID_00000165209030491607999610000016351558133181877690_" gradientUnits="userSpaceOnUse" x1="561.3205" y1="588.0265" x2="561.3205" y2="735.2239">
		<stop  offset="0" style="stop-color:#8256A5"/>
		<stop  offset="1" style="stop-color:#0A0019"/>
	</linearGradient>
	<polygon style="fill:url(#SVGID_00000165209030491607999610000016351558133181877690_);" points="198.55,690.65 198.55,648.28 
		218.86,648.28 218.86,669.47 251.28,669.47 251.28,631.13 274.09,631.13 274.09,678.91 286.7,678.91 286.7,660.89 304.01,660.89 
		304.01,646.34 321.25,646.34 321.25,672.2 368.86,672.2 368.86,683.58 401.38,683.58 401.38,663.07 412.07,663.07 412.07,655.02 
		417.43,655.02 417.43,668.65 438.08,668.65 438.08,681.95 445.65,681.95 445.65,660.89 472.91,660.89 472.91,684 486.3,684 
		486.3,674.59 503.13,674.59 503.13,681.95 525.96,681.95 525.96,666.62 550.9,666.62 550.9,651.92 576.28,651.92 576.28,674.59 
		607.27,674.59 607.27,685.88 641.37,685.88 641.37,667.13 654.19,667.13 654.19,678.91 695.04,678.91 695.04,655.02 703.54,655.02 
		703.54,637.72 709.66,637.72 709.66,674.59 734.47,674.59 734.47,685.88 763.87,685.88 763.87,660.89 787.52,660.89 787.52,681.95 
		796.52,681.95 796.52,631.13 812.1,631.13 812.1,648.28 830.8,648.28 830.8,674.59 856.69,674.59 856.69,649.64 873.9,649.64 
		873.9,670.17 904.83,670.17 904.83,640.6 924.09,640.6 924.09,690.65 	"/>
	
		<linearGradient id="SVGID_00000157300527174373703120000010505528935349211067_" gradientUnits="userSpaceOnUse" x1="510" y1="750.9352" x2="510" y2="681.2733">
		<stop  offset="0" style="stop-color:#8256A5"/>
		<stop  offset="1" style="stop-color:#0A0019"/>
	</linearGradient>
	<rect y="689.83" style="fill:url(#SVGID_00000157300527174373703120000010505528935349211067_);" width="1020" height="30.17"/>
</g>
<g id="bg1">
	<g>
		<g>
			
				<linearGradient id="SVGID_00000057830888203233585080000001106759956598391429_" gradientUnits="userSpaceOnUse" x1="212.0731" y1="678.1712" x2="305.8766" y2="678.1712">
				<stop  offset="0" style="stop-color:#000000"/>
				<stop  offset="1" style="stop-color:#0A0019"/>
			</linearGradient>
			
				<polyline style="fill:none;stroke:url(#SVGID_00000057830888203233585080000001106759956598391429_);stroke-width:2;stroke-miterlimit:10;" points="
				212.28,684.75 249.54,676.85 280.12,677.35 305.66,671.59 			"/>
			
				<linearGradient id="SVGID_00000033346306070112559340000015450948673492651943_" gradientUnits="userSpaceOnUse" x1="212.0731" y1="687.9496" x2="305.8766" y2="687.9496">
				<stop  offset="0" style="stop-color:#000000"/>
				<stop  offset="1" style="stop-color:#0A0019"/>
			</linearGradient>
			
				<polyline style="fill:none;stroke:url(#SVGID_00000033346306070112559340000015450948673492651943_);stroke-width:2;stroke-miterlimit:10;" points="
				212.28,694.53 249.54,686.63 280.12,687.12 305.66,681.37 			"/>
			
				<linearGradient id="SVGID_00000090284057404904192030000008776087730837928582_" gradientUnits="userSpaceOnUse" x1="212.0731" y1="697.7281" x2="305.8766" y2="697.7281">
				<stop  offset="0" style="stop-color:#000000"/>
				<stop  offset="1" style="stop-color:#0A0019"/>
			</linearGradient>
			
				<polyline style="fill:none;stroke:url(#SVGID_00000090284057404904192030000008776087730837928582_);stroke-width:2;stroke-miterlimit:10;" points="
				212.28,704.31 249.54,696.41 280.12,696.9 305.66,691.15 			"/>
			
				<linearGradient id="SVGID_00000047755708510223818500000014581053898753327495_" gradientUnits="userSpaceOnUse" x1="247.9458" y1="687.7907" x2="249.9458" y2="687.7907">
				<stop  offset="0" style="stop-color:#000000"/>
				<stop  offset="1" style="stop-color:#0A0019"/>
			</linearGradient>
			
				<line style="fill:none;stroke:url(#SVGID_00000047755708510223818500000014581053898753327495_);stroke-width:2;stroke-miterlimit:10;" x1="248.95" y1="672.05" x2="248.95" y2="703.53"/>
			
				<linearGradient id="SVGID_00000023988439426398724370000018135296069345225392_" gradientUnits="userSpaceOnUse" x1="304.6568" y1="680.6789" x2="306.6568" y2="680.6789">
				<stop  offset="0" style="stop-color:#000000"/>
				<stop  offset="1" style="stop-color:#0A0019"/>
			</linearGradient>
			
				<line style="fill:none;stroke:url(#SVGID_00000023988439426398724370000018135296069345225392_);stroke-width:2;stroke-miterlimit:10;" x1="305.66" y1="664.94" x2="305.66" y2="696.42"/>
			
				<linearGradient id="SVGID_00000023255410222378887540000005029077072336012934_" gradientUnits="userSpaceOnUse" x1="279.1224" y1="687.3303" x2="281.1224" y2="687.3303">
				<stop  offset="0" style="stop-color:#000000"/>
				<stop  offset="1" style="stop-color:#0A0019"/>
			</linearGradient>
			
				<line style="fill:none;stroke:url(#SVGID_00000023255410222378887540000005029077072336012934_);stroke-width:2;stroke-miterlimit:10;" x1="280.12" y1="671.59" x2="280.12" y2="703.07"/>
		</g>
		<g>
			
				<linearGradient id="SVGID_00000183210995630172882740000016906583472948882871_" gradientUnits="userSpaceOnUse" x1="273.5898" y1="682.329" x2="328.5724" y2="682.329" gradientTransform="matrix(-1 0 0 1 1023.4791 0)">
				<stop  offset="0" style="stop-color:#000000"/>
				<stop  offset="1" style="stop-color:#0A0019"/>
			</linearGradient>
			
				<polyline style="fill:none;stroke:url(#SVGID_00000183210995630172882740000016906583472948882871_);stroke-width:1.1723;stroke-miterlimit:10;" points="
				749.77,686.19 727.93,681.55 710,681.84 695.04,678.47 			"/>
			
				<linearGradient id="SVGID_00000004548005012504077910000008997967405930684806_" gradientUnits="userSpaceOnUse" x1="273.5898" y1="688.0606" x2="328.5724" y2="688.0606" gradientTransform="matrix(-1 0 0 1 1023.4791 0)">
				<stop  offset="0" style="stop-color:#000000"/>
				<stop  offset="1" style="stop-color:#0A0019"/>
			</linearGradient>
			
				<polyline style="fill:none;stroke:url(#SVGID_00000004548005012504077910000008997967405930684806_);stroke-width:1.1723;stroke-miterlimit:10;" points="
				749.77,691.92 727.93,687.29 710,687.58 695.04,684.2 			"/>
			
				<linearGradient id="SVGID_00000119091038540200102660000006497376426509602729_" gradientUnits="userSpaceOnUse" x1="273.5898" y1="693.7922" x2="328.5724" y2="693.7922" gradientTransform="matrix(-1 0 0 1 1023.4791 0)">
				<stop  offset="0" style="stop-color:#000000"/>
				<stop  offset="1" style="stop-color:#0A0019"/>
			</linearGradient>
			
				<polyline style="fill:none;stroke:url(#SVGID_00000119091038540200102660000006497376426509602729_);stroke-width:1.1723;stroke-miterlimit:10;" points="
				749.77,697.65 727.93,693.02 710,693.31 695.04,689.93 			"/>
			
				<linearGradient id="SVGID_00000133492092752886508470000008217334096530745476_" gradientUnits="userSpaceOnUse" x1="294.6165" y1="687.9675" x2="295.7887" y2="687.9675" gradientTransform="matrix(-1 0 0 1 1023.4791 0)">
				<stop  offset="0" style="stop-color:#000000"/>
				<stop  offset="1" style="stop-color:#0A0019"/>
			</linearGradient>
			
				<line style="fill:none;stroke:url(#SVGID_00000133492092752886508470000008217334096530745476_);stroke-width:1.1723;stroke-miterlimit:10;" x1="728.28" y1="678.74" x2="728.28" y2="697.19"/>
			
				<linearGradient id="SVGID_00000019637577104488576460000015083616525605879733_" gradientUnits="userSpaceOnUse" x1="327.8574" y1="683.7989" x2="329.0297" y2="683.7989" gradientTransform="matrix(-1 0 0 1 1023.4791 0)">
				<stop  offset="0" style="stop-color:#000000"/>
				<stop  offset="1" style="stop-color:#0A0019"/>
			</linearGradient>
			
				<line style="fill:none;stroke:url(#SVGID_00000019637577104488576460000015083616525605879733_);stroke-width:1.1723;stroke-miterlimit:10;" x1="695.04" y1="674.57" x2="695.04" y2="693.03"/>
			
				<linearGradient id="SVGID_00000071540171471521761810000012028693661016260776_" gradientUnits="userSpaceOnUse" x1="312.8905" y1="687.6976" x2="314.0628" y2="687.6976" gradientTransform="matrix(-1 0 0 1 1023.4791 0)">
				<stop  offset="0" style="stop-color:#000000"/>
				<stop  offset="1" style="stop-color:#0A0019"/>
			</linearGradient>
			
				<line style="fill:none;stroke:url(#SVGID_00000071540171471521761810000012028693661016260776_);stroke-width:1.1723;stroke-miterlimit:10;" x1="710" y1="678.47" x2="710" y2="696.92"/>
		</g>
	</g>
</g>
<g id="building">
</g>
<g id="bg2_00000150102937683533907320000002070361112974160050_">
	
		<linearGradient id="SVGID_00000149342130552241553370000013130105081093042352_" gradientUnits="userSpaceOnUse" x1="907.7" y1="903.3694" x2="907.7" y2="490.447">
		<stop  offset="0" style="stop-color:#8256A5"/>
		<stop  offset="1" style="stop-color:#0A0019"/>
	</linearGradient>
	<path style="fill:url(#SVGID_00000149342130552241553370000013130105081093042352_);" d="M802.98,720H1020V541.43
		c0,0-20.95-3.23-21.35,12.5c0,0-18.73-9.89-22.58,6.05c0,0-19.31-4.59-20.97,14.52c0,0-11.55,5.21-4.84,16.13
		c0,0-17.36,7.15-9.27,22.99c0,0-17.35,6.17-13.31,21.78c0,0-8.87,2.02-6.45,10.08c0,0-4.5-11.86-15.29-4.69
		c0,0-2.02-8.75-10.89-2.36c0,0-2.79-10.52-12.76-4.71c0,0-11.51-6-15.07,4.71c0,0-14.24,0.61-12.1,13.25c0,0-9.27-3.63-12.5,7.26
		c0,0-9.68-2.42-10.48,8.07c0,0-12.9-6.69-13.71,4.72c0,0-11.29-1.5-11.69,7.78c0,0-7.54,2.68-2.22,12.26c0,0-8.42-2.81-5.61,8.61
		c0,0-6.29,3.68-2.03,9.19C796.88,709.54,792.83,717.69,802.98,720z"/>
	
		<linearGradient id="SVGID_00000105425776870709366890000010926906538600748701_" gradientUnits="userSpaceOnUse" x1="892.0673" y1="921.9134" x2="892.0673" y2="467.2324" gradientTransform="matrix(-1 0 0 1 1015.7242 0)">
		<stop  offset="0" style="stop-color:#8256A5"/>
		<stop  offset="1" style="stop-color:#0A0019"/>
	</linearGradient>
	<path style="fill:url(#SVGID_00000105425776870709366890000010926906538600748701_);" d="M238.97,720H0l0-196.63
		c0,0,23.06-3.55,23.51,13.76c0,0,20.63-10.89,24.87,6.66c0,0,21.27-5.05,23.09,15.99c0,0,12.71,5.74,5.33,17.76
		c0,0,19.12,7.87,10.21,25.31c0,0,19.11,6.79,14.65,23.98c0,0,9.77,2.22,7.1,11.1c0,0,4.95-13.06,16.84-5.17
		c0,0,2.22-9.63,11.99-2.6c0,0,3.08-11.58,14.05-5.19c0,0,12.67-6.6,16.59,5.19c0,0,15.68,0.67,13.32,14.58c0,0,10.21-4,13.76,7.99
		c0,0,10.66-2.66,11.54,8.88c0,0,14.21-7.36,15.1,5.2c0,0,12.43-1.65,12.88,8.57c0,0,8.3,2.95,2.44,13.5c0,0,9.27-3.09,6.18,9.48
		c0,0,6.92,4.05,2.24,10.12C245.69,708.49,250.15,717.45,238.97,720z"/>
	
		<linearGradient id="SVGID_00000156565265366011266000000012441905456158904994_" gradientUnits="userSpaceOnUse" x1="855.9841" y1="766.996" x2="851.3273" y2="707.6996">
		<stop  offset="0" style="stop-color:#8256A5"/>
		<stop  offset="1" style="stop-color:#0A0019"/>
	</linearGradient>
	<path style="fill:url(#SVGID_00000156565265366011266000000012441905456158904994_);" d="M1020,664.56
		c0,0-138.28-2.48-179.88,30.42c0,0-109.28-8.34-159.88,25.01H1020V664.56z"/>
	
		<linearGradient id="SVGID_00000060716355344321482470000015892290402529272236_" gradientUnits="userSpaceOnUse" x1="857.5559" y1="763.2463" x2="853.1378" y2="706.9893" gradientTransform="matrix(-1 0 0 1 996.0919 0)">
		<stop  offset="0" style="stop-color:#8256A5"/>
		<stop  offset="1" style="stop-color:#0A0019"/>
	</linearGradient>
	<path style="fill:url(#SVGID_00000060716355344321482470000015892290402529272236_);" d="M0,720l0-55.44
		c0,0,246.62,22.53,288.22,55.44H0z"/>
	
		<linearGradient id="SVGID_00000115508290987056617200000015869000220643266446_" gradientUnits="userSpaceOnUse" x1="926.3986" y1="706.6599" x2="924.1061" y2="671.8557" gradientTransform="matrix(0.9805 0.1963 -0.1963 0.9805 149.5828 -174.233)">
		<stop  offset="0" style="stop-color:#000000"/>
		<stop  offset="1" style="stop-color:#0A0019"/>
	</linearGradient>
	<path style="fill:url(#SVGID_00000115508290987056617200000015869000220643266446_);" d="M940.89,653.06
		c1.55-7.74-3.47-15.28-11.22-16.83s-15.28,3.47-16.83,11.22c-0.06,0.28-0.08,0.55-0.12,0.83l-0.04-0.01l-5.77,28.8
		c-0.14,0.71,0.32,1.41,1.03,1.55l25.46,5.1c0.71,0.14,1.41-0.32,1.55-1.03l5.77-28.8l-0.04-0.01
		C940.75,653.61,940.83,653.34,940.89,653.06z"/>
	
		<linearGradient id="SVGID_00000075858622726447444900000006127360576877587613_" gradientUnits="userSpaceOnUse" x1="195.4986" y1="848.1978" x2="194.2632" y2="829.4416" gradientTransform="matrix(0.9149 0.4037 -0.4037 0.9149 333.1006 -154.8322)">
		<stop  offset="0" style="stop-color:#000000"/>
		<stop  offset="1" style="stop-color:#0A0019"/>
	</linearGradient>
	<path style="fill:url(#SVGID_00000075858622726447444900000006127360576877587613_);" d="M186.5,677.64
		c1.72-3.89-0.05-8.44-3.94-10.16c-3.89-1.72-8.44,0.05-10.16,3.94c-0.06,0.14-0.11,0.28-0.16,0.42l-0.02-0.01l-6.39,14.48
		c-0.16,0.36,0,0.78,0.36,0.94l12.8,5.65c0.36,0.16,0.78,0,0.94-0.36l6.39-14.48l-0.02-0.01
		C186.37,677.91,186.44,677.78,186.5,677.64z"/>
	
		<linearGradient id="SVGID_00000163783053853299514640000006426675267293083822_" gradientUnits="userSpaceOnUse" x1="777.5959" y1="693.1563" x2="775.6123" y2="663.0422" gradientTransform="matrix(0.9678 -0.2516 0.2516 0.9678 -157.562 248.2571)">
		<stop  offset="0" style="stop-color:#000000"/>
		<stop  offset="1" style="stop-color:#0A0019"/>
	</linearGradient>
	<path style="fill:url(#SVGID_00000163783053853299514640000006426675267293083822_);" d="M768.36,678.27
		c-1.72-6.61-8.48-10.58-15.09-8.86c-6.61,1.72-10.58,8.48-8.86,15.09c0.06,0.24,0.14,0.46,0.22,0.69l-0.04,0.01l6.4,24.6
		c0.16,0.61,0.78,0.97,1.39,0.82l21.75-5.65c0.61-0.16,0.97-0.78,0.82-1.39l-6.4-24.6l-0.04,0.01
		C768.46,678.74,768.43,678.51,768.36,678.27z"/>
	
		<linearGradient id="SVGID_00000091003253253886066300000010614021352979175824_" gradientUnits="userSpaceOnUse" x1="97.3886" y1="490.0093" x2="94.882" y2="451.9558" gradientTransform="matrix(0.9678 -0.2516 0.2516 0.9678 -157.562 248.2571)">
		<stop  offset="0" style="stop-color:#000000"/>
		<stop  offset="1" style="stop-color:#0A0019"/>
	</linearGradient>
	<path style="fill:url(#SVGID_00000091003253253886066300000010614021352979175824_);" d="M58.64,640.92
		c-2.17-8.36-10.71-13.37-19.07-11.2c-8.36,2.17-13.37,10.71-11.2,19.07c0.08,0.3,0.18,0.58,0.27,0.87l-0.04,0.01l8.08,31.08
		c0.2,0.77,0.99,1.23,1.76,1.03l27.48-7.14c0.77-0.2,1.23-0.99,1.03-1.76l-8.08-31.08l-0.04,0.01
		C58.77,641.52,58.72,641.22,58.64,640.92z"/>
	
		<linearGradient id="SVGID_00000055689074862362108820000016430488110213710012_" gradientUnits="userSpaceOnUse" x1="821.3944" y1="729.7745" x2="818.0877" y2="679.5727" gradientTransform="matrix(0.982 0.1888 -0.1888 0.982 130.0988 -140.1762)">
		<stop  offset="0" style="stop-color:#000000"/>
		<stop  offset="1" style="stop-color:#0A0019"/>
	</linearGradient>
	<path style="fill:url(#SVGID_00000055689074862362108820000016430488110213710012_);" d="M829.72,662.78
		c2.15-11.19-5.18-22-16.36-24.15s-22,5.18-24.15,16.36c-0.08,0.4-0.11,0.8-0.17,1.19l-0.06-0.01l-8,41.61
		c-0.2,1.03,0.48,2.03,1.51,2.23l36.78,7.07c1.03,0.2,2.03-0.48,2.22-1.51l8-41.61l-0.06-0.01
		C829.53,663.56,829.64,663.18,829.72,662.78z"/>
	<g>
		
			<linearGradient id="SVGID_00000121274571498700363080000013387968700610307765_" gradientUnits="userSpaceOnUse" x1="987.6902" y1="642.8456" x2="964.8741" y2="688.3552" gradientTransform="matrix(0.9362 -0.3514 0.3514 0.9362 -176.9308 369.4541)">
			<stop  offset="0" style="stop-color:#000000"/>
			<stop  offset="1" style="stop-color:#0A0019"/>
		</linearGradient>
		<polygon style="fill:url(#SVGID_00000121274571498700363080000013387968700610307765_);" points="974.62,669.03 981.32,666.52 
			967.41,629.47 960.71,631.99 		"/>
		
			<linearGradient id="SVGID_00000086663046454221492110000012793938518828465335_" gradientUnits="userSpaceOnUse" x1="981.3906" y1="648.816" x2="971.301" y2="668.9412" gradientTransform="matrix(0.9362 -0.3514 0.3514 0.9362 -176.9308 369.4541)">
			<stop  offset="0" style="stop-color:#000000"/>
			<stop  offset="1" style="stop-color:#0A0019"/>
		</linearGradient>
		<polygon style="fill:url(#SVGID_00000086663046454221492110000012793938518828465335_);" points="958.2,650.54 981.52,641.79 
			979.2,635.61 955.88,644.37 		"/>
	</g>
	<g>
		
			<linearGradient id="SVGID_00000155862103295073830440000006320352987716193215_" gradientUnits="userSpaceOnUse" x1="870.6838" y1="622.2531" x2="860.6082" y2="642.3501" gradientTransform="matrix(0.9362 -0.3514 0.3514 0.9362 -160.6424 383.9375)">
			<stop  offset="0" style="stop-color:#000000"/>
			<stop  offset="1" style="stop-color:#0A0019"/>
		</linearGradient>
		<polygon style="fill:url(#SVGID_00000155862103295073830440000006320352987716193215_);" points="873.6,680.32 876.56,679.21 
			870.42,662.85 867.46,663.96 		"/>
		
			<linearGradient id="SVGID_00000036248458543077160320000007064216629655986601_" gradientUnits="userSpaceOnUse" x1="867.9019" y1="624.8896" x2="863.4463" y2="633.7769" gradientTransform="matrix(0.9362 -0.3514 0.3514 0.9362 -160.6424 383.9375)">
			<stop  offset="0" style="stop-color:#000000"/>
			<stop  offset="1" style="stop-color:#0A0019"/>
		</linearGradient>
		<polygon style="fill:url(#SVGID_00000036248458543077160320000007064216629655986601_);" points="866.35,672.15 876.65,668.29 
			875.62,665.56 865.32,669.43 		"/>
	</g>
	<g>
		
			<linearGradient id="SVGID_00000081611348717610724540000017421576643504791434_" gradientUnits="userSpaceOnUse" x1="264.5539" y1="889.1912" x2="245.5069" y2="927.1827" gradientTransform="matrix(0.9149 0.4037 -0.4037 0.9149 338.3677 -249.093)">
			<stop  offset="0" style="stop-color:#000000"/>
			<stop  offset="1" style="stop-color:#0A0019"/>
		</linearGradient>
		<polygon style="fill:url(#SVGID_00000081611348717610724540000017421576643504791434_);" points="195.84,698.53 201.31,700.94 
			214.64,670.72 209.18,668.31 		"/>
		
			<linearGradient id="SVGID_00000134232193184409034700000006533962952821524905_" gradientUnits="userSpaceOnUse" x1="259.295" y1="894.1754" x2="250.8721" y2="910.9759" gradientTransform="matrix(0.9149 0.4037 -0.4037 0.9149 338.3677 -249.093)">
			<stop  offset="0" style="stop-color:#000000"/>
			<stop  offset="1" style="stop-color:#0A0019"/>
		</linearGradient>
		<polygon style="fill:url(#SVGID_00000134232193184409034700000006533962952821524905_);" points="196.84,677.91 215.87,686.3 
			218.09,681.27 199.06,672.87 		"/>
	</g>
	
		<linearGradient id="SVGID_00000180338127531512056840000010760079441590657464_" gradientUnits="userSpaceOnUse" x1="619.8975" y1="635.6715" x2="619.8975" y2="719.2255">
		<stop  offset="0" style="stop-color:#8256A5"/>
		<stop  offset="1" style="stop-color:#0A0019"/>
	</linearGradient>
	<path style="fill:url(#SVGID_00000180338127531512056840000010760079441590657464_);" d="M629.54,699.79l-0.04,0.01
		c-0.05-0.24-0.09-0.47-0.15-0.71c-1.72-6.61-8.48-10.58-15.09-8.86c-6.61,1.72-10.58,8.48-8.86,15.09
		c0.06,0.24,0.14,0.46,0.22,0.69l-0.04,0.01l3.64,13.98h25.57L629.54,699.79z"/>
	
		<linearGradient id="SVGID_00000005981844784051962440000006684117834076001680_" gradientUnits="userSpaceOnUse" x1="420.5718" y1="635.6715" x2="420.5718" y2="719.2255">
		<stop  offset="0" style="stop-color:#8256A5"/>
		<stop  offset="1" style="stop-color:#0A0019"/>
	</linearGradient>
	<path style="fill:url(#SVGID_00000005981844784051962440000006684117834076001680_);" d="M430.22,715.29
		c0.08-0.13,0.17-0.25,0.25-0.38c2.14-3.7,0.87-8.44-2.83-10.58c-3.7-2.14-8.44-0.87-10.58,2.83c-0.08,0.13-0.14,0.27-0.21,0.4
		l-0.02-0.01L409.64,720h17.89l2.71-4.69L430.22,715.29z"/>
	
		<linearGradient id="SVGID_00000182524847809119649300000000439752811599773571_" gradientUnits="userSpaceOnUse" x1="593.5462" y1="635.6715" x2="593.5462" y2="719.2255">
		<stop  offset="0" style="stop-color:#8256A5"/>
		<stop  offset="1" style="stop-color:#0A0019"/>
	</linearGradient>
	<path style="fill:url(#SVGID_00000182524847809119649300000000439752811599773571_);" d="M583.9,715.29
		c-0.08-0.13-0.17-0.25-0.25-0.38c-2.14-3.7-0.87-8.44,2.83-10.58c3.7-2.14,8.44-0.87,10.58,2.83c0.08,0.13,0.14,0.27,0.21,0.4
		l0.02-0.01l7.18,12.44h-17.89l-2.71-4.69L583.9,715.29z"/>
	
		<linearGradient id="SVGID_00000176019637325483980270000013346583702952380333_" gradientUnits="userSpaceOnUse" x1="336.5928" y1="635.6715" x2="336.5928" y2="719.2255">
		<stop  offset="0" style="stop-color:#8256A5"/>
		<stop  offset="1" style="stop-color:#0A0019"/>
	</linearGradient>
	<path style="fill:url(#SVGID_00000176019637325483980270000013346583702952380333_);" d="M342.89,701.79
		c-0.06-0.19-0.11-0.37-0.18-0.55c-1.93-5.15-7.67-7.76-12.82-5.82c-5.15,1.93-7.76,7.67-5.82,12.82c0.07,0.18,0.15,0.36,0.23,0.53
		l-0.03,0.01l4.21,11.22h21.28l-6.84-18.22L342.89,701.79z"/>
	
		<linearGradient id="SVGID_00000002342538133868914530000015636907089597270409_" gradientUnits="userSpaceOnUse" x1="544.3268" y1="635.6715" x2="544.3268" y2="719.2255">
		<stop  offset="0" style="stop-color:#8256A5"/>
		<stop  offset="1" style="stop-color:#0A0019"/>
	</linearGradient>
	<polygon style="fill:url(#SVGID_00000002342538133868914530000015636907089597270409_);" points="546.3,710.61 547.77,706.5 
		544.8,705.44 543.33,709.55 539.64,708.23 538.66,710.98 542.35,712.29 539.6,720 542.96,720 545.33,713.36 549.02,714.67 
		550,711.93 	"/>
	
		<linearGradient id="SVGID_00000154388057069606805340000017354257542018151565_" gradientUnits="userSpaceOnUse" x1="375.0457" y1="635.6715" x2="375.0457" y2="719.2255">
		<stop  offset="0" style="stop-color:#8256A5"/>
		<stop  offset="1" style="stop-color:#0A0019"/>
	</linearGradient>
	<polygon style="fill:url(#SVGID_00000154388057069606805340000017354257542018151565_);" points="377.93,705.48 379.08,698.55 
		374.07,697.73 372.92,704.65 366.71,703.62 365.95,708.24 372.16,709.26 370.39,720 375.53,720 377.17,710.09 383.38,711.12 
		384.14,706.5 	"/>
	<path class="st36" d="M957.83,532.16c0,0-17.35-1.24-19.99,5.13c-2.64,6.37,13.18,3.73,23.07,5.05c9.89,1.32,2.86,2.64,16.04,2.42
		c13.18-0.22,21.09-3.95,27.68-4.17c6.59-0.22,9.45-1.1,15.38-3.08c0,0-8.13,0.22-15.38-1.1c-7.25-1.32-17.14-4.3-22.19-4.35
		c-5.05-0.05-15.38,2.37-16.92,1.05C963.98,531.79,959.14,532.22,957.83,532.16z"/>
	<path class="st36" d="M131.12,618.45c0,0-17.35-1.24-19.99,5.13c-2.64,6.37,13.18,3.73,23.07,5.05s2.86,2.64,16.04,2.42
		s21.09-3.95,27.68-4.17s9.45-1.1,15.38-3.08c0,0-8.13,0.22-15.38-1.1c-7.25-1.32-17.14-4.3-22.19-4.35
		c-5.05-0.05-15.38,2.37-16.92,1.05C137.27,618.09,132.43,618.52,131.12,618.45z"/>
	<path class="st36" d="M61.52,578.28c0,0-28.79-1.66-33.16,6.86c-4.37,8.53,21.87,5,38.26,6.76c16.4,1.76,4.74,3.53,26.6,3.23
		s34.98-5.29,45.92-5.59c10.93-0.29,15.67-1.47,25.51-4.12c0,0-13.48,0.29-25.51-1.47c-12.03-1.76-28.43-5.75-36.81-5.82
		s-25.51,3.17-28.06,1.41C71.72,577.79,63.69,578.36,61.52,578.28z"/>
	
		<linearGradient id="SVGID_00000003103208469483002640000011770761473467756439_" gradientUnits="userSpaceOnUse" x1="56.2539" y1="620.0341" x2="100.3955" y2="620.0341" gradientTransform="matrix(0.9107 0.4131 -0.4131 0.9107 263.1096 23.0152)">
		<stop  offset="0" style="stop-color:#000000"/>
		<stop  offset="1" style="stop-color:#0A0019"/>
	</linearGradient>
	<path style="fill:url(#SVGID_00000003103208469483002640000011770761473467756439_);" d="M98.98,618.28
		c0.08-0.2-0.12-0.4-0.32-0.32c-1.95,0.86-8.65,3.61-11.09,2.14c-2.86-1.72-4.6-3.86-1.29-9.57c0.01-0.02-0.01-0.05-0.02-0.03
		c-0.46,0.35-2.86,2.07-3.89,0.61c-1.78,0.19-2.06-2.75-2.1-3.33c0-0.02-0.03-0.02-0.04,0c-2.11,6.26-4.87,6.36-8.05,5.34
		c-2.72-0.87-5.06-7.73-5.7-9.76c-0.07-0.21-0.34-0.22-0.45-0.03c-3.01,5.67-7.25,8.42-8.51,9.15c-0.06,0.03-0.01,0.12,0.05,0.1
		c8.5-1.9,8.38,5.46,8.38,5.46c6.75-3.06,7.42,12.9,7.42,12.9s12.45-10.01,14.59-2.91c0,0,5.45-4.94,9.62,2.71
		c0.03,0.06,0.13,0.04,0.11-0.03C97.42,629.27,96.7,624.28,98.98,618.28z"/>
	
		<linearGradient id="SVGID_00000032614849339609010830000015735588094863428769_" gradientUnits="userSpaceOnUse" x1="116.0637" y1="597.4393" x2="130.5808" y2="597.4393" gradientTransform="matrix(0.9107 0.4131 -0.4131 0.9107 263.1096 23.0152)">
		<stop  offset="0" style="stop-color:#000000"/>
		<stop  offset="1" style="stop-color:#0A0019"/>
	</linearGradient>
	<path style="fill:url(#SVGID_00000032614849339609010830000015735588094863428769_);" d="M135.43,617.47
		c0.03-0.07-0.04-0.13-0.1-0.1c-0.64,0.28-2.84,1.19-3.65,0.7c-0.94-0.57-1.51-1.27-0.42-3.15c0-0.01,0-0.01-0.01-0.01
		c-0.15,0.12-0.94,0.68-1.28,0.2c-0.58,0.06-0.68-0.9-0.69-1.09c0-0.01-0.01-0.01-0.01,0c-0.69,2.06-1.6,2.09-2.65,1.76
		c-0.89-0.29-1.66-2.54-1.87-3.21c-0.02-0.07-0.11-0.07-0.15-0.01c-0.99,1.87-2.38,2.77-2.8,3.01c-0.02,0.01,0,0.04,0.02,0.03
		c2.8-0.62,2.75,1.79,2.75,1.79c2.22-1.01,2.44,4.24,2.44,4.24s4.09-3.29,4.8-0.96c0,0,1.79-1.62,3.16,0.89
		c0.01,0.02,0.04,0.01,0.04-0.01C134.92,621.08,134.68,619.44,135.43,617.47z"/>
	
		<linearGradient id="SVGID_00000039835451964866536750000004378025370531992753_" gradientUnits="userSpaceOnUse" x1="9.1472" y1="575.8531" x2="35.7239" y2="575.8531" gradientTransform="matrix(0.9107 0.4131 -0.4131 0.9107 263.1096 23.0152)">
		<stop  offset="0" style="stop-color:#000000"/>
		<stop  offset="1" style="stop-color:#0A0019"/>
	</linearGradient>
	<path style="fill:url(#SVGID_00000039835451964866536750000004378025370531992753_);" d="M58.11,555.65
		c0.05-0.12-0.07-0.24-0.19-0.19c-1.17,0.51-5.21,2.17-6.68,1.29c-1.72-1.04-2.77-2.32-0.77-5.76c0.01-0.01,0-0.03-0.01-0.02
		c-0.28,0.21-1.72,1.25-2.34,0.37c-1.07,0.12-1.24-1.66-1.26-2c0-0.01-0.02-0.01-0.02,0c-1.27,3.77-2.93,3.83-4.85,3.21
		c-1.64-0.52-3.05-4.65-3.43-5.87c-0.04-0.12-0.21-0.13-0.27-0.02c-1.81,3.42-4.36,5.07-5.13,5.51c-0.04,0.02-0.01,0.07,0.03,0.06
		c5.12-1.14,5.04,3.28,5.04,3.28c4.06-1.84,4.47,7.76,4.47,7.76s7.5-6.03,8.79-1.75c0,0,3.28-2.97,5.79,1.63
		c0.02,0.04,0.08,0.03,0.07-0.02C57.17,562.28,56.74,559.27,58.11,555.65z"/>
	
		<linearGradient id="SVGID_00000069396133565678073040000015895299708949397384_" gradientUnits="userSpaceOnUse" x1="819.8931" y1="340.5724" x2="870.4729" y2="340.5724" gradientTransform="matrix(0.7927 -0.6096 0.6096 0.7927 64.7209 840.265)">
		<stop  offset="0" style="stop-color:#000000"/>
		<stop  offset="1" style="stop-color:#0A0019"/>
	</linearGradient>
	<path style="fill:url(#SVGID_00000069396133565678073040000015895299708949397384_);" d="M951.65,573.14
		c-0.16-0.19-0.47-0.1-0.49,0.15c-0.18,2.43-1.01,10.69-3.81,12.37c-3.28,1.97-6.38,2.58-10.37-3.85c-0.01-0.02-0.05-0.02-0.04,0.01
		c0.11,0.65,0.56,4.01-1.48,4.26c-0.76,1.9-3.89,0.6-4.49,0.33c-0.02-0.01-0.04,0.02-0.02,0.04c5.19,5.51,3.8,8.35,1.06,11.01
		c-2.34,2.28-10.54,0.95-12.94,0.51c-0.25-0.05-0.41,0.23-0.27,0.44c4.11,6.1,4.61,11.86,4.66,13.54c0,0.08,0.11,0.08,0.13,0
		c2.66-9.62,10.03-5.53,10.03-5.53c0.54-8.48,17.04-0.56,17.04-0.56s-3.41-17.98,4.92-16.33c0,0-2.06-8.17,7.92-8.27
		c0.08,0,0.11-0.1,0.03-0.13C961.94,580.64,956.5,578.68,951.65,573.14z"/>
	
		<linearGradient id="SVGID_00000129182116947669420140000002210425434318982272_" gradientUnits="userSpaceOnUse" x1="781.6787" y1="340.4891" x2="800.0117" y2="340.4891" gradientTransform="matrix(0.7996 -0.6005 0.6005 0.7996 63.0863 841.7961)">
		<stop  offset="0" style="stop-color:#000000"/>
		<stop  offset="1" style="stop-color:#0A0019"/>
	</linearGradient>
	<path style="fill:url(#SVGID_00000129182116947669420140000002210425434318982272_);" d="M903.41,631.29
		c-0.06-0.07-0.17-0.04-0.18,0.05c-0.08,0.88-0.41,3.87-1.43,4.47c-1.2,0.7-2.32,0.91-3.74-1.44c0-0.01-0.02-0.01-0.02,0
		c0.04,0.24,0.18,1.46-0.55,1.54c-0.28,0.69-1.41,0.2-1.63,0.1c-0.01,0-0.01,0.01-0.01,0.01c1.86,2.02,1.34,3.04,0.34,4
		c-0.86,0.82-3.83,0.3-4.69,0.13c-0.09-0.02-0.15,0.08-0.1,0.16c1.47,2.23,1.62,4.32,1.63,4.93c0,0.03,0.04,0.03,0.05,0
		c1-3.48,3.66-1.96,3.66-1.96c0.23-3.07,6.18-0.13,6.18-0.13s-1.16-6.53,1.85-5.9c0,0-0.71-2.97,2.91-2.97
		c0.03,0,0.04-0.04,0.01-0.05C907.11,634.05,905.14,633.32,903.41,631.29z"/>
	
		<linearGradient id="SVGID_00000111896185655565701300000001451257782360205195_" gradientUnits="userSpaceOnUse" x1="838.2283" y1="287.7169" x2="849.3242" y2="287.7169" gradientTransform="matrix(0.9901 0.1406 -0.1406 0.9901 153.6992 154.984)">
		<stop  offset="0" style="stop-color:#000000"/>
		<stop  offset="1" style="stop-color:#0A0019"/>
	</linearGradient>
	<path style="fill:url(#SVGID_00000111896185655565701300000001451257782360205195_);" d="M953.5,556.59c0-0.05-0.06-0.09-0.1-0.05
		c-0.41,0.34-1.83,1.48-2.53,1.3c-0.81-0.21-1.38-0.61-0.99-2.22c0-0.01,0-0.01-0.01-0.01c-0.09,0.12-0.54,0.7-0.89,0.42
		c-0.41,0.17-0.69-0.52-0.74-0.65c0-0.01-0.01,0-0.01,0c-0.07,1.66-0.73,1.88-1.56,1.86c-0.72-0.02-1.77-1.51-2.06-1.95
		c-0.03-0.05-0.1-0.03-0.11,0.02c-0.33,1.58-1.15,2.54-1.41,2.81c-0.01,0.01,0.01,0.03,0.02,0.02c1.92-1.06,2.41,0.72,2.41,0.72
		c1.41-1.22,2.7,2.59,2.7,2.59s2.3-3.29,3.31-1.73c0,0,0.97-1.58,2.51-0.03c0.01,0.01,0.03,0,0.03-0.01
		C953.9,559.36,953.37,558.2,953.5,556.59z"/>
	
		<linearGradient id="SVGID_00000160150988139079365020000005604152030468480951_" gradientUnits="userSpaceOnUse" x1="563.5992" y1="648.5532" x2="563.1375" y2="661.4821">
		<stop  offset="0" style="stop-color:#8256A5"/>
		<stop  offset="1" style="stop-color:#0A0019"/>
	</linearGradient>
	
		<rect x="553.5" y="654.53" style="fill:url(#SVGID_00000160150988139079365020000005604152030468480951_);" width="19.63" height="3.92"/>
	
		<linearGradient id="SVGID_00000114761847004423943230000011984694930824157114_" gradientUnits="userSpaceOnUse" x1="563.5992" y1="652.9525" x2="563.1375" y2="665.8814">
		<stop  offset="0" style="stop-color:#8256A5"/>
		<stop  offset="1" style="stop-color:#0A0019"/>
	</linearGradient>
	
		<rect x="553.5" y="658.93" style="fill:url(#SVGID_00000114761847004423943230000011984694930824157114_);" width="19.63" height="3.92"/>
	
		<linearGradient id="SVGID_00000111893900136366619930000010355657142906155172_" gradientUnits="userSpaceOnUse" x1="563.5992" y1="657.3518" x2="563.1375" y2="670.2807">
		<stop  offset="0" style="stop-color:#8256A5"/>
		<stop  offset="1" style="stop-color:#0A0019"/>
	</linearGradient>
	
		<rect x="553.5" y="663.33" style="fill:url(#SVGID_00000111893900136366619930000010355657142906155172_);" width="19.63" height="3.92"/>
	
		<linearGradient id="SVGID_00000071551755195034720620000006443996124643449788_" gradientUnits="userSpaceOnUse" x1="458.9958" y1="657.3518" x2="458.5341" y2="670.2807">
		<stop  offset="0" style="stop-color:#8256A5"/>
		<stop  offset="1" style="stop-color:#0A0019"/>
	</linearGradient>
	
		<rect x="448.9" y="663.33" style="fill:url(#SVGID_00000071551755195034720620000006443996124643449788_);" width="19.63" height="3.92"/>
	
		<linearGradient id="SVGID_00000034797875194530975050000002978443982788761765_" gradientUnits="userSpaceOnUse" x1="458.9958" y1="662.0716" x2="458.5341" y2="675.0005">
		<stop  offset="0" style="stop-color:#8256A5"/>
		<stop  offset="1" style="stop-color:#0A0019"/>
	</linearGradient>
	
		<rect x="448.9" y="668.05" style="fill:url(#SVGID_00000034797875194530975050000002978443982788761765_);" width="19.63" height="3.92"/>
	
		<linearGradient id="SVGID_00000075130827103282242180000011533445309101530294_" gradientUnits="userSpaceOnUse" x1="458.9958" y1="666.7914" x2="458.5341" y2="679.7203">
		<stop  offset="0" style="stop-color:#8256A5"/>
		<stop  offset="1" style="stop-color:#0A0019"/>
	</linearGradient>
	
		<rect x="448.9" y="672.77" style="fill:url(#SVGID_00000075130827103282242180000011533445309101530294_);" width="19.63" height="3.92"/>
	
		<linearGradient id="SVGID_00000133525162487971583170000001642889242276972716_" gradientUnits="userSpaceOnUse" x1="426.7777" y1="664.829" x2="426.316" y2="677.7579">
		<stop  offset="0" style="stop-color:#8256A5"/>
		<stop  offset="1" style="stop-color:#0A0019"/>
	</linearGradient>
	
		<rect x="416.68" y="670.8" style="fill:url(#SVGID_00000133525162487971583170000001642889242276972716_);" width="19.63" height="3.92"/>
	
		<linearGradient id="SVGID_00000007398562380791445910000013239632432538616738_" gradientUnits="userSpaceOnUse" x1="356.4157" y1="668.7538" x2="355.9539" y2="681.6827">
		<stop  offset="0" style="stop-color:#8256A5"/>
		<stop  offset="1" style="stop-color:#0A0019"/>
	</linearGradient>
	
		<rect x="346.32" y="674.73" style="fill:url(#SVGID_00000007398562380791445910000013239632432538616738_);" width="19.63" height="3.92"/>
	
		<linearGradient id="SVGID_00000136396013972768361280000008164920204236348349_" gradientUnits="userSpaceOnUse" x1="262.7403" y1="627.4166" x2="262.2786" y2="640.3455">
		<stop  offset="0" style="stop-color:#8256A5"/>
		<stop  offset="1" style="stop-color:#0A0019"/>
	</linearGradient>
	
		<rect x="252.64" y="633.39" style="fill:url(#SVGID_00000136396013972768361280000008164920204236348349_);" width="19.63" height="3.92"/>
	
		<linearGradient id="SVGID_00000088843120723569787750000017900404687411407508_" gradientUnits="userSpaceOnUse" x1="262.7403" y1="633.2952" x2="262.2786" y2="646.2241">
		<stop  offset="0" style="stop-color:#8256A5"/>
		<stop  offset="1" style="stop-color:#0A0019"/>
	</linearGradient>
	
		<rect x="252.64" y="639.27" style="fill:url(#SVGID_00000088843120723569787750000017900404687411407508_);" width="19.63" height="3.92"/>
	
		<linearGradient id="SVGID_00000094575877389828613210000010488377702635580805_" gradientUnits="userSpaceOnUse" x1="262.7403" y1="639.1738" x2="262.2786" y2="652.1027">
		<stop  offset="0" style="stop-color:#8256A5"/>
		<stop  offset="1" style="stop-color:#0A0019"/>
	</linearGradient>
	
		<rect x="252.64" y="645.15" style="fill:url(#SVGID_00000094575877389828613210000010488377702635580805_);" width="19.63" height="3.92"/>
	
		<linearGradient id="SVGID_00000032646604670252164780000000404547785875509380_" gradientUnits="userSpaceOnUse" x1="538.7568" y1="662.0716" x2="538.295" y2="675.0005">
		<stop  offset="0" style="stop-color:#8256A5"/>
		<stop  offset="1" style="stop-color:#0A0019"/>
	</linearGradient>
	
		<rect x="528.66" y="668.05" style="fill:url(#SVGID_00000032646604670252164780000000404547785875509380_);" width="19.63" height="3.92"/>
	
		<linearGradient id="SVGID_00000176759510647759509070000009954816752758246049_" gradientUnits="userSpaceOnUse" x1="592.4348" y1="675.6342" x2="591.9731" y2="688.563">
		<stop  offset="0" style="stop-color:#8256A5"/>
		<stop  offset="1" style="stop-color:#0A0019"/>
	</linearGradient>
	
		<rect x="582.38" y="680.37" style="fill:url(#SVGID_00000176759510647759509070000009954816752758246049_);" width="19.63" height="3.92"/>
</g>
<g id="day_graphic">
</g>
<g id="sun_light">
</g>
</svg>
