<?xml version="1.0" encoding="utf-8"?>
<!-- Generator: Adobe Illustrator 25.4.1, SVG Export Plug-In . SVG Version: 6.00 Build 0)  -->
<svg version="1.1" xmlns="http://www.w3.org/2000/svg" xmlns:xlink="http://www.w3.org/1999/xlink" x="0px" y="0px"
	 viewBox="0 0 390 570" style="enable-background:new 0 0 390 570;" xml:space="preserve">
<style type="text/css">
	.st0{fill:#C3B0CF;stroke:#2B1452;stroke-width:4;stroke-miterlimit:10;}
	.st1{fill:#FFFFFF;}
	.st2{fill:#2B1452;}
	.st3{fill:#C3B0CF;}
	.st4{fill:#FFFFFF;stroke:#2B1452;stroke-width:4;stroke-miterlimit:10;}
	.st5{fill:none;stroke:#2B1452;stroke-width:4;stroke-miterlimit:10;}
	.st6{fill:url(#SVGID_1_);stroke:#2B1452;stroke-width:4;stroke-miterlimit:10;}
	.st7{fill:#C6C1D7;stroke:#2B1452;stroke-width:4;stroke-miterlimit:10;}
	.st8{fill:url(#SVGID_00000159443491522524472430000007915297937547226255_);stroke:#2B1452;stroke-width:4;stroke-miterlimit:10;}
</style>
<g id="sketch">
</g>
<g id="레이어_2">
	<g>
		<path class="st0" d="M65.77,289.61c0,0-62.81,21.96-58.72,75.06s27.57,30.64,43.91,18.89s30.64-20.94,50.55-19.91"/>
		<path class="st1" d="M301.53,490.75c-16.21,7.61-42.82,11.82-78.2,7.31c-35.38-4.52-94.85-4.52-139.27-72.27
			S0.5,280.12,29.86,159.11S146.05,23.04,189.59,24.54S340.9,46.1,350.55,204.21c4.24,69.38-21.08,157.41-42.91,193.63
			c0,0-22.9,43.94-5.27,61.06c4.79,4.65,11.26,8.08,22.1,2.94s24.32-18.21,36.44-16.56c19.59,2.66-2.63,6.32-9.28,9.64
			c-4.89,2.45-15.09,8.86-18.6,12.19c-7.36,6.99-15.36,13.27-23.87,18.81C305.37,488.42,302.22,490.42,301.53,490.75z"/>
		<ellipse class="st2" cx="257.84" cy="532.28" rx="125.31" ry="13.28"/>
		<path class="st3" d="M84.06,425.78c44.42,67.75,103.89,67.75,139.27,72.27c35.38,4.52,61.99,0.3,78.2-7.31
			c0.69-0.33,3.84-2.33,7.65-4.81c8.51-5.54,16.51-11.82,23.87-18.81c3.51-3.34,13.71-9.75,18.6-12.19
			c6.64-3.32,28.86-6.98,9.28-9.64c-12.12-1.65-25.6,11.42-36.44,16.56s-17.31,1.71-22.1-2.94c-17.64-17.12,5.27-61.06,5.27-61.06
			c21.83-36.22,45.92-154.99,42.91-193.63C338.25,46.29,233.12,26.05,189.59,24.54c0,0,55.94,11.15,97.61,60.72
			c23.89,28.43,47.6,81.88,48.45,125.65c2.08,107.21-18.39,143.61-42.13,151.71c-25.41,8.68-53.07-3.42-71.98,58.67
			C194.25,510.91,84.06,425.78,84.06,425.78z"/>
		<path class="st4" d="M257.77,289.61c0,0-62.81,21.96-58.72,75.06s27.57,30.64,43.91,18.89s30.64-20.94,50.55-19.91"/>
		<g>
			<path class="st4" d="M186.42,212.6l7.83,6.79l6.08-8.28c0,0,11.67-1.26,19.69-1.93c1.39-4.5,1.55-8.91,1.52-11.72
				c-0.02-2.08-2.06-3.51-4.05-2.9c-32.27,10-82.07,5.37-97.22,3.63c-2.45-0.28-4.48,1.97-3.87,4.36c0.82,3.22,2.33,6.27,4.18,9.07
				C138.71,212.58,177.72,214.37,186.42,212.6z"/>
			<path class="st4" d="M200.33,211.11l-4.01,5.47c-1.11,1.52-3.28,1.76-4.7,0.53l-5.19-4.5c-8.7,1.76-47.71-0.02-65.84-0.97
				c3.79,5.73,8.99,10.41,12.57,13.24c2.43,1.92,5.54,2.81,8.62,2.49c43.65-4.48,46.81,0.91,62.2-2.91
				c9.71-2.41,14.1-8.92,16.05-15.27C211.99,209.85,200.33,211.11,200.33,211.11z"/>
		</g>
		<path class="st3" d="M151.06,237.48l35.5-0.85c1.69-0.04,2.61,1.97,1.48,3.22l-7.52,8.31c-1.53,1.69-3.71,2.66-6,2.66h-15.54
			c-3.35,0-6.35-2.06-7.55-5.18l-2.13-5.54C148.83,238.85,149.73,237.51,151.06,237.48z"/>
		<circle class="st3" cx="276.17" cy="197.3" r="33.08"/>
		<circle class="st3" cx="59.41" cy="197.3" r="33.08"/>
		<path class="st5" d="M301.53,490.75c-16.21,7.61-42.82,11.82-78.2,7.31c-35.38-4.52-94.85-4.52-139.27-72.27
			S0.5,280.12,29.86,159.11S146.05,23.04,189.59,24.54S340.9,46.1,350.55,204.21c4.24,69.38-21.08,157.41-42.91,193.63
			c0,0-22.9,43.94-5.27,61.06c4.79,4.65,11.26,8.08,22.1,2.94s24.32-18.21,36.44-16.56c19.59,2.66-2.63,6.32-9.28,9.64
			c-4.89,2.45-15.09,8.86-18.6,12.19c-7.36,6.99-15.36,13.27-23.87,18.81C305.37,488.42,302.22,490.42,301.53,490.75z"/>
		<radialGradient id="SVGID_1_" cx="212.4198" cy="130.3244" r="41.3633" gradientUnits="userSpaceOnUse">
			<stop  offset="1.331947e-07" style="stop-color:#483464"/>
			<stop  offset="1" style="stop-color:#33214D"/>
		</radialGradient>
		<path class="st6" d="M182.6,147.54c13.05,22.61,36.99,33.23,53.46,23.72c16.47-9.51,19.24-35.55,6.18-58.16
			s-36.99-33.23-53.46-23.72S169.54,124.93,182.6,147.54z"/>
		<ellipse transform="matrix(0.866 -0.5 0.5 0.866 -38.0326 118.7091)" class="st7" cx="202.5" cy="130.32" rx="21.9" ry="30.07"/>
		
			<radialGradient id="SVGID_00000129923418293174180280000009613410158041734555_" cx="116.2065" cy="130.3244" r="40.7336" gradientUnits="userSpaceOnUse">
			<stop  offset="1.331947e-07" style="stop-color:#483464"/>
			<stop  offset="1" style="stop-color:#33214D"/>
		</radialGradient>
		
			<path style="fill:url(#SVGID_00000129923418293174180280000009613410158041734555_);stroke:#2B1452;stroke-width:4;stroke-miterlimit:10;" d="
			M145.57,147.28c-12.86,22.27-36.43,32.73-52.65,23.36s-18.95-35.01-6.09-57.27s36.43-32.73,52.65-23.36
			S158.43,125.01,145.57,147.28z"/>
		
			<ellipse transform="matrix(0.5 -0.866 0.866 0.5 -49.8755 174.2618)" class="st7" cx="125.98" cy="130.32" rx="29.61" ry="21.57"/>
		<circle class="st1" cx="221.47" cy="124.37" r="6.63"/>
		<circle class="st1" cx="145.51" cy="124.37" r="6.63"/>
	</g>
</g>
</svg>
