<?xml version="1.0" encoding="utf-8"?>
<!-- Generator: Adobe Illustrator 25.4.1, SVG Export Plug-In . SVG Version: 6.00 Build 0)  -->
<svg version="1.1" id="btn" xmlns="http://www.w3.org/2000/svg" xmlns:xlink="http://www.w3.org/1999/xlink" x="0px" y="0px"
	 viewBox="0 0 287 61" style="enable-background:new 0 0 287 61;" xml:space="preserve">
<style type="text/css">
	.st0{fill:#E0CDF9;stroke:#221330;stroke-width:4;stroke-miterlimit:10;}
	.st1{fill:#A892CC;}
	.st2{fill:#221330;}
	.st3{fill:#F6F0FF;}
	.st4{fill:#3E2D5B;stroke:#221330;stroke-width:4;stroke-miterlimit:10;}
	.st5{fill:#F3EBFF;}
	.st6{fill:#5C4984;}
	.st7{fill:#9486BC;}
</style>
<g>
	<path class="st0" d="M-779.59,120.74h-234.32c-5.07,0-9.94,1.99-13.56,5.54l-5.31,5.21c-3.71,3.64-5.8,8.62-5.8,13.82v7.01
		c0,5.2,2.09,10.18,5.8,13.82l5.31,5.21c3.62,3.55,8.49,5.54,13.56,5.54h234.32c5.24,0,10.25-2.12,13.89-5.88l4.8-4.94
		c3.51-3.61,5.47-8.45,5.47-13.49v-7.56c0-5.04-1.96-9.88-5.47-13.49l-4.8-4.94C-769.34,122.86-774.36,120.74-779.59,120.74z"/>
	<g>
		<path class="st1" d="M-969.63,164.56c-1.95-0.47-3.55-1.1-4.81-1.89c-0.33-0.99-0.58-1.97-0.74-2.96
			c-0.16-0.99-0.37-2.4-0.62-4.23v-0.12c0.05-0.33,0.23-0.58,0.53-0.74c1.04,0.63,2.04,1.1,3,1.42c0.96,0.32,2.01,0.47,3.17,0.47
			h0.99l0.66,0.04c0.63,0,1.27-0.1,1.93-0.29c0.36-0.14,0.6-0.4,0.74-0.78l-2.18-1.07c-1.67-0.79-3.18-1.64-4.52-2.55
			c-1.4-1.01-2.4-2.3-3-3.86c-0.3-0.85-0.45-1.78-0.45-2.8c0-2.47,0.75-4.45,2.26-5.96c1.32-1.34,3.1-2.3,5.34-2.88
			c1.95-0.47,4.08-0.7,6.41-0.7c1.37,0,3.26,0.15,5.67,0.45c0.25,0.05,0.59,0.11,1.03,0.16l1.23,0.25c0.93,0.16,1.62,0.25,2.05,0.25
			c0.03,0,0.08,0.04,0.14,0.12c0.07,0.08,0.13,0.15,0.18,0.21c0.11,0.19,0.22,0.29,0.33,0.29h0.04h0.04l0.08,0.86
			c0,0.41,0.04,0.85,0.12,1.31c0.08,0.69,0.12,1.43,0.12,2.22c0,0.69-0.04,1.18-0.12,1.48c-0.14,0.55-0.38,0.94-0.74,1.19
			l-3.82-0.49h-0.41h-0.58c-0.93,0-2,0.1-3.21,0.29l-1.36,0.29c-0.33,0.06-0.49,0.11-0.49,0.16c0,0.66,0.42,1.27,1.27,1.85
			c0.41,0.22,0.82,0.4,1.23,0.55c0.41,0.15,0.67,0.25,0.78,0.31c2.03,0.58,3.78,1.58,5.26,3c0.68,0.66,1.22,1.36,1.6,2.1
			c0.38,0.74,0.58,1.45,0.58,2.14c0,0.41-0.06,0.85-0.16,1.32c-0.19,2.06-0.97,3.84-2.34,5.34c-1.34,1.34-3.03,2.33-5.06,2.96
			c-1.75,0.63-3.86,0.95-6.33,0.95C-965.7,165.22-967.66,165-969.63,164.56z"/>
		<path class="st1" d="M-939.71,163.49c-0.41-0.9-0.62-2.55-0.62-4.93c0-2.3,0.04-4.95,0.12-7.93c0.03-0.96,0.04-2.44,0.04-4.44
			l-0.12-0.16h-4.56c-0.36,0-0.64-0.2-0.84-0.6c-0.21-0.4-0.36-0.95-0.47-1.66c-0.14-0.82-0.21-2-0.21-3.54v-0.58
			c0-0.27,0.01-0.49,0.04-0.66v-0.62V138c0-0.16,0.08-0.31,0.25-0.43c0.16-0.12,0.36-0.21,0.58-0.27c0.27-0.08,0.68-0.12,1.23-0.12
			h3.12c0.68,0,1.21,0.01,1.56,0.04l1.52,0.04h14.8c1.07,0,1.77,0.01,2.1,0.04c0.14,0.03,0.33,0.05,0.58,0.08
			c0.25,0.03,0.42,0.08,0.53,0.16c0.19,0.08,0.31,0.19,0.35,0.31c0.04,0.12,0.06,0.31,0.06,0.56v6.78c0,0.3-0.12,0.51-0.37,0.62
			c-0.16,0.06-0.38,0.08-0.66,0.08h-1.32h-1.36c-0.63,0-1.11-0.03-1.44-0.08h-1.23c-0.25,0-0.38,0.06-0.41,0.16
			c0,0.03-0.01,0.06-0.04,0.1c-0.03,0.04-0.04,0.09-0.04,0.14v0.62v1.4c0,0.41-0.01,0.73-0.04,0.94c0,0.8-0.05,2.54-0.16,5.22
			l-0.08,1.23c-0.06,1.15-0.11,1.99-0.16,2.51v3.9c0,0.93-0.19,1.52-0.58,1.77c-0.36,0.14-0.6,0.22-0.74,0.25l-1.03,0.04
			c-1.07,0-1.82,0.03-2.26,0.08l-4.32,0.04c-0.55,0.03-1.54,0.04-2.96,0.04C-939.23,164.27-939.51,164.01-939.71,163.49z"/>
		<path class="st1" d="M-915.95,163.45c-0.03-0.08-0.04-0.22-0.04-0.41c0-0.27,0.05-0.68,0.16-1.23c0.05-0.36,0.1-0.64,0.14-0.84
			c0.04-0.21,0.07-0.36,0.1-0.47c0.82-3.86,1.63-7.26,2.43-10.19l2.88-12.99c0-0.05,0.04-0.14,0.12-0.25
			c0.08-0.11,0.18-0.18,0.29-0.21h0.21c0,0.03,0.04,0.04,0.12,0.04c0.33,0,0.7-0.04,1.11-0.12c0.41-0.08,0.78-0.12,1.11-0.12
			c0.6,0,1.16,0.04,1.69,0.12c0.25,0,0.52,0.01,0.82,0.04c0.3,0.03,0.62,0.04,0.95,0.04c0.11,0,0.23-0.03,0.37-0.08h0.74h0.95
			l0.99-0.04c0.19-0.03,0.42-0.04,0.7-0.04c0.22,0,0.33-0.01,0.33-0.04h0.66h1.4h1.73c1.53,0,2.55,0.03,3.04,0.08
			c0.08,0,0.2,0.01,0.35,0.02c0.15,0.01,0.24,0.05,0.27,0.1c0.19,0,0.38-0.01,0.58-0.04c0.19-0.03,0.37-0.04,0.53-0.04
			c0.38-0.08,0.75-0.12,1.11-0.12c0.16,0,0.33,0.04,0.49,0.12c0.16,0.08,0.34,0.12,0.53,0.12l0.21-0.04h0.12
			c0.08,0.06,0.17,0.13,0.27,0.23c0.1,0.1,0.14,0.17,0.14,0.23l2.88,12.99c0.88,3.21,1.67,6.6,2.38,10.19
			c0,0.16,0.05,0.34,0.16,0.53c0.03,0.19,0.07,0.45,0.12,0.78c0.05,0.33,0.08,0.6,0.08,0.82c0.03,0.11,0.04,0.26,0.04,0.45
			c0,0.38-0.08,0.7-0.25,0.95c-0.11,0.16-0.27,0.25-0.49,0.25h-0.53c-0.41,0-0.73-0.01-0.95-0.04h-1.07h-1.03h-0.82
			c-0.22,0-0.33-0.01-0.33-0.04h-2.59v-0.08c-0.11-0.05-0.25-0.08-0.41-0.08c-0.03,0.03-0.05,0.06-0.08,0.08
			c0,0.05-0.03,0.08-0.08,0.08h-0.12h-0.33c-0.14-0.05-0.41-0.08-0.82-0.08c-0.82-0.05-1.47-0.08-1.93-0.08
			c-0.16-0.25-0.34-0.74-0.51-1.48c-0.18-0.74-0.36-1.56-0.55-2.47c-0.06-0.44-0.11-0.74-0.16-0.9c-0.58,0.11-1.33,0.16-2.26,0.16
			h-1.27h-1.19l-0.29,1.32c-0.36,1.81-0.64,2.93-0.86,3.37c-0.11,0-0.25,0.03-0.41,0.08c-0.06,0.03-0.12,0.05-0.21,0.08h-0.16
			c-0.16,0-0.29-0.03-0.37-0.08c-0.05-0.05-0.12-0.08-0.21-0.08l-1.85,0.08h-0.66h-0.62c-0.11,0.05-0.25,0.08-0.41,0.08h-0.16h-3.78
			h-0.37c-0.3,0.03-0.92,0.04-1.85,0.04h-1.07c-0.22,0.03-0.53,0.04-0.95,0.04h-0.49C-915.56,164.27-915.81,164-915.95,163.45z
			 M-896.5,152.19c-0.08-0.38-0.22-1.11-0.41-2.18c-0.06-0.27-0.19-1.01-0.41-2.22l-0.33-1.97c-0.08-0.55-0.16-1.03-0.25-1.44
			l-0.04-0.53c-0.08-0.14-0.12-0.26-0.12-0.37l-0.04-0.25c-0.03,0.05-0.04,0.14-0.04,0.25c0,0.11-0.03,0.18-0.08,0.21v0.16
			l-0.08,0.53c-0.03,0.19-0.06,0.41-0.1,0.64c-0.04,0.23-0.09,0.49-0.14,0.76l-0.21,1.15c-0.3,1.73-0.48,2.73-0.53,3
			c-0.03,0.3-0.1,0.75-0.21,1.36c-0.05,0.19-0.11,0.48-0.16,0.86l-0.33,1.89h2.1l0.29-0.08h0.08c0.33,0,0.58,0.03,0.74,0.08
			c0.11,0,0.21,0.02,0.31,0.06c0.1,0.04,0.18,0.08,0.27,0.1L-896.5,152.19z"/>
		<path class="st1" d="M-856.3,165.59c-0.41-0.25-0.75-0.52-1.03-0.82c-0.08-0.14-0.14-0.21-0.16-0.21
			c-0.03-0.05-0.07-0.08-0.12-0.08l-0.08-0.04l-0.16-0.16l-3.49-5.18c-0.16-0.36-0.4-0.74-0.7-1.15c-0.19-0.19-0.36-0.4-0.49-0.62
			c-0.11-0.16-0.22-0.25-0.33-0.25c-0.08,0-0.14,0.04-0.19,0.12c-0.04,0.08-0.08,0.19-0.1,0.33c-0.08,0.74-0.12,1.74-0.12,3
			c0,1.21-0.07,2.18-0.21,2.92c-0.08,0.36-0.21,0.53-0.37,0.53h-0.25c-0.05-0.03-0.12-0.05-0.21-0.08c-0.96,0.08-2.4,0.18-4.32,0.29
			c-1.86,0.11-3.29,0.16-4.28,0.16c-0.27,0-0.49-0.03-0.66-0.08h-0.9h-0.74h-0.37l-1.48-0.49l-0.12-0.33c0-0.03-0.01-0.08-0.02-0.16
			c-0.01-0.08-0.02-0.19-0.02-0.33c0-0.16-0.03-0.47-0.08-0.9c-0.14-1.67-0.19-2.33-0.16-1.97c-0.06-0.71-0.15-1.95-0.29-3.7
			l-0.12-1.52c0-0.49-0.01-0.93-0.04-1.32c-0.03-0.38-0.05-0.71-0.08-0.99l-0.08-0.9c-0.08-1.12-0.12-2.18-0.12-3.17
			c0-0.03,0.01-0.07,0.02-0.12c0.01-0.05,0.02-0.16,0.02-0.33c0.05-0.16,0.08-0.42,0.08-0.78l0.04-0.74l0.04-0.49
			c0-0.58-0.03-1.41-0.08-2.51c-0.11-0.68-0.16-1.56-0.16-2.63c0-1.53,0.1-2.66,0.29-3.37c0.25-0.99,0.66-1.48,1.23-1.48
			c3.1,0,6.25,0.04,9.45,0.12c0.71,0,1.78,0.03,3.21,0.08l1.6,0.04c2.19,0.05,3.71,0.08,4.56,0.08c3.53,0.16,6.21,1.06,8.02,2.67
			c0.82,0.69,1.43,1.51,1.83,2.47c0.4,0.96,0.6,1.99,0.6,3.08c0,1.26-0.23,2.42-0.7,3.49c-0.38,0.85-0.93,1.63-1.64,2.34
			c-0.69,0.69-1.47,1.23-2.34,1.64c0.16,0.08,0.38,0.26,0.66,0.53c0.11,0.14,0.3,0.32,0.58,0.53l0.58,0.41
			c0.08,0.14,0.18,0.27,0.29,0.39c0.11,0.12,0.22,0.25,0.33,0.39l1.93,2.38c0.88,1.12,1.44,1.95,1.69,2.47
			c0.19,0.36,0.29,0.63,0.29,0.82c0,0.27-0.11,0.52-0.33,0.74c-0.22,0.22-0.55,0.49-0.99,0.82c-0.33,0.25-0.71,0.48-1.15,0.7
			c-0.41,0.22-0.73,0.43-0.95,0.62l-1.52,0.82c-0.55,0.3-1.14,0.56-1.77,0.78c-0.03,0-0.06,0.01-0.1,0.04
			c-0.04,0.03-0.1,0.05-0.19,0.08c-0.16,0.08-0.62,0.23-1.36,0.45c-0.14,0.08-0.37,0.15-0.7,0.21c-0.08,0.05-0.18,0.1-0.29,0.12
			c-0.11,0.03-0.19,0.04-0.25,0.04h-0.21c-0.03,0.14-0.08,0.21-0.16,0.21h-0.12h-0.12C-856.12,165.63-856.22,165.61-856.3,165.59z
			 M-862.76,151.12c0.85,0,1.52-0.42,2.01-1.27c0.47-0.77,0.73-1.64,0.78-2.63c0.05-0.58,0.08-1.26,0.08-2.06v-0.45
			c0-0.63-0.11-1.29-0.33-1.97c-0.22-0.88-0.67-1.51-1.36-1.89c-0.3-0.25-0.7-0.37-1.19-0.37c-0.14,0-0.25,0.16-0.33,0.49
			c-0.25,0.6-0.38,1.56-0.41,2.88c-0.11,0.55-0.16,1.19-0.16,1.93l-0.04,1.23c-0.06,1.59-0.08,2.9-0.08,3.95
			c0,0.03,0.01,0.06,0.04,0.08c0.03,0.03,0.05,0.04,0.08,0.04l0.29,0.04H-862.76z"/>
		<path class="st1" d="M-836.37,163.49c-0.41-0.9-0.62-2.55-0.62-4.93c0-2.3,0.04-4.95,0.12-7.93c0.03-0.96,0.04-2.44,0.04-4.44
			l-0.12-0.16h-4.56c-0.36,0-0.64-0.2-0.84-0.6c-0.21-0.4-0.36-0.95-0.47-1.66c-0.14-0.82-0.21-2-0.21-3.54v-0.58
			c0-0.27,0.01-0.49,0.04-0.66v-0.62V138c0-0.16,0.08-0.31,0.25-0.43c0.16-0.12,0.36-0.21,0.58-0.27c0.27-0.08,0.68-0.12,1.23-0.12
			h3.12c0.68,0,1.21,0.01,1.56,0.04l1.52,0.04h14.8c1.07,0,1.77,0.01,2.1,0.04c0.14,0.03,0.33,0.05,0.58,0.08
			c0.25,0.03,0.42,0.08,0.53,0.16c0.19,0.08,0.31,0.19,0.35,0.31c0.04,0.12,0.06,0.31,0.06,0.56v6.78c0,0.3-0.12,0.51-0.37,0.62
			c-0.16,0.06-0.38,0.08-0.66,0.08h-1.32h-1.36c-0.63,0-1.11-0.03-1.44-0.08h-1.23c-0.25,0-0.38,0.06-0.41,0.16
			c0,0.03-0.01,0.06-0.04,0.1c-0.03,0.04-0.04,0.09-0.04,0.14v0.62v1.4c0,0.41-0.01,0.73-0.04,0.94c0,0.8-0.06,2.54-0.16,5.22
			l-0.08,1.23c-0.05,1.15-0.11,1.99-0.16,2.51v3.9c0,0.93-0.19,1.52-0.58,1.77c-0.36,0.14-0.6,0.22-0.74,0.25l-1.03,0.04
			c-1.07,0-1.82,0.03-2.26,0.08l-4.32,0.04c-0.55,0.03-1.54,0.04-2.96,0.04C-835.89,164.27-836.17,164.01-836.37,163.49z"/>
	</g>
	<g>
		<g>
			<path class="st2" d="M-970.42,162.98c-1.95-0.47-3.55-1.1-4.81-1.89c-0.33-0.99-0.58-1.97-0.74-2.96
				c-0.16-0.99-0.37-2.4-0.62-4.23v-0.12c0.05-0.33,0.23-0.58,0.53-0.74c1.04,0.63,2.04,1.1,3,1.42c0.96,0.32,2.01,0.47,3.17,0.47
				h0.99l0.66,0.04c0.63,0,1.27-0.1,1.93-0.29c0.36-0.14,0.6-0.4,0.74-0.78l-2.18-1.07c-1.67-0.79-3.18-1.64-4.52-2.55
				c-1.4-1.01-2.4-2.3-3-3.86c-0.3-0.85-0.45-1.78-0.45-2.8c0-2.47,0.75-4.45,2.26-5.96c1.32-1.34,3.1-2.3,5.34-2.88
				c1.95-0.47,4.08-0.7,6.41-0.7c1.37,0,3.26,0.15,5.67,0.45c0.25,0.05,0.59,0.11,1.03,0.16l1.23,0.25
				c0.93,0.16,1.62,0.25,2.05,0.25c0.03,0,0.08,0.04,0.14,0.12c0.07,0.08,0.13,0.15,0.18,0.21c0.11,0.19,0.22,0.29,0.33,0.29h0.04
				h0.04l0.08,0.86c0,0.41,0.04,0.85,0.12,1.31c0.08,0.69,0.12,1.43,0.12,2.22c0,0.69-0.04,1.18-0.12,1.48
				c-0.14,0.55-0.38,0.94-0.74,1.19l-3.82-0.49h-0.41h-0.58c-0.93,0-2,0.1-3.21,0.29l-1.36,0.29c-0.33,0.06-0.49,0.11-0.49,0.16
				c0,0.66,0.42,1.27,1.27,1.85c0.41,0.22,0.82,0.4,1.23,0.55c0.41,0.15,0.67,0.25,0.78,0.31c2.03,0.58,3.78,1.58,5.26,3
				c0.68,0.66,1.22,1.36,1.6,2.1c0.38,0.74,0.58,1.45,0.58,2.14c0,0.41-0.06,0.85-0.16,1.32c-0.19,2.06-0.97,3.84-2.34,5.34
				c-1.34,1.34-3.03,2.33-5.06,2.96c-1.75,0.63-3.86,0.95-6.33,0.95C-966.49,163.63-968.45,163.42-970.42,162.98z"/>
			<path class="st2" d="M-940.5,161.91c-0.41-0.9-0.62-2.55-0.62-4.93c0-2.3,0.04-4.95,0.12-7.93c0.03-0.96,0.04-2.44,0.04-4.44
				l-0.12-0.16h-4.56c-0.36,0-0.64-0.2-0.84-0.6c-0.21-0.4-0.36-0.95-0.47-1.66c-0.14-0.82-0.21-2-0.21-3.54v-0.58
				c0-0.27,0.01-0.49,0.04-0.66v-0.62v-0.37c0-0.16,0.08-0.31,0.25-0.43c0.16-0.12,0.36-0.21,0.58-0.27
				c0.27-0.08,0.68-0.12,1.23-0.12h3.12c0.68,0,1.21,0.01,1.56,0.04l1.52,0.04h14.8c1.07,0,1.77,0.01,2.1,0.04
				c0.14,0.03,0.33,0.05,0.58,0.08c0.25,0.03,0.42,0.08,0.53,0.16c0.19,0.08,0.31,0.19,0.35,0.31c0.04,0.12,0.06,0.31,0.06,0.56
				v6.78c0,0.3-0.12,0.51-0.37,0.62c-0.16,0.06-0.38,0.08-0.66,0.08h-1.32h-1.36c-0.63,0-1.11-0.03-1.44-0.08h-1.23
				c-0.25,0-0.38,0.06-0.41,0.16c0,0.03-0.01,0.06-0.04,0.1c-0.03,0.04-0.04,0.09-0.04,0.14v0.62v1.4c0,0.41-0.01,0.73-0.04,0.94
				c0,0.8-0.05,2.54-0.16,5.22l-0.08,1.23c-0.06,1.15-0.11,1.99-0.16,2.51v3.9c0,0.93-0.19,1.52-0.58,1.77
				c-0.36,0.14-0.6,0.22-0.74,0.25l-1.03,0.04c-1.07,0-1.82,0.03-2.26,0.08l-4.32,0.04c-0.55,0.03-1.54,0.04-2.96,0.04
				C-940.02,162.69-940.31,162.43-940.5,161.91z"/>
			<path class="st2" d="M-916.74,161.87c-0.03-0.08-0.04-0.22-0.04-0.41c0-0.27,0.05-0.68,0.16-1.23c0.05-0.36,0.1-0.64,0.14-0.84
				c0.04-0.21,0.07-0.36,0.1-0.47c0.82-3.86,1.63-7.26,2.43-10.19l2.88-12.99c0-0.05,0.04-0.14,0.12-0.25
				c0.08-0.11,0.18-0.18,0.29-0.21h0.21c0,0.03,0.04,0.04,0.12,0.04c0.33,0,0.7-0.04,1.11-0.12c0.41-0.08,0.78-0.12,1.11-0.12
				c0.6,0,1.16,0.04,1.69,0.12c0.25,0,0.52,0.01,0.82,0.04c0.3,0.03,0.62,0.04,0.95,0.04c0.11,0,0.23-0.03,0.37-0.08h0.74h0.95
				l0.99-0.04c0.19-0.03,0.42-0.04,0.7-0.04c0.22,0,0.33-0.01,0.33-0.04h0.66h1.4h1.73c1.53,0,2.55,0.03,3.04,0.08
				c0.08,0,0.2,0.01,0.35,0.02c0.15,0.01,0.24,0.05,0.27,0.1c0.19,0,0.38-0.01,0.58-0.04c0.19-0.03,0.37-0.04,0.53-0.04
				c0.38-0.08,0.75-0.12,1.11-0.12c0.16,0,0.33,0.04,0.49,0.12c0.16,0.08,0.34,0.12,0.53,0.12l0.21-0.04h0.12
				c0.08,0.06,0.17,0.13,0.27,0.23c0.1,0.1,0.14,0.17,0.14,0.23l2.88,12.99c0.88,3.21,1.67,6.6,2.38,10.19
				c0,0.16,0.05,0.34,0.16,0.53c0.03,0.19,0.07,0.45,0.12,0.78c0.05,0.33,0.08,0.6,0.08,0.82c0.03,0.11,0.04,0.26,0.04,0.45
				c0,0.38-0.08,0.7-0.25,0.95c-0.11,0.16-0.27,0.25-0.49,0.25h-0.53c-0.41,0-0.73-0.01-0.95-0.04h-1.07h-1.03h-0.82
				c-0.22,0-0.33-0.01-0.33-0.04h-2.59v-0.08c-0.11-0.05-0.25-0.08-0.41-0.08c-0.03,0.03-0.05,0.06-0.08,0.08
				c0,0.05-0.03,0.08-0.08,0.08h-0.12h-0.33c-0.14-0.05-0.41-0.08-0.82-0.08c-0.82-0.05-1.47-0.08-1.93-0.08
				c-0.16-0.25-0.34-0.74-0.51-1.48c-0.18-0.74-0.36-1.56-0.55-2.47c-0.06-0.44-0.11-0.74-0.16-0.9c-0.58,0.11-1.33,0.16-2.26,0.16
				h-1.27h-1.19l-0.29,1.32c-0.36,1.81-0.64,2.93-0.86,3.37c-0.11,0-0.25,0.03-0.41,0.08c-0.06,0.03-0.12,0.05-0.21,0.08h-0.16
				c-0.16,0-0.29-0.03-0.37-0.08c-0.05-0.05-0.12-0.08-0.21-0.08l-1.85,0.08h-0.66h-0.62c-0.11,0.05-0.25,0.08-0.41,0.08h-0.16
				h-3.78h-0.37c-0.3,0.03-0.92,0.04-1.85,0.04h-1.07c-0.22,0.03-0.53,0.04-0.95,0.04H-916
				C-916.35,162.69-916.6,162.42-916.74,161.87z M-897.29,150.6c-0.08-0.38-0.22-1.11-0.41-2.18c-0.06-0.27-0.19-1.01-0.41-2.22
				l-0.33-1.97c-0.08-0.55-0.16-1.03-0.25-1.44l-0.04-0.53c-0.08-0.14-0.12-0.26-0.12-0.37l-0.04-0.25
				c-0.03,0.05-0.04,0.14-0.04,0.25c0,0.11-0.03,0.18-0.08,0.21v0.16l-0.08,0.53c-0.03,0.19-0.06,0.41-0.1,0.64
				c-0.04,0.23-0.09,0.49-0.14,0.76l-0.21,1.15c-0.3,1.73-0.48,2.73-0.53,3c-0.03,0.3-0.1,0.75-0.21,1.36
				c-0.05,0.19-0.11,0.48-0.16,0.86l-0.33,1.89h2.1l0.29-0.08h0.08c0.33,0,0.58,0.03,0.74,0.08c0.11,0,0.21,0.02,0.31,0.06
				c0.1,0.04,0.18,0.08,0.27,0.1L-897.29,150.6z"/>
			<path class="st2" d="M-857.09,164c-0.41-0.25-0.75-0.52-1.03-0.82c-0.08-0.14-0.14-0.21-0.16-0.21
				c-0.03-0.05-0.07-0.08-0.12-0.08l-0.08-0.04l-0.16-0.16l-3.49-5.18c-0.16-0.36-0.4-0.74-0.7-1.15c-0.19-0.19-0.36-0.4-0.49-0.62
				c-0.11-0.16-0.22-0.25-0.33-0.25c-0.08,0-0.14,0.04-0.19,0.12c-0.04,0.08-0.08,0.19-0.1,0.33c-0.08,0.74-0.12,1.74-0.12,3
				c0,1.21-0.07,2.18-0.21,2.92c-0.08,0.36-0.21,0.53-0.37,0.53h-0.25c-0.05-0.03-0.12-0.05-0.21-0.08
				c-0.96,0.08-2.4,0.18-4.32,0.29c-1.86,0.11-3.29,0.16-4.28,0.16c-0.27,0-0.49-0.03-0.66-0.08h-0.9H-876h-0.37l-1.48-0.49
				l-0.12-0.33c0-0.03-0.01-0.08-0.02-0.16c-0.01-0.08-0.02-0.19-0.02-0.33c0-0.16-0.03-0.47-0.08-0.9
				c-0.14-1.67-0.19-2.33-0.16-1.97c-0.06-0.71-0.15-1.95-0.29-3.7l-0.12-1.52c0-0.49-0.01-0.93-0.04-1.32
				c-0.03-0.38-0.05-0.71-0.08-0.99l-0.08-0.9c-0.08-1.12-0.12-2.18-0.12-3.17c0-0.03,0.01-0.07,0.02-0.12
				c0.01-0.05,0.02-0.16,0.02-0.33c0.05-0.16,0.08-0.42,0.08-0.78l0.04-0.74l0.04-0.49c0-0.58-0.03-1.41-0.08-2.51
				c-0.11-0.68-0.16-1.56-0.16-2.63c0-1.53,0.1-2.66,0.29-3.37c0.25-0.99,0.66-1.48,1.23-1.48c3.1,0,6.25,0.04,9.45,0.12
				c0.71,0,1.78,0.03,3.21,0.08l1.6,0.04c2.19,0.05,3.71,0.08,4.56,0.08c3.53,0.16,6.21,1.06,8.02,2.67
				c0.82,0.69,1.43,1.51,1.83,2.47c0.4,0.96,0.6,1.99,0.6,3.08c0,1.26-0.23,2.42-0.7,3.49c-0.38,0.85-0.93,1.63-1.64,2.34
				c-0.69,0.69-1.47,1.23-2.34,1.64c0.16,0.08,0.38,0.26,0.66,0.53c0.11,0.14,0.3,0.32,0.58,0.53l0.58,0.41
				c0.08,0.14,0.18,0.27,0.29,0.39c0.11,0.12,0.22,0.25,0.33,0.39l1.93,2.38c0.88,1.12,1.44,1.95,1.69,2.47
				c0.19,0.36,0.29,0.63,0.29,0.82c0,0.27-0.11,0.52-0.33,0.74c-0.22,0.22-0.55,0.49-0.99,0.82c-0.33,0.25-0.71,0.48-1.15,0.7
				c-0.41,0.22-0.73,0.43-0.95,0.62l-1.52,0.82c-0.55,0.3-1.14,0.56-1.77,0.78c-0.03,0-0.06,0.01-0.1,0.04
				c-0.04,0.03-0.1,0.05-0.19,0.08c-0.16,0.08-0.62,0.23-1.36,0.45c-0.14,0.08-0.37,0.15-0.7,0.21c-0.08,0.05-0.18,0.1-0.29,0.12
				c-0.11,0.03-0.19,0.04-0.25,0.04h-0.21c-0.03,0.14-0.08,0.21-0.16,0.21h-0.12h-0.12C-856.92,164.05-857.01,164.03-857.09,164z
				 M-863.55,149.54c0.85,0,1.52-0.42,2.01-1.27c0.47-0.77,0.73-1.64,0.78-2.63c0.05-0.58,0.08-1.26,0.08-2.06v-0.45
				c0-0.63-0.11-1.29-0.33-1.97c-0.22-0.88-0.67-1.51-1.36-1.89c-0.3-0.25-0.7-0.37-1.19-0.37c-0.14,0-0.25,0.16-0.33,0.49
				c-0.25,0.6-0.38,1.56-0.41,2.88c-0.11,0.55-0.16,1.19-0.16,1.93l-0.04,1.23c-0.06,1.59-0.08,2.9-0.08,3.95
				c0,0.03,0.01,0.06,0.04,0.08c0.03,0.03,0.05,0.04,0.08,0.04l0.29,0.04H-863.55z"/>
			<path class="st2" d="M-837.16,161.91c-0.41-0.9-0.62-2.55-0.62-4.93c0-2.3,0.04-4.95,0.12-7.93c0.03-0.96,0.04-2.44,0.04-4.44
				l-0.12-0.16h-4.56c-0.36,0-0.64-0.2-0.84-0.6c-0.21-0.4-0.36-0.95-0.47-1.66c-0.14-0.82-0.21-2-0.21-3.54v-0.58
				c0-0.27,0.01-0.49,0.04-0.66v-0.62v-0.37c0-0.16,0.08-0.31,0.25-0.43c0.16-0.12,0.36-0.21,0.58-0.27
				c0.27-0.08,0.68-0.12,1.23-0.12h3.12c0.68,0,1.21,0.01,1.56,0.04l1.52,0.04h14.8c1.07,0,1.77,0.01,2.1,0.04
				c0.14,0.03,0.33,0.05,0.58,0.08c0.25,0.03,0.42,0.08,0.53,0.16c0.19,0.08,0.31,0.19,0.35,0.31c0.04,0.12,0.06,0.31,0.06,0.56
				v6.78c0,0.3-0.12,0.51-0.37,0.62c-0.16,0.06-0.38,0.08-0.66,0.08h-1.32h-1.36c-0.63,0-1.11-0.03-1.44-0.08h-1.23
				c-0.25,0-0.38,0.06-0.41,0.16c0,0.03-0.01,0.06-0.04,0.1c-0.03,0.04-0.04,0.09-0.04,0.14v0.62v1.4c0,0.41-0.01,0.73-0.04,0.94
				c0,0.8-0.06,2.54-0.16,5.22l-0.08,1.23c-0.05,1.15-0.11,1.99-0.16,2.51v3.9c0,0.93-0.19,1.52-0.58,1.77
				c-0.36,0.14-0.6,0.22-0.74,0.25l-1.03,0.04c-1.07,0-1.82,0.03-2.26,0.08l-4.32,0.04c-0.55,0.03-1.54,0.04-2.96,0.04
				C-836.68,162.69-836.97,162.43-837.16,161.91z"/>
		</g>
	</g>
	<path class="st3" d="M-1035.61,139.05c0,0,12.59-13.67,17.64-13.28c5.04,0.39,220.67-0.24,220.67-0.24l-0.21-3.24
		c0,0-221.14-1.47-225.11,1.62C-1026.6,127-1035.79,135.68-1035.61,139.05z"/>
	<path class="st3" d="M-793.53,122.38l-0.89,3.29c0,0,21.18-2.24,32.12,7.14c0,0-6.19-9.32-13.39-10.07
		S-793.53,122.38-793.53,122.38z"/>
	<path class="st1" d="M-798.62,171.16c0,0-214.36-0.39-219.4,0c-5.04,0.39-17.64-13.28-17.64-13.28
		c-0.18,3.37,9.02,12.06,12.99,15.15c3.97,3.09,223.84,1.37,223.84,1.37s11.18-0.17,20.06-0.32c8.88-0.15,14.17-7.7,14.17-7.7
		C-769.61,172.28-798.62,171.16-798.62,171.16z"/>
	<polygon class="st2" points="-1011.19,175.85 -1009.13,167.42 -1000.01,159.64 -1006.64,167.75 -1004.14,175.85 	"/>
	<polygon class="st2" points="-797.19,120.74 -790.72,120.74 -797.5,132.68 -801.82,147.12 -799.82,129.12 	"/>
	<circle class="st1" cx="-1015.16" cy="135.6" r="1.89"/>
	<path class="st1" d="M-1017.54,146.64c0,0-6.21,1.16-7.78,3.58s-5.89,4.1-5.89,4.42s2.52,3.79,5.26,4.94
		c2.74,1.16,8.73,1.17,10.41,2.32c1.68,1.15-2.74-9.05-2.84-10.53C-1018.49,149.9-1013.23,147.37-1017.54,146.64z"/>
	<path class="st1" d="M-999.71,136.6c-0.08-2.18-0.96-3.29-1.61-2.12c-0.71,1.31-1.75,3.04-2.64,3.9c-1.53,1.47-1.06,7.26,0.77,5.37
		c1.83-1.89,2.41-4.75,3-4.69C-999.87,139.09-999.66,138.02-999.71,136.6z"/>
	<polyline class="st1" points="-1000.01,159.64 -1000.17,159.83 -1006.64,167.75 -1004.17,175.67 -1002.32,175.67 -1005.6,167.98 	
		"/>
	<path class="st1" d="M-771.23,152.75c-0.35,1.67-4.28,2.18-5.1,4.15c-0.82,1.97-3.47,2.52-4.89,3.94c-1.43,1.43,3.67,4.3,6.39,3.2
		c2.72-1.1,6.93-3.29,7.41-5.52c0.48-2.23-0.82-6.92-1.16-8.01C-768.92,149.42-770.82,150.78-771.23,152.75z"/>
	<ellipse class="st1" cx="-789.45" cy="167.38" rx="2.38" ry="1.6"/>
	<circle class="st1" cx="-768.61" cy="138.89" r="1.6"/>
	<path class="st1" d="M-808.41,148.14c0.26-0.01,2.44,5.65,5.76,6.9c3.31,1.25,5.35,3.65,5.35,4.69c0,1.04-4.54,0.86-6.98,0.28
		c-2.44-0.58-6.61,0.04-7.15-0.28c-1.57-0.94-1.74-4.84,0.52-6.87S-811.55,148.23-808.41,148.14z"/>
	<polygon class="st3" points="-792.55,123.97 -797.5,132.68 -801.82,147.12 -796.63,132.82 -787.39,122.28 -791.62,122.33 	"/>
	<path class="st4" d="M-778.58,190.08h-234.32c-5.07,0-9.94,1.99-13.56,5.54l-5.31,5.21c-3.71,3.64-5.8,8.62-5.8,13.82v7.01
		c0,5.2,2.09,10.18,5.8,13.82l5.31,5.21c3.62,3.55,8.49,5.54,13.56,5.54h234.32c5.24,0,10.25-2.12,13.89-5.88l4.8-4.94
		c3.51-3.61,5.47-8.45,5.47-13.49v-7.56c0-5.04-1.96-9.88-5.47-13.49l-4.8-4.94C-768.33,192.2-773.34,190.08-778.58,190.08z"/>
	<g>
		<path class="st2" d="M-991.56,232.11c-0.34-0.75-0.51-2.12-0.51-4.1c0-1.91,0.03-4.11,0.1-6.6c0.02-0.8,0.03-2.03,0.03-3.69
			l-0.1-0.14h-3.79c-0.3,0-0.53-0.16-0.7-0.5c-0.17-0.33-0.3-0.79-0.39-1.38c-0.11-0.68-0.17-1.66-0.17-2.94v-0.48
			c0-0.23,0.01-0.41,0.03-0.55v-0.51v-0.31c0-0.14,0.07-0.26,0.21-0.36c0.14-0.1,0.3-0.18,0.48-0.22c0.23-0.07,0.57-0.1,1.03-0.1
			h2.6c0.57,0,1,0.01,1.3,0.03l1.26,0.03h12.31c0.89,0,1.47,0.01,1.74,0.03c0.11,0.02,0.27,0.05,0.48,0.07
			c0.21,0.02,0.35,0.07,0.44,0.14c0.16,0.07,0.26,0.15,0.29,0.26c0.03,0.1,0.05,0.26,0.05,0.46v5.64c0,0.25-0.1,0.42-0.31,0.51
			c-0.14,0.05-0.32,0.07-0.55,0.07h-1.09h-1.13c-0.52,0-0.92-0.02-1.2-0.07h-1.03c-0.21,0-0.32,0.05-0.34,0.14
			c0,0.02-0.01,0.05-0.03,0.09c-0.02,0.03-0.03,0.07-0.03,0.12v0.51v1.16c0,0.34-0.01,0.6-0.03,0.79c0,0.66-0.05,2.11-0.14,4.34
			l-0.07,1.03c-0.05,0.96-0.09,1.65-0.14,2.09v3.25c0,0.77-0.16,1.26-0.48,1.47c-0.3,0.11-0.5,0.18-0.62,0.2l-0.85,0.03
			c-0.89,0-1.52,0.02-1.88,0.07l-3.59,0.03c-0.46,0.02-1.28,0.03-2.46,0.03C-991.16,232.76-991.4,232.54-991.56,232.11z"/>
		<path class="st2" d="M-969.54,232.01c-0.93-0.8-1.57-2.07-1.91-3.83c-0.23-1.16-0.34-2.91-0.34-5.23c0-1.69,0.09-3.53,0.27-5.54
			c0-0.32,0.02-0.77,0.07-1.37c0.02-0.48,0.05-1.16,0.07-2.03c0.02-0.88,0.03-1.65,0.03-2.31c0-0.34-0.02-0.58-0.07-0.72
			c-0.05-0.32-0.07-0.57-0.07-0.75c0-0.36,0.39-0.55,1.16-0.55h2.05c1.46-0.05,2.86,0,4.2,0.14c0.93,0.09,1.65,0.19,2.15,0.31
			c0.61,0.16,1.03,0.39,1.23,0.68c0.18,0.34,0.27,0.93,0.27,1.78c0,1.03-0.01,1.97-0.03,2.82c-0.02,0.85-0.05,1.61-0.07,2.27
			c-0.02,0.16-0.03,0.41-0.03,0.75c0,0.46-0.02,1.23-0.07,2.32c-0.05,2.01-0.07,3.68-0.07,5.03c0,0.84,0.03,1.46,0.1,1.85
			c0.07,0.37,0.25,0.55,0.55,0.55c0.62,0,1.29-0.15,2.02-0.44c0.46-0.23,0.77-0.4,0.96-0.51v-13.74c-0.07-0.52-0.1-1.04-0.1-1.54
			c-0.05-0.14-0.07-0.33-0.07-0.58v-0.31c0-0.41,0.08-0.69,0.24-0.85c0.16-0.14,0.54-0.21,1.13-0.21c0.66,0,1.52-0.03,2.56-0.1
			c0.36,0,0.87-0.02,1.5-0.07c0.46,0,0.79-0.03,0.99-0.1c0.14,0,0.3,0.02,0.48,0.07c0.27,0,0.5,0.01,0.68,0.03l1.03,0.03
			c0.5,0.02,1.13,0.11,1.88,0.27l0.96,0.27c0.2,0.07,0.34,0.15,0.39,0.24c0.06,0.09,0.09,0.21,0.09,0.34c0,3.37-0.07,6.76-0.2,10.15
			c-0.14,4.47-0.21,7.84-0.21,10.12c0,0.91-0.43,1.37-1.3,1.37h-1.74c-0.46,0.05-1.29,0.09-2.5,0.14c-0.68,0.05-1.22,0.07-1.61,0.07
			l-1.57,0.07c-0.62,0-1.08-0.1-1.4-0.31c-0.32-0.2-0.54-0.56-0.65-1.06c-1.23,0.62-2.53,1.11-3.9,1.47
			c-1.37,0.34-2.78,0.51-4.24,0.51C-966.79,233.51-968.43,233.01-969.54,232.01z"/>
		<path class="st2" d="M-936.59,232.11c-0.34-0.75-0.51-2.12-0.51-4.1c0-1.91,0.03-4.11,0.1-6.6c0.02-0.8,0.03-2.03,0.03-3.69
			l-0.1-0.14h-3.79c-0.3,0-0.53-0.16-0.7-0.5c-0.17-0.33-0.3-0.79-0.39-1.38c-0.11-0.68-0.17-1.66-0.17-2.94v-0.48
			c0-0.23,0.01-0.41,0.03-0.55v-0.51v-0.31c0-0.14,0.07-0.26,0.2-0.36c0.14-0.1,0.3-0.18,0.48-0.22c0.23-0.07,0.57-0.1,1.03-0.1h2.6
			c0.57,0,1,0.01,1.3,0.03l1.26,0.03h12.31c0.89,0,1.47,0.01,1.74,0.03c0.11,0.02,0.27,0.05,0.48,0.07
			c0.21,0.02,0.35,0.07,0.44,0.14c0.16,0.07,0.26,0.15,0.29,0.26c0.03,0.1,0.05,0.26,0.05,0.46v5.64c0,0.25-0.1,0.42-0.31,0.51
			c-0.14,0.05-0.32,0.07-0.55,0.07h-1.09h-1.13c-0.52,0-0.92-0.02-1.2-0.07h-1.03c-0.2,0-0.32,0.05-0.34,0.14
			c0,0.02-0.01,0.05-0.03,0.09c-0.02,0.03-0.03,0.07-0.03,0.12v0.51v1.16c0,0.34-0.01,0.6-0.03,0.79c0,0.66-0.05,2.11-0.14,4.34
			l-0.07,1.03c-0.05,0.96-0.09,1.65-0.14,2.09v3.25c0,0.77-0.16,1.26-0.48,1.47c-0.3,0.11-0.5,0.18-0.62,0.2l-0.85,0.03
			c-0.89,0-1.52,0.02-1.88,0.07l-3.59,0.03c-0.46,0.02-1.28,0.03-2.46,0.03C-936.19,232.76-936.43,232.54-936.59,232.11z"/>
		<path class="st2" d="M-910.17,232.89c-2.19-0.57-3.85-1.63-4.99-3.18c-1.32-1.85-1.98-4.41-1.98-7.69c0-2.35,0.26-4.34,0.79-5.98
			c0.52-1.64,1.33-2.99,2.43-4.03c1.09-1.05,2.5-1.82,4.22-2.31c1.72-0.49,3.82-0.74,6.31-0.74c1.94,0,3.76,0.3,5.47,0.89
			c2.1,0.75,3.73,1.9,4.89,3.45c1.44,1.85,2.15,4.27,2.15,7.28c0,3.51-0.52,6.24-1.57,8.2c-1.05,1.8-2.56,3.08-4.55,3.83
			c-1.62,0.62-3.86,0.92-6.73,0.92C-906.45,233.54-908.59,233.33-910.17,232.89z M-903.36,229.72c0.34-0.73,0.58-1.88,0.72-3.45
			c0.14-1.44,0.2-2.79,0.2-4.07v-1.37v-0.85c0-1-0.07-2.22-0.2-3.66c-0.14-1.55-0.38-2.72-0.72-3.52c-0.18-0.39-0.4-0.58-0.65-0.58
			c-0.5,0-0.87,0.48-1.09,1.44c-0.23,1.32-0.34,2.52-0.34,3.59c-0.07,0.91-0.1,2.34-0.1,4.27c0,1.3,0.03,2.37,0.1,3.21
			c0,1.07,0.11,2.31,0.34,3.73c0.23,1.19,0.59,1.78,1.09,1.78C-903.74,230.23-903.52,230.06-903.36,229.72z"/>
		<path class="st2" d="M-869.25,233.85c-0.34-0.2-0.63-0.43-0.86-0.68c-0.07-0.11-0.11-0.17-0.14-0.17
			c-0.02-0.05-0.06-0.07-0.1-0.07l-0.07-0.03l-0.14-0.14l-2.91-4.31c-0.14-0.3-0.33-0.62-0.58-0.96c-0.16-0.16-0.3-0.33-0.41-0.51
			c-0.09-0.14-0.18-0.21-0.27-0.21c-0.07,0-0.12,0.03-0.15,0.1c-0.03,0.07-0.06,0.16-0.09,0.27c-0.07,0.62-0.1,1.45-0.1,2.5
			c0,1-0.06,1.81-0.17,2.43c-0.07,0.3-0.17,0.44-0.31,0.44h-0.21c-0.05-0.02-0.1-0.05-0.17-0.07c-0.8,0.07-1.99,0.15-3.59,0.24
			c-1.55,0.09-2.73,0.14-3.56,0.14c-0.23,0-0.41-0.02-0.55-0.07h-0.75h-0.62h-0.31l-1.23-0.41l-0.1-0.27c0-0.02-0.01-0.07-0.02-0.14
			c-0.01-0.07-0.02-0.16-0.02-0.27c0-0.14-0.02-0.39-0.07-0.75c-0.11-1.39-0.16-1.94-0.14-1.64c-0.05-0.59-0.13-1.62-0.24-3.08
			l-0.1-1.26c0-0.41-0.01-0.77-0.03-1.09c-0.02-0.32-0.05-0.59-0.07-0.82l-0.07-0.75c-0.07-0.93-0.1-1.81-0.1-2.63
			c0-0.02,0.01-0.06,0.02-0.1c0.01-0.05,0.02-0.14,0.02-0.27c0.04-0.14,0.07-0.35,0.07-0.65l0.03-0.62l0.03-0.41
			c0-0.48-0.02-1.17-0.07-2.09c-0.09-0.57-0.14-1.3-0.14-2.19c0-1.28,0.08-2.21,0.24-2.8c0.2-0.82,0.55-1.23,1.03-1.23
			c2.57,0,5.2,0.03,7.86,0.1c0.59,0,1.48,0.02,2.67,0.07l1.33,0.03c1.82,0.05,3.09,0.07,3.79,0.07c2.94,0.14,5.16,0.88,6.67,2.22
			c0.68,0.57,1.19,1.25,1.52,2.05c0.33,0.8,0.5,1.65,0.5,2.56c0,1.05-0.19,2.02-0.58,2.91c-0.32,0.71-0.78,1.36-1.37,1.95
			c-0.57,0.57-1.22,1.03-1.95,1.37c0.14,0.07,0.32,0.22,0.55,0.44c0.09,0.11,0.25,0.26,0.48,0.44l0.48,0.34
			c0.07,0.11,0.15,0.22,0.24,0.32c0.09,0.1,0.18,0.21,0.27,0.32l1.61,1.98c0.73,0.93,1.2,1.62,1.4,2.05
			c0.16,0.3,0.24,0.52,0.24,0.68c0,0.23-0.09,0.43-0.27,0.62c-0.18,0.18-0.46,0.41-0.82,0.68c-0.27,0.21-0.59,0.4-0.96,0.58
			c-0.34,0.18-0.6,0.35-0.79,0.51l-1.26,0.68c-0.46,0.25-0.95,0.47-1.47,0.65c-0.02,0-0.05,0.01-0.09,0.03
			c-0.03,0.02-0.09,0.05-0.15,0.07c-0.14,0.07-0.51,0.19-1.13,0.38c-0.11,0.07-0.31,0.13-0.58,0.17c-0.07,0.05-0.15,0.08-0.24,0.1
			c-0.09,0.02-0.16,0.03-0.21,0.03h-0.17c-0.02,0.11-0.07,0.17-0.14,0.17h-0.1h-0.1C-869.1,233.89-869.18,233.87-869.25,233.85z
			 M-874.62,221.82c0.71,0,1.26-0.35,1.67-1.06c0.39-0.64,0.6-1.37,0.65-2.19c0.04-0.48,0.07-1.05,0.07-1.71v-0.38
			c0-0.52-0.09-1.07-0.27-1.64c-0.18-0.73-0.56-1.25-1.13-1.57c-0.25-0.2-0.58-0.31-0.99-0.31c-0.11,0-0.21,0.14-0.27,0.41
			c-0.21,0.5-0.32,1.3-0.34,2.39c-0.09,0.46-0.14,0.99-0.14,1.61l-0.03,1.03c-0.05,1.32-0.07,2.42-0.07,3.28
			c0,0.02,0.01,0.05,0.03,0.07c0.02,0.02,0.04,0.03,0.07,0.03l0.24,0.03H-874.62z"/>
		<path class="st2" d="M-856.94,232.57c-0.14-0.13-0.24-0.29-0.31-0.5c-0.09-0.41-0.16-0.87-0.2-1.37
			c-0.02-0.16-0.03-0.38-0.03-0.65v-0.44l0.03-4.24c0-1.44,0.03-2.85,0.1-4.24v-10.8c0-0.23,0.15-0.34,0.44-0.34
			c1.57,0,2.75-0.01,3.52-0.03h3.42c0.07,0,0.13-0.01,0.17-0.03c0.05-0.02,0.1-0.03,0.17-0.03c0.3-0.05,0.71-0.06,1.23-0.03
			c0.39,0,0.8,0.03,1.23,0.1c0.14,0.09,0.24,0.11,0.31,0.07c0.04,0,0.14-0.02,0.27-0.07c0.34,0,0.61,0.02,0.8,0.07
			c0.19,0.05,0.35,0.15,0.46,0.31c0.11,0.2,0.2,0.46,0.27,0.75c0.02,0.23,0.03,0.71,0.03,1.44v6.67v0.51
			c-0.02,0.18-0.03,0.59-0.03,1.23c0,0.68-0.02,1.22-0.07,1.61l-0.03,1.54c-0.02,0.34-0.03,0.77-0.03,1.3l-0.03,0.55v2.19
			c0,1.37-0.06,2.53-0.17,3.49c0,0.32-0.08,0.64-0.24,0.96c-0.41,0-1,0.02-1.78,0.07c-0.36,0-0.6,0.02-0.72,0.07h-0.34h-0.1
			c-0.16,0-0.24-0.02-0.24-0.07c-0.18-0.05-0.29-0.07-0.31-0.07l-0.27,0.14h-3.14c-0.02,0.02-0.21,0.03-0.55,0.03h-1.3h-1.26
			l-0.85,0.03C-856.66,232.76-856.81,232.7-856.94,232.57z"/>
		<path class="st2" d="M-841.22,232.07c-0.02-0.07-0.03-0.18-0.03-0.34c0-0.23,0.05-0.57,0.14-1.03c0.05-0.3,0.09-0.53,0.12-0.7
			s0.06-0.3,0.09-0.39c0.68-3.21,1.36-6.04,2.02-8.48l2.39-10.8c0-0.05,0.03-0.11,0.1-0.21c0.07-0.09,0.15-0.15,0.24-0.17h0.17
			c0,0.02,0.03,0.03,0.1,0.03c0.27,0,0.58-0.03,0.92-0.1c0.34-0.07,0.65-0.1,0.92-0.1c0.5,0,0.97,0.03,1.4,0.1
			c0.2,0,0.43,0.01,0.68,0.03c0.25,0.02,0.51,0.03,0.79,0.03c0.09,0,0.19-0.02,0.31-0.07h0.61h0.79l0.82-0.03
			c0.16-0.02,0.35-0.03,0.58-0.03c0.18,0,0.27-0.01,0.27-0.03h0.55h1.16h1.44c1.28,0,2.12,0.02,2.53,0.07
			c0.07,0,0.16,0.01,0.29,0.02c0.13,0.01,0.2,0.04,0.22,0.09c0.16,0,0.32-0.01,0.48-0.03c0.16-0.02,0.31-0.03,0.44-0.03
			c0.32-0.07,0.63-0.1,0.92-0.1c0.14,0,0.27,0.03,0.41,0.1c0.14,0.07,0.29,0.1,0.44,0.1l0.17-0.03h0.1
			c0.07,0.05,0.14,0.11,0.22,0.19c0.08,0.08,0.12,0.14,0.12,0.19l2.39,10.8c0.73,2.67,1.39,5.49,1.98,8.48
			c0,0.14,0.05,0.29,0.14,0.44c0.02,0.16,0.06,0.38,0.1,0.65c0.04,0.27,0.07,0.5,0.07,0.68c0.02,0.09,0.03,0.22,0.03,0.38
			c0,0.32-0.07,0.58-0.2,0.79c-0.09,0.14-0.23,0.2-0.41,0.2h-0.44c-0.34,0-0.6-0.01-0.79-0.03h-0.89h-0.85h-0.68
			c-0.18,0-0.27-0.01-0.27-0.03h-2.15v-0.07c-0.09-0.05-0.21-0.07-0.34-0.07c-0.02,0.02-0.05,0.05-0.07,0.07
			c0,0.05-0.02,0.07-0.07,0.07h-0.1h-0.27c-0.11-0.05-0.34-0.07-0.68-0.07c-0.68-0.05-1.22-0.07-1.61-0.07
			c-0.14-0.2-0.28-0.62-0.43-1.23c-0.15-0.62-0.3-1.3-0.46-2.05c-0.05-0.36-0.09-0.62-0.14-0.75c-0.48,0.09-1.11,0.14-1.88,0.14
			h-1.06h-0.99l-0.24,1.09c-0.3,1.5-0.54,2.44-0.72,2.8c-0.09,0-0.21,0.02-0.34,0.07c-0.05,0.02-0.1,0.05-0.17,0.07h-0.14
			c-0.14,0-0.24-0.02-0.31-0.07c-0.05-0.05-0.1-0.07-0.17-0.07l-1.54,0.07h-0.55h-0.51c-0.09,0.05-0.21,0.07-0.34,0.07h-0.14h-3.14
			h-0.31c-0.25,0.02-0.76,0.03-1.54,0.03h-0.89c-0.18,0.02-0.44,0.03-0.79,0.03h-0.41C-840.9,232.76-841.11,232.53-841.22,232.07z
			 M-825.05,222.71c-0.07-0.32-0.18-0.92-0.34-1.81c-0.05-0.23-0.16-0.84-0.34-1.85l-0.27-1.64c-0.07-0.46-0.14-0.85-0.2-1.2
			l-0.03-0.44c-0.07-0.11-0.1-0.22-0.1-0.31l-0.03-0.2c-0.02,0.05-0.03,0.11-0.03,0.2c0,0.09-0.02,0.15-0.07,0.17v0.14l-0.07,0.44
			c-0.02,0.16-0.05,0.34-0.09,0.53c-0.03,0.19-0.07,0.4-0.12,0.63l-0.17,0.96c-0.25,1.44-0.4,2.27-0.44,2.5
			c-0.02,0.25-0.08,0.63-0.17,1.13c-0.05,0.16-0.09,0.4-0.14,0.72l-0.27,1.57h1.74l0.24-0.07h0.07c0.27,0,0.48,0.02,0.61,0.07
			c0.09,0,0.18,0.02,0.26,0.05c0.08,0.03,0.15,0.06,0.22,0.09L-825.05,222.71z"/>
		<path class="st2" d="M-803.75,232.69c-0.98,0-1.73-0.01-2.26-0.03l-2.8-0.03c-0.2,0-0.4-0.09-0.58-0.27
			c-0.18-0.18-0.27-0.38-0.27-0.58v-7.52v-3.28l-0.03-2.8c0-0.93,0.02-2.11,0.07-3.52c0-0.3,0.03-1.06,0.1-2.29v-0.79
			c0-0.64,0.13-1.15,0.38-1.54c0.11-0.21,0.3-0.31,0.55-0.31c1.12,0,2.34,0.02,3.66,0.07c0.18,0.02,0.44,0.03,0.79,0.03
			c0.75,0,1.31,0.01,1.67,0.03h1.85c0.09,0,0.36,0,0.8,0c0.44,0,0.79,0.06,1.04,0.17c0.41,0.23,0.61,0.75,0.61,1.57l-0.03,0.27
			c0,0.07-0.02,0.24-0.07,0.51c-0.07,0.34-0.1,0.59-0.1,0.75c0,0.25,0.03,0.57,0.1,0.96c0.05,0.27,0.07,0.46,0.07,0.55l0.03,0.21
			v4.79v2.22v2.12v0.41c0,0.18,0.1,0.3,0.31,0.34c0.07,0.02,0.22,0.03,0.44,0.03h2.5c0.61-0.02,1.55-0.03,2.8-0.03
			c0.25,0,0.46,0.07,0.62,0.22c0.16,0.15,0.24,0.3,0.24,0.46v6.53v0.07c0,0.18-0.09,0.33-0.27,0.44c-0.2,0.09-0.44,0.15-0.72,0.17
			c-0.3,0.07-0.76,0.1-1.4,0.1h-4.96C-800.97,232.72-802.68,232.71-803.75,232.69z"/>
	</g>
	<g>
		<g>
			<path class="st5" d="M-993.14,230.53c-0.34-0.75-0.51-2.12-0.51-4.1c0-1.91,0.03-4.11,0.1-6.6c0.02-0.8,0.03-2.03,0.03-3.69
				l-0.1-0.14h-3.79c-0.3,0-0.53-0.16-0.7-0.5c-0.17-0.33-0.3-0.79-0.39-1.38c-0.11-0.68-0.17-1.66-0.17-2.94v-0.48
				c0-0.23,0.01-0.41,0.03-0.55v-0.51v-0.31c0-0.14,0.07-0.26,0.21-0.36c0.14-0.1,0.3-0.18,0.48-0.22c0.23-0.07,0.57-0.1,1.03-0.1
				h2.6c0.57,0,1,0.01,1.3,0.03l1.26,0.03h12.31c0.89,0,1.47,0.01,1.74,0.03c0.11,0.02,0.27,0.05,0.48,0.07
				c0.21,0.02,0.35,0.07,0.44,0.14c0.16,0.07,0.26,0.15,0.29,0.26c0.03,0.1,0.05,0.26,0.05,0.46v5.64c0,0.25-0.1,0.42-0.31,0.51
				c-0.14,0.05-0.32,0.07-0.55,0.07h-1.09h-1.13c-0.52,0-0.92-0.02-1.2-0.07h-1.03c-0.21,0-0.32,0.05-0.34,0.14
				c0,0.02-0.01,0.05-0.03,0.09c-0.02,0.03-0.03,0.07-0.03,0.12v0.51v1.16c0,0.34-0.01,0.6-0.03,0.79c0,0.66-0.05,2.11-0.14,4.34
				l-0.07,1.03c-0.05,0.96-0.09,1.65-0.14,2.09v3.25c0,0.77-0.16,1.26-0.48,1.47c-0.3,0.11-0.5,0.18-0.62,0.2l-0.85,0.03
				c-0.89,0-1.52,0.02-1.88,0.07l-3.59,0.03c-0.46,0.02-1.28,0.03-2.46,0.03C-992.74,231.18-992.98,230.96-993.14,230.53z"/>
			<path class="st5" d="M-971.12,230.43c-0.93-0.8-1.57-2.07-1.91-3.83c-0.23-1.16-0.34-2.91-0.34-5.23c0-1.69,0.09-3.53,0.27-5.54
				c0-0.32,0.02-0.77,0.07-1.37c0.02-0.48,0.05-1.16,0.07-2.03c0.02-0.88,0.03-1.65,0.03-2.31c0-0.34-0.02-0.58-0.07-0.72
				c-0.05-0.32-0.07-0.57-0.07-0.75c0-0.36,0.39-0.55,1.16-0.55h2.05c1.46-0.05,2.86,0,4.2,0.14c0.93,0.09,1.65,0.19,2.15,0.31
				c0.61,0.16,1.03,0.39,1.23,0.68c0.18,0.34,0.27,0.93,0.27,1.78c0,1.03-0.01,1.97-0.03,2.82c-0.02,0.85-0.05,1.61-0.07,2.27
				c-0.02,0.16-0.03,0.41-0.03,0.75c0,0.46-0.02,1.23-0.07,2.32c-0.05,2.01-0.07,3.68-0.07,5.03c0,0.84,0.03,1.46,0.1,1.85
				c0.07,0.37,0.25,0.55,0.55,0.55c0.62,0,1.29-0.15,2.02-0.44c0.46-0.23,0.77-0.4,0.96-0.51V211.9c-0.07-0.52-0.1-1.04-0.1-1.54
				c-0.05-0.14-0.07-0.33-0.07-0.58v-0.31c0-0.41,0.08-0.69,0.24-0.85c0.16-0.14,0.54-0.21,1.13-0.21c0.66,0,1.52-0.03,2.56-0.1
				c0.36,0,0.87-0.02,1.5-0.07c0.46,0,0.79-0.03,0.99-0.1c0.14,0,0.3,0.02,0.48,0.07c0.27,0,0.5,0.01,0.68,0.03l1.03,0.03
				c0.5,0.02,1.13,0.11,1.88,0.27l0.96,0.27c0.2,0.07,0.34,0.15,0.39,0.24c0.06,0.09,0.09,0.21,0.09,0.34
				c0,3.37-0.07,6.76-0.2,10.15c-0.14,4.47-0.21,7.84-0.21,10.12c0,0.91-0.43,1.37-1.3,1.37h-1.74c-0.46,0.05-1.29,0.09-2.5,0.14
				c-0.68,0.05-1.22,0.07-1.61,0.07l-1.57,0.07c-0.62,0-1.08-0.1-1.4-0.31c-0.32-0.2-0.54-0.56-0.65-1.06
				c-1.23,0.62-2.53,1.11-3.9,1.47c-1.37,0.34-2.78,0.51-4.24,0.51C-968.37,231.93-970.01,231.43-971.12,230.43z"/>
			<path class="st5" d="M-938.17,230.53c-0.34-0.75-0.51-2.12-0.51-4.1c0-1.91,0.03-4.11,0.1-6.6c0.02-0.8,0.03-2.03,0.03-3.69
				l-0.1-0.14h-3.79c-0.3,0-0.53-0.16-0.7-0.5c-0.17-0.33-0.3-0.79-0.39-1.38c-0.11-0.68-0.17-1.66-0.17-2.94v-0.48
				c0-0.23,0.01-0.41,0.03-0.55v-0.51v-0.31c0-0.14,0.07-0.26,0.2-0.36c0.14-0.1,0.3-0.18,0.48-0.22c0.23-0.07,0.57-0.1,1.03-0.1
				h2.6c0.57,0,1,0.01,1.3,0.03l1.26,0.03h12.31c0.89,0,1.47,0.01,1.74,0.03c0.11,0.02,0.27,0.05,0.48,0.07
				c0.21,0.02,0.35,0.07,0.44,0.14c0.16,0.07,0.26,0.15,0.29,0.26c0.03,0.1,0.05,0.26,0.05,0.46v5.64c0,0.25-0.1,0.42-0.31,0.51
				c-0.14,0.05-0.32,0.07-0.55,0.07h-1.09h-1.13c-0.52,0-0.92-0.02-1.2-0.07h-1.03c-0.2,0-0.32,0.05-0.34,0.14
				c0,0.02-0.01,0.05-0.03,0.09c-0.02,0.03-0.03,0.07-0.03,0.12v0.51v1.16c0,0.34-0.01,0.6-0.03,0.79c0,0.66-0.05,2.11-0.14,4.34
				l-0.07,1.03c-0.05,0.96-0.09,1.65-0.14,2.09v3.25c0,0.77-0.16,1.26-0.48,1.47c-0.3,0.11-0.5,0.18-0.62,0.2l-0.85,0.03
				c-0.89,0-1.52,0.02-1.88,0.07l-3.59,0.03c-0.46,0.02-1.28,0.03-2.46,0.03C-937.77,231.18-938.01,230.96-938.17,230.53z"/>
			<path class="st5" d="M-911.75,231.31c-2.19-0.57-3.85-1.63-4.99-3.18c-1.32-1.85-1.98-4.41-1.98-7.69c0-2.35,0.26-4.34,0.79-5.98
				c0.52-1.64,1.33-2.99,2.43-4.03c1.09-1.05,2.5-1.82,4.22-2.31c1.72-0.49,3.82-0.74,6.31-0.74c1.94,0,3.76,0.3,5.47,0.89
				c2.1,0.75,3.73,1.9,4.89,3.45c1.44,1.85,2.15,4.27,2.15,7.28c0,3.51-0.52,6.24-1.57,8.2c-1.05,1.8-2.56,3.08-4.55,3.83
				c-1.62,0.62-3.86,0.92-6.73,0.92C-908.03,231.96-910.17,231.75-911.75,231.31z M-904.94,228.13c0.34-0.73,0.58-1.88,0.72-3.45
				c0.14-1.44,0.2-2.79,0.2-4.07v-1.37v-0.85c0-1-0.07-2.22-0.2-3.66c-0.14-1.55-0.38-2.72-0.72-3.52c-0.18-0.39-0.4-0.58-0.65-0.58
				c-0.5,0-0.87,0.48-1.09,1.44c-0.23,1.32-0.34,2.52-0.34,3.59c-0.07,0.91-0.1,2.34-0.1,4.27c0,1.3,0.03,2.37,0.1,3.21
				c0,1.07,0.11,2.31,0.34,3.73c0.23,1.19,0.59,1.78,1.09,1.78C-905.32,228.65-905.1,228.48-904.94,228.13z"/>
			<path class="st5" d="M-870.83,232.27c-0.34-0.2-0.63-0.43-0.86-0.68c-0.07-0.11-0.11-0.17-0.14-0.17
				c-0.02-0.05-0.06-0.07-0.1-0.07l-0.07-0.03l-0.14-0.14l-2.91-4.31c-0.14-0.3-0.33-0.62-0.58-0.96c-0.16-0.16-0.3-0.33-0.41-0.51
				c-0.09-0.14-0.18-0.21-0.27-0.21c-0.07,0-0.12,0.03-0.15,0.1c-0.03,0.07-0.06,0.16-0.09,0.27c-0.07,0.62-0.1,1.45-0.1,2.5
				c0,1-0.06,1.81-0.17,2.43c-0.07,0.3-0.17,0.44-0.31,0.44h-0.21c-0.05-0.02-0.1-0.05-0.17-0.07c-0.8,0.07-1.99,0.15-3.59,0.24
				c-1.55,0.09-2.73,0.14-3.56,0.14c-0.23,0-0.41-0.02-0.55-0.07h-0.75h-0.62h-0.31l-1.23-0.41l-0.1-0.27
				c0-0.02-0.01-0.07-0.02-0.14c-0.01-0.07-0.02-0.16-0.02-0.27c0-0.14-0.02-0.39-0.07-0.75c-0.11-1.39-0.16-1.94-0.14-1.64
				c-0.05-0.59-0.13-1.62-0.24-3.08l-0.1-1.26c0-0.41-0.01-0.77-0.03-1.09c-0.02-0.32-0.05-0.59-0.07-0.82l-0.07-0.75
				c-0.07-0.93-0.1-1.81-0.1-2.63c0-0.02,0.01-0.06,0.02-0.1c0.01-0.05,0.02-0.14,0.02-0.27c0.04-0.14,0.07-0.35,0.07-0.65
				l0.03-0.62l0.03-0.41c0-0.48-0.02-1.17-0.07-2.09c-0.09-0.57-0.14-1.3-0.14-2.19c0-1.28,0.08-2.21,0.24-2.8
				c0.2-0.82,0.55-1.23,1.03-1.23c2.57,0,5.2,0.03,7.86,0.1c0.59,0,1.48,0.02,2.67,0.07l1.33,0.03c1.82,0.05,3.09,0.07,3.79,0.07
				c2.94,0.14,5.16,0.88,6.67,2.22c0.68,0.57,1.19,1.25,1.52,2.05c0.33,0.8,0.5,1.65,0.5,2.56c0,1.05-0.19,2.02-0.58,2.91
				c-0.32,0.71-0.78,1.36-1.37,1.95c-0.57,0.57-1.22,1.03-1.95,1.37c0.14,0.07,0.32,0.22,0.55,0.44c0.09,0.11,0.25,0.26,0.48,0.44
				l0.48,0.34c0.07,0.11,0.15,0.22,0.24,0.32c0.09,0.1,0.18,0.21,0.27,0.32l1.61,1.98c0.73,0.93,1.2,1.62,1.4,2.05
				c0.16,0.3,0.24,0.52,0.24,0.68c0,0.23-0.09,0.43-0.27,0.62c-0.18,0.18-0.46,0.41-0.82,0.68c-0.27,0.21-0.59,0.4-0.96,0.58
				c-0.34,0.18-0.6,0.35-0.79,0.51l-1.26,0.68c-0.46,0.25-0.95,0.47-1.47,0.65c-0.02,0-0.05,0.01-0.09,0.03
				c-0.03,0.02-0.09,0.05-0.15,0.07c-0.14,0.07-0.51,0.19-1.13,0.38c-0.11,0.07-0.31,0.13-0.58,0.17c-0.07,0.05-0.15,0.08-0.24,0.1
				c-0.09,0.02-0.16,0.03-0.21,0.03h-0.17c-0.02,0.11-0.07,0.17-0.14,0.17h-0.1h-0.1C-870.68,232.31-870.76,232.29-870.83,232.27z
				 M-876.2,220.24c0.71,0,1.26-0.35,1.67-1.06c0.39-0.64,0.6-1.37,0.65-2.19c0.04-0.48,0.07-1.05,0.07-1.71v-0.38
				c0-0.52-0.09-1.07-0.27-1.64c-0.18-0.73-0.56-1.25-1.13-1.57c-0.25-0.2-0.58-0.31-0.99-0.31c-0.11,0-0.21,0.14-0.27,0.41
				c-0.21,0.5-0.32,1.3-0.34,2.39c-0.09,0.46-0.14,0.99-0.14,1.61l-0.03,1.03c-0.05,1.32-0.07,2.42-0.07,3.28
				c0,0.02,0.01,0.05,0.03,0.07c0.02,0.02,0.04,0.03,0.07,0.03l0.24,0.03H-876.2z"/>
			<path class="st5" d="M-858.52,230.99c-0.14-0.13-0.24-0.29-0.31-0.5c-0.09-0.41-0.16-0.87-0.2-1.37
				c-0.02-0.16-0.03-0.38-0.03-0.65v-0.44l0.03-4.24c0-1.44,0.03-2.85,0.1-4.24v-10.8c0-0.23,0.15-0.34,0.44-0.34
				c1.57,0,2.75-0.01,3.52-0.03h3.42c0.07,0,0.13-0.01,0.17-0.03c0.05-0.02,0.1-0.03,0.17-0.03c0.3-0.05,0.71-0.06,1.23-0.03
				c0.39,0,0.8,0.03,1.23,0.1c0.14,0.09,0.24,0.11,0.31,0.07c0.04,0,0.14-0.02,0.27-0.07c0.34,0,0.61,0.02,0.8,0.07
				c0.19,0.05,0.35,0.15,0.46,0.31c0.11,0.2,0.2,0.46,0.27,0.75c0.02,0.23,0.03,0.71,0.03,1.44v6.67v0.51
				c-0.02,0.18-0.03,0.59-0.03,1.23c0,0.68-0.02,1.22-0.07,1.61l-0.03,1.54c-0.02,0.34-0.03,0.77-0.03,1.3l-0.03,0.55v2.19
				c0,1.37-0.06,2.53-0.17,3.49c0,0.32-0.08,0.64-0.24,0.96c-0.41,0-1,0.02-1.78,0.07c-0.36,0-0.6,0.02-0.72,0.07h-0.34h-0.1
				c-0.16,0-0.24-0.02-0.24-0.07c-0.18-0.05-0.29-0.07-0.31-0.07l-0.27,0.14h-3.14c-0.02,0.02-0.21,0.03-0.55,0.03h-1.3h-1.26
				l-0.85,0.03C-858.24,231.18-858.39,231.11-858.52,230.99z"/>
			<path class="st5" d="M-842.8,230.49c-0.02-0.07-0.03-0.18-0.03-0.34c0-0.23,0.05-0.57,0.14-1.03c0.05-0.3,0.09-0.53,0.12-0.7
				s0.06-0.3,0.09-0.39c0.68-3.21,1.36-6.04,2.02-8.48l2.39-10.8c0-0.05,0.03-0.11,0.1-0.21c0.07-0.09,0.15-0.15,0.24-0.17h0.17
				c0,0.02,0.03,0.03,0.1,0.03c0.27,0,0.58-0.03,0.92-0.1c0.34-0.07,0.65-0.1,0.92-0.1c0.5,0,0.97,0.03,1.4,0.1
				c0.2,0,0.43,0.01,0.68,0.03c0.25,0.02,0.51,0.03,0.79,0.03c0.09,0,0.19-0.02,0.31-0.07h0.61h0.79l0.82-0.03
				c0.16-0.02,0.35-0.03,0.58-0.03c0.18,0,0.27-0.01,0.27-0.03h0.55h1.16h1.44c1.28,0,2.12,0.02,2.53,0.07
				c0.07,0,0.16,0.01,0.29,0.02c0.13,0.01,0.2,0.04,0.22,0.09c0.16,0,0.32-0.01,0.48-0.03c0.16-0.02,0.31-0.03,0.44-0.03
				c0.32-0.07,0.63-0.1,0.92-0.1c0.14,0,0.27,0.03,0.41,0.1c0.14,0.07,0.29,0.1,0.44,0.1l0.17-0.03h0.1
				c0.07,0.05,0.14,0.11,0.22,0.19c0.08,0.08,0.12,0.14,0.12,0.19l2.39,10.8c0.73,2.67,1.39,5.49,1.98,8.48
				c0,0.14,0.05,0.29,0.14,0.44c0.02,0.16,0.06,0.38,0.1,0.65c0.04,0.27,0.07,0.5,0.07,0.68c0.02,0.09,0.03,0.22,0.03,0.38
				c0,0.32-0.07,0.58-0.2,0.79c-0.09,0.14-0.23,0.2-0.41,0.2h-0.44c-0.34,0-0.6-0.01-0.79-0.03h-0.89h-0.85h-0.68
				c-0.18,0-0.27-0.01-0.27-0.03h-2.15v-0.07c-0.09-0.05-0.21-0.07-0.34-0.07c-0.02,0.02-0.05,0.05-0.07,0.07
				c0,0.05-0.02,0.07-0.07,0.07h-0.1h-0.27c-0.11-0.05-0.34-0.07-0.68-0.07c-0.68-0.05-1.22-0.07-1.61-0.07
				c-0.14-0.2-0.28-0.62-0.43-1.23c-0.15-0.62-0.3-1.3-0.46-2.05c-0.05-0.36-0.09-0.62-0.14-0.75c-0.48,0.09-1.11,0.14-1.88,0.14
				h-1.06h-0.99l-0.24,1.09c-0.3,1.5-0.54,2.44-0.72,2.8c-0.09,0-0.21,0.02-0.34,0.07c-0.05,0.02-0.1,0.05-0.17,0.07h-0.14
				c-0.14,0-0.24-0.02-0.31-0.07c-0.05-0.05-0.1-0.07-0.17-0.07l-1.54,0.07h-0.55h-0.51c-0.09,0.05-0.21,0.07-0.34,0.07h-0.14h-3.14
				h-0.31c-0.25,0.02-0.76,0.03-1.54,0.03h-0.89c-0.18,0.02-0.44,0.03-0.79,0.03h-0.41C-842.48,231.18-842.69,230.95-842.8,230.49z
				 M-826.63,221.13c-0.07-0.32-0.18-0.92-0.34-1.81c-0.05-0.23-0.16-0.84-0.34-1.85l-0.27-1.64c-0.07-0.46-0.14-0.85-0.2-1.2
				l-0.03-0.44c-0.07-0.11-0.1-0.22-0.1-0.31l-0.03-0.2c-0.02,0.05-0.03,0.11-0.03,0.2c0,0.09-0.02,0.15-0.07,0.17v0.14l-0.07,0.44
				c-0.02,0.16-0.05,0.34-0.09,0.53c-0.03,0.19-0.07,0.4-0.12,0.63l-0.17,0.96c-0.25,1.44-0.4,2.27-0.44,2.5
				c-0.02,0.25-0.08,0.63-0.17,1.13c-0.05,0.16-0.09,0.4-0.14,0.72l-0.27,1.57h1.74l0.24-0.07h0.07c0.27,0,0.48,0.02,0.61,0.07
				c0.09,0,0.18,0.02,0.26,0.05c0.08,0.03,0.15,0.06,0.22,0.09L-826.63,221.13z"/>
			<path class="st5" d="M-805.34,231.11c-0.98,0-1.73-0.01-2.26-0.03l-2.8-0.03c-0.2,0-0.4-0.09-0.58-0.27
				c-0.18-0.18-0.27-0.38-0.27-0.58v-7.52v-3.28l-0.03-2.8c0-0.93,0.02-2.11,0.07-3.52c0-0.3,0.03-1.06,0.1-2.29v-0.79
				c0-0.64,0.13-1.15,0.38-1.54c0.11-0.21,0.3-0.31,0.55-0.31c1.12,0,2.34,0.02,3.66,0.07c0.18,0.02,0.44,0.03,0.79,0.03
				c0.75,0,1.31,0.01,1.67,0.03h1.85c0.09,0,0.36,0,0.8,0c0.44,0,0.79,0.06,1.04,0.17c0.41,0.23,0.61,0.75,0.61,1.57l-0.03,0.27
				c0,0.07-0.02,0.24-0.07,0.51c-0.07,0.34-0.1,0.59-0.1,0.75c0,0.25,0.03,0.57,0.1,0.96c0.05,0.27,0.07,0.46,0.07,0.55l0.03,0.21
				v4.79v2.22v2.12v0.41c0,0.18,0.1,0.3,0.31,0.34c0.07,0.02,0.22,0.03,0.44,0.03h2.5c0.61-0.02,1.55-0.03,2.8-0.03
				c0.25,0,0.46,0.07,0.62,0.22c0.16,0.15,0.24,0.3,0.24,0.46v6.53v0.07c0,0.18-0.09,0.33-0.27,0.44c-0.2,0.09-0.44,0.15-0.72,0.17
				c-0.3,0.07-0.76,0.1-1.4,0.1h-4.96C-802.56,231.14-804.26,231.13-805.34,231.11z"/>
		</g>
	</g>
	<path class="st6" d="M-797.78,242.2c0,0-214.36-0.39-219.4,0c-5.04,0.39-17.64-13.28-17.64-13.28
		c-0.18,3.37,9.02,12.06,12.99,15.15c3.97,3.09,223.84,1.37,223.84,1.37s11.18-0.17,20.06-0.32c8.88-0.15,14.17-7.7,14.17-7.7
		C-768.77,243.32-797.78,242.2-797.78,242.2z"/>
	<circle class="st2" cx="-1015.16" cy="205.27" r="1.89"/>
	<path class="st2" d="M-1017.54,219.2c0,0-6.21,1.16-7.78,3.58c-1.58,2.42-5.89,4.1-5.89,4.42s2.52,3.79,5.26,4.94
		c2.74,1.16,8.73,1.17,10.41,2.32c1.68,1.15-2.74-9.05-2.84-10.53C-1018.49,222.46-1013.23,219.94-1017.54,219.2z"/>
	<path class="st2" d="M-1005.95,219.08c-0.05-1.5-0.66-2.27-1.1-1.46c-0.49,0.9-1.2,2.09-1.82,2.68c-1.06,1.01-0.73,4.99,0.53,3.69
		c1.26-1.3,1.66-3.27,2.06-3.23C-1006.06,220.8-1005.92,220.06-1005.95,219.08z"/>
	<path class="st2" d="M-771.23,222.42c-0.35,1.67-4.28,2.18-5.1,4.15c-0.82,1.97-3.47,2.52-4.89,3.94c-1.43,1.43,3.67,4.3,6.39,3.2
		c2.72-1.1,6.93-3.29,7.41-5.52c0.48-2.23-0.82-6.92-1.16-8.01C-768.92,219.09-770.82,220.45-771.23,222.42z"/>
	<ellipse class="st2" cx="-789.45" cy="237.05" rx="2.38" ry="1.6"/>
	<circle class="st2" cx="-768.61" cy="208.56" r="1.6"/>
	<path class="st7" d="M-773.85,192.66c-7.19-0.75-17.84-0.36-17.84-0.36l-5.1,0.25c0,0-221.14-1.47-225.11,1.62
		c-3.97,3.09-13.17,11.78-12.99,15.15c0,0,12.59-13.67,17.64-13.28c5.04,0.39,220.67-0.24,220.67-0.24l4-0.2
		c0,0,21.18-2.24,32.12,7.14C-760.46,202.73-766.66,193.41-773.85,192.66z"/>
	<polygon class="st2" points="-788.91,190.08 -785.06,190.08 -790.37,199.37 	"/>
	<polygon class="st2" points="-1006.42,245.92 -998.67,231.93 -1002.55,245.92 	"/>
	<polygon class="st6" points="-998.67,231.93 -1002.55,245.28 -1000.61,245.32 	"/>
	<polygon class="st7" points="-785.64,191.09 -790.37,199.37 -784.18,191.19 	"/>
</g>
<g>
	<path class="st0" d="M-89.22-78.59h-234.32c-5.07,0-9.94,1.99-13.56,5.54l-5.31,5.21c-3.71,3.64-5.8,8.62-5.8,13.82v7.01
		c0,5.2,2.09,10.18,5.8,13.82l5.31,5.21c3.62,3.55,8.49,5.54,13.56,5.54h234.32c5.24,0,10.25-2.12,13.89-5.88l4.8-4.94
		c3.51-3.61,5.47-8.45,5.47-13.49v-7.56c0-5.04-1.96-9.88-5.47-13.49l-4.8-4.94C-78.97-76.47-83.98-78.59-89.22-78.59z"/>
	<g>
		<path class="st1" d="M-279.26-34.78c-1.95-0.47-3.55-1.1-4.81-1.89c-0.33-0.99-0.58-1.97-0.74-2.96c-0.16-0.99-0.37-2.4-0.62-4.23
			v-0.12c0.05-0.33,0.23-0.58,0.53-0.74c1.04,0.63,2.04,1.1,3,1.42c0.96,0.32,2.01,0.47,3.17,0.47h0.99l0.66,0.04
			c0.63,0,1.27-0.1,1.93-0.29c0.36-0.14,0.6-0.4,0.74-0.78l-2.18-1.07c-1.67-0.79-3.18-1.64-4.52-2.55c-1.4-1.01-2.4-2.3-3-3.86
			c-0.3-0.85-0.45-1.78-0.45-2.8c0-2.47,0.75-4.45,2.26-5.96c1.32-1.34,3.1-2.3,5.34-2.88c1.95-0.47,4.08-0.7,6.41-0.7
			c1.37,0,3.26,0.15,5.67,0.45c0.25,0.05,0.59,0.11,1.03,0.16l1.23,0.25c0.93,0.16,1.62,0.25,2.05,0.25c0.03,0,0.08,0.04,0.14,0.12
			c0.07,0.08,0.13,0.15,0.18,0.21c0.11,0.19,0.22,0.29,0.33,0.29h0.04h0.04l0.08,0.86c0,0.41,0.04,0.85,0.12,1.31
			c0.08,0.69,0.12,1.43,0.12,2.22c0,0.69-0.04,1.18-0.12,1.48c-0.14,0.55-0.38,0.94-0.74,1.19l-3.82-0.49h-0.41h-0.58
			c-0.93,0-2,0.1-3.21,0.29l-1.36,0.29c-0.33,0.06-0.49,0.11-0.49,0.16c0,0.66,0.42,1.27,1.27,1.85c0.41,0.22,0.82,0.4,1.23,0.55
			c0.41,0.15,0.67,0.25,0.78,0.31c2.03,0.58,3.78,1.58,5.26,3c0.68,0.66,1.22,1.36,1.6,2.1c0.38,0.74,0.58,1.45,0.58,2.14
			c0,0.41-0.06,0.85-0.16,1.32c-0.19,2.06-0.97,3.84-2.34,5.34c-1.34,1.34-3.03,2.33-5.06,2.96c-1.75,0.63-3.86,0.95-6.33,0.95
			C-275.32-34.12-277.28-34.34-279.26-34.78z"/>
		<path class="st1" d="M-249.33-35.85c-0.41-0.9-0.62-2.55-0.62-4.93c0-2.3,0.04-4.95,0.12-7.93c0.03-0.96,0.04-2.44,0.04-4.44
			l-0.12-0.16h-4.56c-0.36,0-0.64-0.2-0.84-0.6c-0.21-0.4-0.36-0.95-0.47-1.66c-0.14-0.82-0.21-2-0.21-3.54v-0.58
			c0-0.27,0.01-0.49,0.04-0.66v-0.62v-0.37c0-0.16,0.08-0.31,0.25-0.43s0.36-0.21,0.58-0.27c0.27-0.08,0.68-0.12,1.23-0.12h3.12
			c0.68,0,1.21,0.01,1.56,0.04l1.52,0.04h14.8c1.07,0,1.77,0.01,2.1,0.04c0.14,0.03,0.33,0.05,0.58,0.08
			c0.25,0.03,0.42,0.08,0.53,0.16c0.19,0.08,0.31,0.19,0.35,0.31c0.04,0.12,0.06,0.31,0.06,0.56v6.78c0,0.3-0.12,0.51-0.37,0.62
			c-0.16,0.06-0.38,0.08-0.66,0.08h-1.32h-1.36c-0.63,0-1.11-0.03-1.44-0.08h-1.23c-0.25,0-0.38,0.06-0.41,0.16
			c0,0.03-0.01,0.06-0.04,0.1c-0.03,0.04-0.04,0.09-0.04,0.14v0.62v1.4c0,0.41-0.01,0.73-0.04,0.94c0,0.8-0.05,2.54-0.16,5.22
			l-0.08,1.23c-0.06,1.15-0.11,1.99-0.16,2.51v3.9c0,0.93-0.19,1.52-0.58,1.77c-0.36,0.14-0.6,0.22-0.74,0.25l-1.03,0.04
			c-1.07,0-1.82,0.03-2.26,0.08l-4.32,0.04c-0.55,0.03-1.54,0.04-2.96,0.04C-248.85-35.07-249.14-35.33-249.33-35.85z"/>
		<path class="st1" d="M-225.57-35.89c-0.03-0.08-0.04-0.22-0.04-0.41c0-0.27,0.05-0.68,0.16-1.23c0.05-0.36,0.1-0.64,0.14-0.84
			c0.04-0.21,0.07-0.36,0.1-0.47c0.82-3.86,1.63-7.26,2.43-10.19l2.88-12.99c0-0.05,0.04-0.14,0.12-0.25
			c0.08-0.11,0.18-0.18,0.29-0.21h0.21c0,0.03,0.04,0.04,0.12,0.04c0.33,0,0.7-0.04,1.11-0.12c0.41-0.08,0.78-0.12,1.11-0.12
			c0.6,0,1.16,0.04,1.69,0.12c0.25,0,0.52,0.01,0.82,0.04c0.3,0.03,0.62,0.04,0.95,0.04c0.11,0,0.23-0.03,0.37-0.08h0.74h0.95
			l0.99-0.04c0.19-0.03,0.42-0.04,0.7-0.04c0.22,0,0.33-0.01,0.33-0.04h0.66h1.4h1.73c1.53,0,2.55,0.03,3.04,0.08
			c0.08,0,0.2,0.01,0.35,0.02c0.15,0.01,0.24,0.05,0.27,0.1c0.19,0,0.38-0.01,0.58-0.04c0.19-0.03,0.37-0.04,0.53-0.04
			c0.38-0.08,0.75-0.12,1.11-0.12c0.16,0,0.33,0.04,0.49,0.12c0.16,0.08,0.34,0.12,0.53,0.12l0.21-0.04h0.12
			c0.08,0.06,0.17,0.13,0.27,0.23c0.1,0.1,0.14,0.17,0.14,0.23l2.88,12.99c0.88,3.21,1.67,6.6,2.38,10.19
			c0,0.16,0.05,0.34,0.16,0.53c0.03,0.19,0.07,0.45,0.12,0.78c0.05,0.33,0.08,0.6,0.08,0.82c0.03,0.11,0.04,0.26,0.04,0.45
			c0,0.38-0.08,0.7-0.25,0.95c-0.11,0.16-0.27,0.25-0.49,0.25h-0.53c-0.41,0-0.73-0.01-0.95-0.04h-1.07h-1.03h-0.82
			c-0.22,0-0.33-0.01-0.33-0.04h-2.59v-0.08c-0.11-0.05-0.25-0.08-0.41-0.08c-0.03,0.03-0.05,0.06-0.08,0.08
			c0,0.05-0.03,0.08-0.08,0.08h-0.12h-0.33c-0.14-0.05-0.41-0.08-0.82-0.08c-0.82-0.05-1.47-0.08-1.93-0.08
			c-0.16-0.25-0.34-0.74-0.51-1.48c-0.18-0.74-0.36-1.56-0.55-2.47c-0.06-0.44-0.11-0.74-0.16-0.9c-0.58,0.11-1.33,0.16-2.26,0.16
			h-1.27h-1.19l-0.29,1.32c-0.36,1.81-0.64,2.93-0.86,3.37c-0.11,0-0.25,0.03-0.41,0.08c-0.06,0.03-0.12,0.05-0.21,0.08h-0.16
			c-0.16,0-0.29-0.03-0.37-0.08c-0.05-0.05-0.12-0.08-0.21-0.08l-1.85,0.08h-0.66h-0.62c-0.11,0.05-0.25,0.08-0.41,0.08h-0.16h-3.78
			h-0.37c-0.3,0.03-0.92,0.04-1.85,0.04h-1.07c-0.22,0.03-0.53,0.04-0.95,0.04h-0.49C-225.19-35.07-225.44-35.34-225.57-35.89z
			 M-206.13-47.15c-0.08-0.38-0.22-1.11-0.41-2.18c-0.06-0.27-0.19-1.01-0.41-2.22l-0.33-1.97c-0.08-0.55-0.16-1.03-0.25-1.44
			l-0.04-0.53c-0.08-0.14-0.12-0.26-0.12-0.37l-0.04-0.25c-0.03,0.05-0.04,0.14-0.04,0.25c0,0.11-0.03,0.18-0.08,0.21v0.16
			l-0.08,0.53c-0.03,0.19-0.06,0.41-0.1,0.64c-0.04,0.23-0.09,0.49-0.14,0.76l-0.21,1.15c-0.3,1.73-0.48,2.73-0.53,3
			c-0.03,0.3-0.1,0.75-0.21,1.36c-0.05,0.19-0.11,0.48-0.16,0.86l-0.33,1.89h2.1l0.29-0.08h0.08c0.33,0,0.58,0.03,0.74,0.08
			c0.11,0,0.21,0.02,0.31,0.06c0.1,0.04,0.18,0.08,0.27,0.1L-206.13-47.15z"/>
		<path class="st1" d="M-165.93-33.75c-0.41-0.25-0.75-0.52-1.03-0.82c-0.08-0.14-0.14-0.21-0.16-0.21
			c-0.03-0.05-0.07-0.08-0.12-0.08l-0.08-0.04l-0.16-0.16l-3.49-5.18c-0.16-0.36-0.4-0.74-0.7-1.15c-0.19-0.19-0.36-0.4-0.49-0.62
			c-0.11-0.16-0.22-0.25-0.33-0.25c-0.08,0-0.14,0.04-0.19,0.12c-0.04,0.08-0.08,0.19-0.1,0.33c-0.08,0.74-0.12,1.74-0.12,3
			c0,1.21-0.07,2.18-0.21,2.92c-0.08,0.36-0.21,0.53-0.37,0.53h-0.25c-0.05-0.03-0.12-0.05-0.21-0.08c-0.96,0.08-2.4,0.18-4.32,0.29
			c-1.86,0.11-3.29,0.16-4.28,0.16c-0.27,0-0.49-0.03-0.66-0.08h-0.9h-0.74h-0.37l-1.48-0.49l-0.12-0.33c0-0.03-0.01-0.08-0.02-0.16
			c-0.01-0.08-0.02-0.19-0.02-0.33c0-0.16-0.03-0.47-0.08-0.9c-0.14-1.67-0.19-2.33-0.16-1.97c-0.06-0.71-0.15-1.95-0.29-3.7
			l-0.12-1.52c0-0.49-0.01-0.93-0.04-1.32c-0.03-0.38-0.05-0.71-0.08-0.99l-0.08-0.9c-0.08-1.12-0.12-2.18-0.12-3.17
			c0-0.03,0.01-0.07,0.02-0.12c0.01-0.05,0.02-0.16,0.02-0.33c0.05-0.16,0.08-0.42,0.08-0.78l0.04-0.74l0.04-0.49
			c0-0.58-0.03-1.41-0.08-2.51c-0.11-0.68-0.16-1.56-0.16-2.63c0-1.53,0.1-2.66,0.29-3.37c0.25-0.99,0.66-1.48,1.23-1.48
			c3.1,0,6.25,0.04,9.45,0.12c0.71,0,1.78,0.03,3.21,0.08l1.6,0.04c2.19,0.05,3.71,0.08,4.56,0.08c3.53,0.16,6.21,1.06,8.02,2.67
			c0.82,0.69,1.43,1.51,1.83,2.47c0.4,0.96,0.6,1.99,0.6,3.08c0,1.26-0.23,2.42-0.7,3.49c-0.38,0.85-0.93,1.63-1.64,2.34
			c-0.69,0.69-1.47,1.23-2.34,1.64c0.16,0.08,0.38,0.26,0.66,0.53c0.11,0.14,0.3,0.32,0.58,0.53l0.58,0.41
			c0.08,0.14,0.18,0.27,0.29,0.39c0.11,0.12,0.22,0.25,0.33,0.39l1.93,2.38c0.88,1.12,1.44,1.95,1.69,2.47
			c0.19,0.36,0.29,0.63,0.29,0.82c0,0.27-0.11,0.52-0.33,0.74c-0.22,0.22-0.55,0.49-0.99,0.82c-0.33,0.25-0.71,0.48-1.15,0.7
			c-0.41,0.22-0.73,0.43-0.95,0.62l-1.52,0.82c-0.55,0.3-1.14,0.56-1.77,0.78c-0.03,0-0.06,0.01-0.1,0.04
			c-0.04,0.03-0.1,0.05-0.19,0.08c-0.16,0.08-0.62,0.23-1.36,0.45c-0.14,0.08-0.37,0.15-0.7,0.21c-0.08,0.05-0.18,0.1-0.29,0.12
			c-0.11,0.03-0.19,0.04-0.25,0.04h-0.21c-0.03,0.14-0.08,0.21-0.16,0.21h-0.12h-0.12C-165.75-33.71-165.85-33.73-165.93-33.75z
			 M-172.38-48.22c0.85,0,1.52-0.42,2.01-1.27c0.47-0.77,0.73-1.64,0.78-2.63c0.05-0.58,0.08-1.26,0.08-2.06v-0.45
			c0-0.63-0.11-1.29-0.33-1.97c-0.22-0.88-0.67-1.51-1.36-1.89c-0.3-0.25-0.7-0.37-1.19-0.37c-0.14,0-0.25,0.16-0.33,0.49
			c-0.25,0.6-0.38,1.56-0.41,2.88c-0.11,0.55-0.16,1.19-0.16,1.93l-0.04,1.23c-0.06,1.59-0.08,2.9-0.08,3.95
			c0,0.03,0.01,0.06,0.04,0.08c0.03,0.03,0.05,0.04,0.08,0.04l0.29,0.04H-172.38z"/>
		<path class="st1" d="M-145.99-35.85c-0.41-0.9-0.62-2.55-0.62-4.93c0-2.3,0.04-4.95,0.12-7.93c0.03-0.96,0.04-2.44,0.04-4.44
			l-0.12-0.16h-4.56c-0.36,0-0.64-0.2-0.84-0.6c-0.21-0.4-0.36-0.95-0.47-1.66c-0.14-0.82-0.21-2-0.21-3.54v-0.58
			c0-0.27,0.01-0.49,0.04-0.66v-0.62v-0.37c0-0.16,0.08-0.31,0.25-0.43s0.36-0.21,0.58-0.27c0.27-0.08,0.68-0.12,1.23-0.12h3.12
			c0.68,0,1.21,0.01,1.56,0.04l1.52,0.04h14.8c1.07,0,1.77,0.01,2.1,0.04c0.14,0.03,0.33,0.05,0.58,0.08
			c0.25,0.03,0.42,0.08,0.53,0.16c0.19,0.08,0.31,0.19,0.35,0.31c0.04,0.12,0.06,0.31,0.06,0.56v6.78c0,0.3-0.12,0.51-0.37,0.62
			c-0.16,0.06-0.38,0.08-0.66,0.08h-1.32h-1.36c-0.63,0-1.11-0.03-1.44-0.08h-1.23c-0.25,0-0.38,0.06-0.41,0.16
			c0,0.03-0.01,0.06-0.04,0.1c-0.03,0.04-0.04,0.09-0.04,0.14v0.62v1.4c0,0.41-0.01,0.73-0.04,0.94c0,0.8-0.06,2.54-0.16,5.22
			l-0.08,1.23c-0.05,1.15-0.11,1.99-0.16,2.51v3.9c0,0.93-0.19,1.52-0.58,1.77c-0.36,0.14-0.6,0.22-0.74,0.25l-1.03,0.04
			c-1.07,0-1.82,0.03-2.26,0.08l-4.32,0.04c-0.55,0.03-1.54,0.04-2.96,0.04C-145.51-35.07-145.8-35.33-145.99-35.85z"/>
	</g>
	<g>
		<g>
			<path class="st2" d="M-280.05-36.36c-1.95-0.47-3.55-1.1-4.81-1.89c-0.33-0.99-0.58-1.97-0.74-2.96
				c-0.16-0.99-0.37-2.4-0.62-4.23v-0.12c0.05-0.33,0.23-0.58,0.53-0.74c1.04,0.63,2.04,1.1,3,1.42c0.96,0.32,2.01,0.47,3.17,0.47
				h0.99l0.66,0.04c0.63,0,1.27-0.1,1.93-0.29c0.36-0.14,0.6-0.4,0.74-0.78l-2.18-1.07c-1.67-0.79-3.18-1.64-4.52-2.55
				c-1.4-1.01-2.4-2.3-3-3.86c-0.3-0.85-0.45-1.78-0.45-2.8c0-2.47,0.75-4.45,2.26-5.96c1.32-1.34,3.1-2.3,5.34-2.88
				c1.95-0.47,4.08-0.7,6.41-0.7c1.37,0,3.26,0.15,5.67,0.45c0.25,0.05,0.59,0.11,1.03,0.16l1.23,0.25
				c0.93,0.16,1.62,0.25,2.05,0.25c0.03,0,0.08,0.04,0.14,0.12c0.07,0.08,0.13,0.15,0.18,0.21c0.11,0.19,0.22,0.29,0.33,0.29h0.04
				h0.04l0.08,0.86c0,0.41,0.04,0.85,0.12,1.31c0.08,0.69,0.12,1.43,0.12,2.22c0,0.69-0.04,1.18-0.12,1.48
				c-0.14,0.55-0.38,0.94-0.74,1.19l-3.82-0.49h-0.41h-0.58c-0.93,0-2,0.1-3.21,0.29l-1.36,0.29c-0.33,0.06-0.49,0.11-0.49,0.16
				c0,0.66,0.42,1.27,1.27,1.85c0.41,0.22,0.82,0.4,1.23,0.55c0.41,0.15,0.67,0.25,0.78,0.31c2.03,0.58,3.78,1.58,5.26,3
				c0.68,0.66,1.22,1.36,1.6,2.1c0.38,0.74,0.58,1.45,0.58,2.14c0,0.41-0.06,0.85-0.16,1.32c-0.19,2.06-0.97,3.84-2.34,5.34
				c-1.34,1.34-3.03,2.33-5.06,2.96c-1.75,0.63-3.86,0.95-6.33,0.95C-276.11-35.7-278.07-35.92-280.05-36.36z"/>
			<path class="st2" d="M-250.12-37.43c-0.41-0.9-0.62-2.55-0.62-4.93c0-2.3,0.04-4.95,0.12-7.93c0.03-0.96,0.04-2.44,0.04-4.44
				l-0.12-0.16h-4.56c-0.36,0-0.64-0.2-0.84-0.6c-0.21-0.4-0.36-0.95-0.47-1.66c-0.14-0.82-0.21-2-0.21-3.54v-0.58
				c0-0.27,0.01-0.49,0.04-0.66v-0.62v-0.37c0-0.16,0.08-0.31,0.25-0.43c0.16-0.12,0.36-0.21,0.58-0.27
				c0.27-0.08,0.68-0.12,1.23-0.12h3.12c0.68,0,1.21,0.01,1.56,0.04l1.52,0.04h14.8c1.07,0,1.77,0.01,2.1,0.04
				c0.14,0.03,0.33,0.05,0.58,0.08c0.25,0.03,0.42,0.08,0.53,0.16c0.19,0.08,0.31,0.19,0.35,0.31c0.04,0.12,0.06,0.31,0.06,0.56
				v6.78c0,0.3-0.12,0.51-0.37,0.62c-0.16,0.06-0.38,0.08-0.66,0.08h-1.32h-1.36c-0.63,0-1.11-0.03-1.44-0.08h-1.23
				c-0.25,0-0.38,0.06-0.41,0.16c0,0.03-0.01,0.06-0.04,0.1c-0.03,0.04-0.04,0.09-0.04,0.14v0.62v1.4c0,0.41-0.01,0.73-0.04,0.94
				c0,0.8-0.05,2.54-0.16,5.22l-0.08,1.23c-0.06,1.15-0.11,1.99-0.16,2.51v3.9c0,0.93-0.19,1.52-0.58,1.77
				c-0.36,0.14-0.6,0.22-0.74,0.25l-1.03,0.04c-1.07,0-1.82,0.03-2.26,0.08l-4.32,0.04c-0.55,0.03-1.54,0.04-2.96,0.04
				C-249.64-36.65-249.93-36.91-250.12-37.43z"/>
			<path class="st2" d="M-226.36-37.47c-0.03-0.08-0.04-0.22-0.04-0.41c0-0.27,0.05-0.68,0.16-1.23c0.05-0.36,0.1-0.64,0.14-0.84
				s0.07-0.36,0.1-0.47c0.82-3.86,1.63-7.26,2.43-10.19l2.88-12.99c0-0.05,0.04-0.14,0.12-0.25c0.08-0.11,0.18-0.18,0.29-0.21h0.21
				c0,0.03,0.04,0.04,0.12,0.04c0.33,0,0.7-0.04,1.11-0.12c0.41-0.08,0.78-0.12,1.11-0.12c0.6,0,1.16,0.04,1.69,0.12
				c0.25,0,0.52,0.01,0.82,0.04c0.3,0.03,0.62,0.04,0.95,0.04c0.11,0,0.23-0.03,0.37-0.08h0.74h0.95l0.99-0.04
				c0.19-0.03,0.42-0.04,0.7-0.04c0.22,0,0.33-0.01,0.33-0.04h0.66h1.4h1.73c1.53,0,2.55,0.03,3.04,0.08c0.08,0,0.2,0.01,0.35,0.02
				c0.15,0.01,0.24,0.05,0.27,0.1c0.19,0,0.38-0.01,0.58-0.04c0.19-0.03,0.37-0.04,0.53-0.04c0.38-0.08,0.75-0.12,1.11-0.12
				c0.16,0,0.33,0.04,0.49,0.12c0.16,0.08,0.34,0.12,0.53,0.12l0.21-0.04h0.12c0.08,0.06,0.17,0.13,0.27,0.23
				c0.1,0.1,0.14,0.17,0.14,0.23l2.88,12.99c0.88,3.21,1.67,6.6,2.38,10.19c0,0.16,0.05,0.34,0.16,0.53
				c0.03,0.19,0.07,0.45,0.12,0.78c0.05,0.33,0.08,0.6,0.08,0.82c0.03,0.11,0.04,0.26,0.04,0.45c0,0.38-0.08,0.7-0.25,0.95
				c-0.11,0.16-0.27,0.25-0.49,0.25h-0.53c-0.41,0-0.73-0.01-0.95-0.04h-1.07h-1.03h-0.82c-0.22,0-0.33-0.01-0.33-0.04h-2.59v-0.08
				c-0.11-0.05-0.25-0.08-0.41-0.08c-0.03,0.03-0.05,0.06-0.08,0.08c0,0.05-0.03,0.08-0.08,0.08h-0.12h-0.33
				c-0.14-0.05-0.41-0.08-0.82-0.08c-0.82-0.05-1.47-0.08-1.93-0.08c-0.16-0.25-0.34-0.74-0.51-1.48c-0.18-0.74-0.36-1.56-0.55-2.47
				c-0.06-0.44-0.11-0.74-0.16-0.9c-0.58,0.11-1.33,0.16-2.26,0.16h-1.27h-1.19l-0.29,1.32c-0.36,1.81-0.64,2.93-0.86,3.37
				c-0.11,0-0.25,0.03-0.41,0.08c-0.06,0.03-0.12,0.05-0.21,0.08h-0.16c-0.16,0-0.29-0.03-0.37-0.08c-0.05-0.05-0.12-0.08-0.21-0.08
				l-1.85,0.08h-0.66h-0.62c-0.11,0.05-0.25,0.08-0.41,0.08h-0.16h-3.78h-0.37c-0.3,0.03-0.92,0.04-1.85,0.04h-1.07
				c-0.22,0.03-0.53,0.04-0.95,0.04h-0.49C-225.98-36.65-226.23-36.92-226.36-37.47z M-206.92-48.73c-0.08-0.38-0.22-1.11-0.41-2.18
				c-0.06-0.27-0.19-1.01-0.41-2.22l-0.33-1.97c-0.08-0.55-0.16-1.03-0.25-1.44l-0.04-0.53c-0.08-0.14-0.12-0.26-0.12-0.37
				l-0.04-0.25c-0.03,0.05-0.04,0.14-0.04,0.25c0,0.11-0.03,0.18-0.08,0.21v0.16l-0.08,0.53c-0.03,0.19-0.06,0.41-0.1,0.64
				c-0.04,0.23-0.09,0.49-0.14,0.76l-0.21,1.15c-0.3,1.73-0.48,2.73-0.53,3c-0.03,0.3-0.1,0.75-0.21,1.36
				c-0.05,0.19-0.11,0.48-0.16,0.86l-0.33,1.89h2.1l0.29-0.08h0.08c0.33,0,0.58,0.03,0.74,0.08c0.11,0,0.21,0.02,0.31,0.06
				c0.1,0.04,0.18,0.08,0.27,0.1L-206.92-48.73z"/>
			<path class="st2" d="M-166.72-35.33c-0.41-0.25-0.75-0.52-1.03-0.82c-0.08-0.14-0.14-0.21-0.16-0.21
				c-0.03-0.05-0.07-0.08-0.12-0.08l-0.08-0.04l-0.16-0.16l-3.49-5.18c-0.16-0.36-0.4-0.74-0.7-1.15c-0.19-0.19-0.36-0.4-0.49-0.62
				c-0.11-0.16-0.22-0.25-0.33-0.25c-0.08,0-0.14,0.04-0.19,0.12c-0.04,0.08-0.08,0.19-0.1,0.33c-0.08,0.74-0.12,1.74-0.12,3
				c0,1.21-0.07,2.18-0.21,2.92c-0.08,0.36-0.21,0.53-0.37,0.53h-0.25c-0.05-0.03-0.12-0.05-0.21-0.08
				c-0.96,0.08-2.4,0.18-4.32,0.29c-1.86,0.11-3.29,0.16-4.28,0.16c-0.27,0-0.49-0.03-0.66-0.08h-0.9h-0.74H-186l-1.48-0.49
				l-0.12-0.33c0-0.03-0.01-0.08-0.02-0.16c-0.01-0.08-0.02-0.19-0.02-0.33c0-0.16-0.03-0.47-0.08-0.9
				c-0.14-1.67-0.19-2.33-0.16-1.97c-0.06-0.71-0.15-1.95-0.29-3.7l-0.12-1.52c0-0.49-0.01-0.93-0.04-1.32
				c-0.03-0.38-0.05-0.71-0.08-0.99l-0.08-0.9c-0.08-1.12-0.12-2.18-0.12-3.17c0-0.03,0.01-0.07,0.02-0.12
				c0.01-0.05,0.02-0.16,0.02-0.33c0.05-0.16,0.08-0.42,0.08-0.78l0.04-0.74l0.04-0.49c0-0.58-0.03-1.41-0.08-2.51
				c-0.11-0.68-0.16-1.56-0.16-2.63c0-1.53,0.1-2.66,0.29-3.37c0.25-0.99,0.66-1.48,1.23-1.48c3.1,0,6.25,0.04,9.45,0.12
				c0.71,0,1.78,0.03,3.21,0.08l1.6,0.04c2.19,0.05,3.71,0.08,4.56,0.08c3.53,0.16,6.21,1.06,8.02,2.67
				c0.82,0.69,1.43,1.51,1.83,2.47c0.4,0.96,0.6,1.99,0.6,3.08c0,1.26-0.23,2.42-0.7,3.49c-0.38,0.85-0.93,1.63-1.64,2.34
				c-0.69,0.69-1.47,1.23-2.34,1.64c0.16,0.08,0.38,0.26,0.66,0.53c0.11,0.14,0.3,0.32,0.58,0.53l0.58,0.41
				c0.08,0.14,0.18,0.27,0.29,0.39c0.11,0.12,0.22,0.25,0.33,0.39l1.93,2.38c0.88,1.12,1.44,1.95,1.69,2.47
				c0.19,0.36,0.29,0.63,0.29,0.82c0,0.27-0.11,0.52-0.33,0.74c-0.22,0.22-0.55,0.49-0.99,0.82c-0.33,0.25-0.71,0.48-1.15,0.7
				c-0.41,0.22-0.73,0.43-0.95,0.62l-1.52,0.82c-0.55,0.3-1.14,0.56-1.77,0.78c-0.03,0-0.06,0.01-0.1,0.04
				c-0.04,0.03-0.1,0.05-0.19,0.08c-0.16,0.08-0.62,0.23-1.36,0.45c-0.14,0.08-0.37,0.15-0.7,0.21c-0.08,0.05-0.18,0.1-0.29,0.12
				c-0.11,0.03-0.19,0.04-0.25,0.04h-0.21c-0.03,0.14-0.08,0.21-0.16,0.21h-0.12h-0.12C-166.54-35.29-166.64-35.31-166.72-35.33z
				 M-173.17-49.8c0.85,0,1.52-0.42,2.01-1.27c0.47-0.77,0.73-1.64,0.78-2.63c0.05-0.58,0.08-1.26,0.08-2.06v-0.45
				c0-0.63-0.11-1.29-0.33-1.97c-0.22-0.88-0.67-1.51-1.36-1.89c-0.3-0.25-0.7-0.37-1.19-0.37c-0.14,0-0.25,0.16-0.33,0.49
				c-0.25,0.6-0.38,1.56-0.41,2.88c-0.11,0.55-0.16,1.19-0.16,1.93l-0.04,1.23c-0.06,1.59-0.08,2.9-0.08,3.95
				c0,0.03,0.01,0.06,0.04,0.08c0.03,0.03,0.05,0.04,0.08,0.04l0.29,0.04H-173.17z"/>
			<path class="st2" d="M-146.78-37.43c-0.41-0.9-0.62-2.55-0.62-4.93c0-2.3,0.04-4.95,0.12-7.93c0.03-0.96,0.04-2.44,0.04-4.44
				l-0.12-0.16h-4.56c-0.36,0-0.64-0.2-0.84-0.6c-0.21-0.4-0.36-0.95-0.47-1.66c-0.14-0.82-0.21-2-0.21-3.54v-0.58
				c0-0.27,0.01-0.49,0.04-0.66v-0.62v-0.37c0-0.16,0.08-0.31,0.25-0.43c0.16-0.12,0.36-0.21,0.58-0.27
				c0.27-0.08,0.68-0.12,1.23-0.12h3.12c0.68,0,1.21,0.01,1.56,0.04l1.52,0.04h14.8c1.07,0,1.77,0.01,2.1,0.04
				c0.14,0.03,0.33,0.05,0.58,0.08c0.25,0.03,0.42,0.08,0.53,0.16c0.19,0.08,0.31,0.19,0.35,0.31c0.04,0.12,0.06,0.31,0.06,0.56
				v6.78c0,0.3-0.12,0.51-0.37,0.62c-0.16,0.06-0.38,0.08-0.66,0.08h-1.32h-1.36c-0.63,0-1.11-0.03-1.44-0.08h-1.23
				c-0.25,0-0.38,0.06-0.41,0.16c0,0.03-0.01,0.06-0.04,0.1c-0.03,0.04-0.04,0.09-0.04,0.14v0.62v1.4c0,0.41-0.01,0.73-0.04,0.94
				c0,0.8-0.06,2.54-0.16,5.22l-0.08,1.23c-0.05,1.15-0.11,1.99-0.16,2.51v3.9c0,0.93-0.19,1.52-0.58,1.77
				c-0.36,0.14-0.6,0.22-0.74,0.25l-1.03,0.04c-1.07,0-1.82,0.03-2.26,0.08l-4.32,0.04c-0.55,0.03-1.54,0.04-2.96,0.04
				C-146.3-36.65-146.59-36.91-146.78-37.43z"/>
		</g>
	</g>
	<path class="st3" d="M-345.24-60.28c0,0,12.59-13.67,17.64-13.28c5.04,0.39,220.67-0.24,220.67-0.24l-0.21-3.24
		c0,0-221.14-1.47-225.11,1.62C-336.22-72.34-345.41-63.65-345.24-60.28z"/>
	<path class="st3" d="M-103.16-76.95l-0.89,3.29c0,0,21.18-2.24,32.12,7.14c0,0-6.19-9.32-13.39-10.07S-103.16-76.95-103.16-76.95z"
		/>
	<path class="st1" d="M-108.25-28.18c0,0-214.36-0.39-219.4,0c-5.04,0.39-17.64-13.28-17.64-13.28
		c-0.18,3.37,9.02,12.06,12.99,15.15c3.97,3.09,223.84,1.37,223.84,1.37s11.18-0.17,20.06-0.32c8.88-0.15,14.17-7.7,14.17-7.7
		C-79.23-27.05-108.25-28.18-108.25-28.18z"/>
	<polygon class="st2" points="-320.81,-23.49 -318.75,-31.92 -309.64,-39.69 -316.27,-31.59 -313.76,-23.49 	"/>
	<polygon class="st2" points="-106.81,-78.59 -100.35,-78.59 -107.12,-66.65 -111.45,-52.22 -109.44,-70.22 	"/>
	<circle class="st1" cx="-324.79" cy="-63.74" r="1.89"/>
	<path class="st1" d="M-327.17-52.7c0,0-6.21,1.16-7.78,3.58c-1.58,2.42-5.89,4.1-5.89,4.42c0,0.32,2.52,3.79,5.26,4.94
		c2.74,1.16,8.73,1.17,10.41,2.32s-2.74-9.05-2.84-10.53C-328.12-49.44-322.86-51.97-327.17-52.7z"/>
	<path class="st1" d="M-309.33-62.74c-0.08-2.18-0.96-3.29-1.61-2.12c-0.71,1.31-1.75,3.04-2.64,3.9c-1.53,1.47-1.06,7.26,0.77,5.37
		c1.83-1.89,2.41-4.75,3-4.69C-309.49-60.25-309.28-61.32-309.33-62.74z"/>
	<polyline class="st1" points="-309.64,-39.69 -309.79,-39.5 -316.27,-31.59 -313.79,-23.67 -311.94,-23.67 -315.23,-31.35 	"/>
	<path class="st1" d="M-80.85-46.58c-0.35,1.67-4.28,2.18-5.1,4.15c-0.82,1.97-3.47,2.52-4.89,3.94c-1.43,1.43,3.67,4.3,6.39,3.2
		c2.72-1.1,6.93-3.29,7.41-5.52c0.48-2.23-0.82-6.92-1.16-8.01C-78.54-49.92-80.44-48.56-80.85-46.58z"/>
	<ellipse class="st1" cx="-99.07" cy="-31.96" rx="2.38" ry="1.6"/>
	<circle class="st1" cx="-78.23" cy="-60.45" r="1.6"/>
	<path class="st1" d="M-118.03-51.19c0.26-0.01,2.44,5.65,5.76,6.9c3.31,1.25,5.35,3.65,5.35,4.69s-4.54,0.86-6.98,0.28
		s-6.61,0.04-7.15-0.28c-1.57-0.94-1.74-4.84,0.52-6.87C-118.27-48.51-121.17-51.11-118.03-51.19z"/>
	<polygon class="st3" points="-102.18,-75.37 -107.12,-66.65 -111.45,-52.22 -106.26,-66.52 -97.02,-77.05 -101.25,-77.01 	"/>
</g>
<g>
	<path class="st4" d="M260.92,2.42H26.6c-5.07,0-9.94,1.99-13.56,5.54l-5.31,5.21C4.01,16.82,1.92,21.8,1.92,27V34
		c0,5.2,2.09,10.18,5.8,13.82l5.31,5.21c3.62,3.55,8.49,5.54,13.56,5.54h234.32c5.24,0,10.25-2.12,13.89-5.88l4.8-4.94
		c3.51-3.61,5.47-8.45,5.47-13.49v-7.56c0-5.04-1.96-9.88-5.47-13.49l-4.8-4.94C271.16,4.54,266.15,2.42,260.92,2.42z"/>
	<g>
		<path class="st2" d="M47.94,44.44c-0.34-0.75-0.51-2.12-0.51-4.1c0-1.91,0.03-4.11,0.1-6.6c0.02-0.8,0.03-2.03,0.03-3.69
			l-0.1-0.14h-3.79c-0.3,0-0.53-0.16-0.7-0.5c-0.17-0.33-0.3-0.79-0.39-1.38c-0.11-0.68-0.17-1.66-0.17-2.94v-0.48
			c0-0.23,0.01-0.41,0.03-0.55v-0.51v-0.31c0-0.14,0.07-0.26,0.21-0.36s0.3-0.18,0.48-0.22c0.23-0.07,0.57-0.1,1.03-0.1h2.6
			c0.57,0,1,0.01,1.3,0.03l1.26,0.03h12.31c0.89,0,1.47,0.01,1.74,0.03c0.11,0.02,0.27,0.05,0.48,0.07
			c0.21,0.02,0.35,0.07,0.44,0.14c0.16,0.07,0.26,0.15,0.29,0.26c0.03,0.1,0.05,0.26,0.05,0.46v5.64c0,0.25-0.1,0.42-0.31,0.51
			c-0.14,0.05-0.32,0.07-0.55,0.07h-1.09h-1.13c-0.52,0-0.92-0.02-1.2-0.07h-1.03c-0.21,0-0.32,0.05-0.34,0.14
			c0,0.02-0.01,0.05-0.03,0.09c-0.02,0.03-0.03,0.07-0.03,0.12v0.51v1.16c0,0.34-0.01,0.6-0.03,0.79c0,0.66-0.05,2.11-0.14,4.34
			l-0.07,1.03c-0.05,0.96-0.09,1.65-0.14,2.09v3.25c0,0.77-0.16,1.26-0.48,1.47c-0.3,0.11-0.5,0.18-0.62,0.2l-0.85,0.03
			c-0.89,0-1.52,0.02-1.88,0.07l-3.59,0.03c-0.46,0.02-1.28,0.03-2.46,0.03C48.34,45.09,48.1,44.88,47.94,44.44z"/>
		<path class="st2" d="M69.95,44.34c-0.93-0.8-1.57-2.07-1.91-3.83c-0.23-1.16-0.34-2.91-0.34-5.23c0-1.69,0.09-3.53,0.27-5.54
			c0-0.32,0.02-0.77,0.07-1.37c0.02-0.48,0.05-1.16,0.07-2.03c0.02-0.88,0.03-1.65,0.03-2.31c0-0.34-0.02-0.58-0.07-0.72
			C68.02,23,68,22.75,68,22.57c0-0.36,0.39-0.55,1.16-0.55h2.05c1.46-0.05,2.86,0,4.2,0.14c0.93,0.09,1.65,0.19,2.15,0.31
			c0.62,0.16,1.03,0.39,1.23,0.68c0.18,0.34,0.27,0.93,0.27,1.78c0,1.03-0.01,1.97-0.03,2.82c-0.02,0.85-0.05,1.61-0.07,2.27
			c-0.02,0.16-0.03,0.41-0.03,0.75c0,0.46-0.02,1.23-0.07,2.32c-0.05,2.01-0.07,3.68-0.07,5.03c0,0.84,0.03,1.46,0.1,1.85
			c0.07,0.37,0.25,0.55,0.55,0.55c0.62,0,1.29-0.15,2.02-0.44c0.46-0.23,0.77-0.4,0.96-0.51V25.81c-0.07-0.52-0.1-1.04-0.1-1.54
			c-0.05-0.14-0.07-0.33-0.07-0.58v-0.31c0-0.41,0.08-0.69,0.24-0.85c0.16-0.14,0.54-0.21,1.13-0.21c0.66,0,1.52-0.03,2.56-0.1
			c0.36,0,0.87-0.02,1.5-0.07c0.46,0,0.79-0.03,0.99-0.1c0.14,0,0.3,0.02,0.48,0.07c0.27,0,0.5,0.01,0.68,0.03l1.03,0.03
			c0.5,0.02,1.13,0.11,1.88,0.27l0.96,0.27c0.2,0.07,0.34,0.15,0.39,0.24c0.06,0.09,0.09,0.21,0.09,0.34c0,3.37-0.07,6.76-0.2,10.15
			c-0.14,4.47-0.21,7.84-0.21,10.12c0,0.91-0.43,1.37-1.3,1.37h-1.74c-0.46,0.05-1.29,0.09-2.5,0.14c-0.68,0.05-1.22,0.07-1.61,0.07
			l-1.57,0.07c-0.62,0-1.08-0.1-1.4-0.31c-0.32-0.2-0.54-0.56-0.65-1.06c-1.23,0.62-2.53,1.11-3.9,1.47
			c-1.37,0.34-2.78,0.51-4.24,0.51C72.71,45.85,71.07,45.34,69.95,44.34z"/>
		<path class="st2" d="M102.9,44.44c-0.34-0.75-0.51-2.12-0.51-4.1c0-1.91,0.03-4.11,0.1-6.6c0.02-0.8,0.03-2.03,0.03-3.69
			l-0.1-0.14h-3.79c-0.3,0-0.53-0.16-0.7-0.5c-0.17-0.33-0.3-0.79-0.39-1.38c-0.11-0.68-0.17-1.66-0.17-2.94v-0.48
			c0-0.23,0.01-0.41,0.03-0.55v-0.51v-0.31c0-0.14,0.07-0.26,0.2-0.36c0.14-0.1,0.3-0.18,0.48-0.22c0.23-0.07,0.57-0.1,1.03-0.1h2.6
			c0.57,0,1,0.01,1.3,0.03l1.26,0.03h12.31c0.89,0,1.47,0.01,1.74,0.03c0.11,0.02,0.27,0.05,0.48,0.07
			c0.21,0.02,0.35,0.07,0.44,0.14c0.16,0.07,0.26,0.15,0.29,0.26c0.03,0.1,0.05,0.26,0.05,0.46v5.64c0,0.25-0.1,0.42-0.31,0.51
			c-0.14,0.05-0.32,0.07-0.55,0.07h-1.09h-1.13c-0.52,0-0.92-0.02-1.2-0.07h-1.03c-0.2,0-0.32,0.05-0.34,0.14
			c0,0.02-0.01,0.05-0.03,0.09c-0.02,0.03-0.03,0.07-0.03,0.12v0.51v1.16c0,0.34-0.01,0.6-0.03,0.79c0,0.66-0.05,2.11-0.14,4.34
			l-0.07,1.03c-0.05,0.96-0.09,1.65-0.14,2.09v3.25c0,0.77-0.16,1.26-0.48,1.47c-0.3,0.11-0.5,0.18-0.61,0.2l-0.85,0.03
			c-0.89,0-1.52,0.02-1.88,0.07l-3.59,0.03c-0.46,0.02-1.28,0.03-2.46,0.03C103.3,45.09,103.06,44.88,102.9,44.44z"/>
		<path class="st2" d="M129.33,45.23c-2.19-0.57-3.85-1.63-4.99-3.18c-1.32-1.85-1.98-4.41-1.98-7.69c0-2.35,0.26-4.34,0.79-5.98
			c0.52-1.64,1.33-2.99,2.43-4.03c1.09-1.05,2.5-1.82,4.22-2.31c1.72-0.49,3.82-0.74,6.31-0.74c1.94,0,3.76,0.3,5.47,0.89
			c2.1,0.75,3.73,1.9,4.89,3.45c1.44,1.85,2.15,4.27,2.15,7.28c0,3.51-0.52,6.24-1.57,8.2c-1.05,1.8-2.56,3.08-4.55,3.83
			c-1.62,0.62-3.86,0.92-6.73,0.92C133.04,45.88,130.9,45.66,129.33,45.23z M136.13,42.05c0.34-0.73,0.58-1.88,0.72-3.45
			c0.14-1.44,0.2-2.79,0.2-4.07v-1.37v-0.85c0-1-0.07-2.22-0.2-3.66c-0.14-1.55-0.38-2.72-0.72-3.52c-0.18-0.39-0.4-0.58-0.65-0.58
			c-0.5,0-0.87,0.48-1.09,1.44c-0.23,1.32-0.34,2.52-0.34,3.59c-0.07,0.91-0.1,2.34-0.1,4.27c0,1.3,0.03,2.37,0.1,3.21
			c0,1.07,0.11,2.31,0.34,3.73c0.23,1.19,0.59,1.78,1.09,1.78C135.75,42.56,135.97,42.39,136.13,42.05z"/>
		<path class="st2" d="M170.24,46.19c-0.34-0.2-0.63-0.43-0.86-0.68c-0.07-0.11-0.11-0.17-0.14-0.17c-0.02-0.05-0.06-0.07-0.1-0.07
			l-0.07-0.03l-0.14-0.14l-2.91-4.31c-0.14-0.3-0.33-0.62-0.58-0.96c-0.16-0.16-0.3-0.33-0.41-0.51c-0.09-0.14-0.18-0.21-0.27-0.21
			c-0.07,0-0.12,0.03-0.15,0.1c-0.03,0.07-0.06,0.16-0.09,0.27c-0.07,0.62-0.1,1.45-0.1,2.5c0,1-0.06,1.81-0.17,2.43
			c-0.07,0.3-0.17,0.44-0.31,0.44h-0.21c-0.05-0.02-0.1-0.05-0.17-0.07c-0.8,0.07-1.99,0.15-3.59,0.24
			c-1.55,0.09-2.73,0.14-3.56,0.14c-0.23,0-0.41-0.02-0.55-0.07h-0.75h-0.62h-0.31l-1.23-0.41l-0.1-0.27c0-0.02-0.01-0.07-0.02-0.14
			c-0.01-0.07-0.02-0.16-0.02-0.27c0-0.14-0.02-0.39-0.07-0.75c-0.11-1.39-0.16-1.94-0.14-1.64c-0.05-0.59-0.13-1.62-0.24-3.08
			l-0.1-1.26c0-0.41-0.01-0.77-0.03-1.09c-0.02-0.32-0.05-0.59-0.07-0.82l-0.07-0.75c-0.07-0.93-0.1-1.81-0.1-2.63
			c0-0.02,0.01-0.06,0.02-0.1c0.01-0.05,0.02-0.14,0.02-0.27c0.04-0.14,0.07-0.35,0.07-0.65l0.03-0.62l0.03-0.41
			c0-0.48-0.02-1.17-0.07-2.09c-0.09-0.57-0.14-1.3-0.14-2.19c0-1.28,0.08-2.21,0.24-2.8c0.2-0.82,0.55-1.23,1.03-1.23
			c2.57,0,5.2,0.03,7.86,0.1c0.59,0,1.48,0.02,2.67,0.07l1.33,0.03c1.82,0.05,3.09,0.07,3.79,0.07c2.94,0.14,5.16,0.88,6.67,2.22
			c0.68,0.57,1.19,1.25,1.52,2.05c0.33,0.8,0.5,1.65,0.5,2.56c0,1.05-0.19,2.02-0.58,2.91c-0.32,0.71-0.78,1.36-1.37,1.95
			c-0.57,0.57-1.22,1.03-1.95,1.37c0.14,0.07,0.32,0.22,0.55,0.44c0.09,0.11,0.25,0.26,0.48,0.44l0.48,0.34
			c0.07,0.11,0.15,0.22,0.24,0.32c0.09,0.1,0.18,0.21,0.27,0.32l1.61,1.98c0.73,0.93,1.2,1.62,1.4,2.05
			c0.16,0.3,0.24,0.52,0.24,0.68c0,0.23-0.09,0.43-0.27,0.62c-0.18,0.18-0.46,0.41-0.82,0.68c-0.27,0.21-0.59,0.4-0.96,0.58
			c-0.34,0.18-0.6,0.35-0.79,0.51l-1.26,0.68c-0.46,0.25-0.95,0.47-1.47,0.65c-0.02,0-0.05,0.01-0.09,0.03
			c-0.03,0.02-0.09,0.05-0.15,0.07c-0.14,0.07-0.51,0.19-1.13,0.38c-0.11,0.07-0.31,0.13-0.58,0.17c-0.07,0.05-0.15,0.08-0.24,0.1
			c-0.09,0.02-0.16,0.03-0.21,0.03h-0.17c-0.02,0.11-0.07,0.17-0.14,0.17h-0.1h-0.1C170.39,46.22,170.31,46.21,170.24,46.19z
			 M164.88,34.15c0.71,0,1.26-0.35,1.67-1.06c0.39-0.64,0.6-1.37,0.65-2.19c0.04-0.48,0.07-1.05,0.07-1.71v-0.38
			c0-0.52-0.09-1.07-0.27-1.64c-0.18-0.73-0.56-1.25-1.13-1.57c-0.25-0.2-0.58-0.31-0.99-0.31c-0.11,0-0.21,0.14-0.27,0.41
			c-0.21,0.5-0.32,1.3-0.34,2.39c-0.09,0.46-0.14,0.99-0.14,1.61l-0.03,1.03c-0.05,1.32-0.07,2.42-0.07,3.28
			c0,0.02,0.01,0.05,0.03,0.07c0.02,0.02,0.04,0.03,0.07,0.03l0.24,0.03H164.88z"/>
		<path class="st2" d="M182.55,44.91c-0.14-0.13-0.24-0.29-0.31-0.5c-0.09-0.41-0.16-0.87-0.2-1.37c-0.02-0.16-0.03-0.38-0.03-0.65
			v-0.44l0.03-4.24c0-1.44,0.03-2.85,0.1-4.24v-10.8c0-0.23,0.15-0.34,0.44-0.34c1.57,0,2.75-0.01,3.52-0.03h3.42
			c0.07,0,0.13-0.01,0.17-0.03c0.05-0.02,0.1-0.03,0.17-0.03c0.3-0.05,0.71-0.06,1.23-0.03c0.39,0,0.8,0.03,1.23,0.1
			c0.14,0.09,0.24,0.11,0.31,0.07c0.04,0,0.14-0.02,0.27-0.07c0.34,0,0.61,0.02,0.8,0.07c0.19,0.05,0.35,0.15,0.46,0.31
			c0.11,0.2,0.2,0.46,0.27,0.75c0.02,0.23,0.03,0.71,0.03,1.44v6.67v0.51c-0.02,0.18-0.03,0.59-0.03,1.23
			c0,0.68-0.02,1.22-0.07,1.61l-0.03,1.54c-0.02,0.34-0.03,0.77-0.03,1.3l-0.03,0.55v2.19c0,1.37-0.06,2.53-0.17,3.49
			c0,0.32-0.08,0.64-0.24,0.96c-0.41,0-1,0.02-1.78,0.07c-0.36,0-0.6,0.02-0.72,0.07h-0.34h-0.1c-0.16,0-0.24-0.02-0.24-0.07
			c-0.18-0.05-0.29-0.07-0.31-0.07l-0.27,0.14h-3.14c-0.02,0.02-0.21,0.03-0.55,0.03h-1.3h-1.26l-0.85,0.03
			C182.83,45.09,182.69,45.03,182.55,44.91z"/>
		<path class="st2" d="M198.27,44.41c-0.02-0.07-0.03-0.18-0.03-0.34c0-0.23,0.05-0.57,0.14-1.03c0.05-0.3,0.09-0.53,0.12-0.7
			s0.06-0.3,0.09-0.39c0.68-3.21,1.36-6.04,2.02-8.48l2.39-10.8c0-0.05,0.03-0.11,0.1-0.21c0.07-0.09,0.15-0.15,0.24-0.17h0.17
			c0,0.02,0.03,0.03,0.1,0.03c0.27,0,0.58-0.03,0.92-0.1c0.34-0.07,0.65-0.1,0.92-0.1c0.5,0,0.97,0.03,1.4,0.1
			c0.2,0,0.43,0.01,0.68,0.03c0.25,0.02,0.51,0.03,0.79,0.03c0.09,0,0.19-0.02,0.31-0.07h0.61h0.79l0.82-0.03
			c0.16-0.02,0.35-0.03,0.58-0.03c0.18,0,0.27-0.01,0.27-0.03h0.55h1.16h1.44c1.28,0,2.12,0.02,2.53,0.07
			c0.07,0,0.16,0.01,0.29,0.02c0.13,0.01,0.2,0.04,0.22,0.09c0.16,0,0.32-0.01,0.48-0.03c0.16-0.02,0.31-0.03,0.44-0.03
			c0.32-0.07,0.63-0.1,0.92-0.1c0.14,0,0.27,0.03,0.41,0.1c0.14,0.07,0.29,0.1,0.44,0.1l0.17-0.03h0.1
			c0.07,0.05,0.14,0.11,0.22,0.19c0.08,0.08,0.12,0.14,0.12,0.19l2.39,10.8c0.73,2.67,1.39,5.49,1.98,8.48
			c0,0.14,0.05,0.29,0.14,0.44c0.02,0.16,0.06,0.38,0.1,0.65c0.04,0.27,0.07,0.5,0.07,0.68c0.02,0.09,0.03,0.22,0.03,0.38
			c0,0.32-0.07,0.58-0.2,0.79c-0.09,0.14-0.23,0.2-0.41,0.2h-0.44c-0.34,0-0.6-0.01-0.79-0.03h-0.89h-0.85h-0.68
			c-0.18,0-0.27-0.01-0.27-0.03h-2.15v-0.07c-0.09-0.05-0.21-0.07-0.34-0.07c-0.02,0.02-0.05,0.05-0.07,0.07
			c0,0.05-0.02,0.07-0.07,0.07h-0.1h-0.27c-0.11-0.05-0.34-0.07-0.68-0.07c-0.68-0.05-1.22-0.07-1.61-0.07
			c-0.14-0.2-0.28-0.62-0.43-1.23c-0.15-0.62-0.3-1.3-0.46-2.05c-0.05-0.36-0.09-0.62-0.14-0.75c-0.48,0.09-1.11,0.14-1.88,0.14
			h-1.06h-0.99l-0.24,1.09c-0.3,1.5-0.54,2.44-0.72,2.8c-0.09,0-0.21,0.02-0.34,0.07c-0.05,0.02-0.1,0.05-0.17,0.07h-0.14
			c-0.14,0-0.24-0.02-0.31-0.07c-0.05-0.05-0.1-0.07-0.17-0.07l-1.54,0.07h-0.55h-0.51c-0.09,0.05-0.21,0.07-0.34,0.07h-0.14h-3.14
			h-0.31c-0.25,0.02-0.76,0.03-1.54,0.03h-0.89c-0.18,0.02-0.44,0.03-0.79,0.03h-0.41C198.59,45.09,198.39,44.87,198.27,44.41z
			 M214.44,35.04c-0.07-0.32-0.18-0.92-0.34-1.81c-0.05-0.23-0.16-0.84-0.34-1.85l-0.27-1.64c-0.07-0.46-0.14-0.85-0.2-1.2
			l-0.03-0.44c-0.07-0.11-0.1-0.22-0.1-0.31l-0.03-0.2c-0.02,0.05-0.03,0.11-0.03,0.2c0,0.09-0.02,0.15-0.07,0.17v0.14l-0.07,0.44
			c-0.02,0.16-0.05,0.34-0.09,0.53c-0.03,0.19-0.07,0.4-0.12,0.63l-0.17,0.96c-0.25,1.44-0.4,2.27-0.44,2.5
			c-0.02,0.25-0.08,0.63-0.17,1.13c-0.05,0.16-0.09,0.4-0.14,0.72l-0.27,1.57h1.74l0.24-0.07h0.07c0.27,0,0.48,0.02,0.61,0.07
			c0.09,0,0.18,0.02,0.26,0.05c0.08,0.03,0.15,0.06,0.22,0.09L214.44,35.04z"/>
		<path class="st2" d="M235.74,45.03c-0.98,0-1.73-0.01-2.26-0.03l-2.8-0.03c-0.2,0-0.4-0.09-0.58-0.27
			c-0.18-0.18-0.27-0.38-0.27-0.58v-7.52V33.3l-0.03-2.8c0-0.93,0.02-2.11,0.07-3.52c0-0.3,0.03-1.06,0.1-2.29V23.9
			c0-0.64,0.13-1.15,0.38-1.54c0.11-0.21,0.3-0.31,0.55-0.31c1.12,0,2.34,0.02,3.66,0.07c0.18,0.02,0.44,0.03,0.79,0.03
			c0.75,0,1.31,0.01,1.67,0.03h1.85c0.09,0,0.36,0,0.8,0c0.44,0,0.79,0.06,1.04,0.17c0.41,0.23,0.61,0.75,0.61,1.57l-0.03,0.27
			c0,0.07-0.02,0.24-0.07,0.51c-0.07,0.34-0.1,0.59-0.1,0.75c0,0.25,0.03,0.57,0.1,0.96c0.05,0.27,0.07,0.46,0.07,0.55l0.03,0.21
			v4.79v2.22v2.12v0.41c0,0.18,0.1,0.3,0.31,0.34c0.07,0.02,0.22,0.03,0.44,0.03h2.5c0.62-0.02,1.55-0.03,2.8-0.03
			c0.25,0,0.46,0.07,0.62,0.22c0.16,0.15,0.24,0.3,0.24,0.46v6.53v0.07c0,0.18-0.09,0.33-0.27,0.44c-0.2,0.09-0.44,0.15-0.72,0.17
			c-0.3,0.07-0.76,0.1-1.4,0.1h-4.96C238.52,45.06,236.81,45.05,235.74,45.03z"/>
	</g>
	<g>
		<g>
			<path class="st5" d="M46.36,42.86c-0.34-0.75-0.51-2.12-0.51-4.1c0-1.91,0.03-4.11,0.1-6.6c0.02-0.8,0.03-2.03,0.03-3.69
				l-0.1-0.14h-3.79c-0.3,0-0.53-0.16-0.7-0.5c-0.17-0.33-0.3-0.79-0.39-1.38c-0.11-0.68-0.17-1.66-0.17-2.94v-0.48
				c0-0.23,0.01-0.41,0.03-0.55v-0.51v-0.31c0-0.14,0.07-0.26,0.21-0.36s0.3-0.18,0.48-0.22c0.23-0.07,0.57-0.1,1.03-0.1h2.6
				c0.57,0,1,0.01,1.3,0.03l1.26,0.03h12.31c0.89,0,1.47,0.01,1.74,0.03c0.11,0.02,0.27,0.05,0.48,0.07
				c0.21,0.02,0.35,0.07,0.44,0.14c0.16,0.07,0.26,0.15,0.29,0.26c0.03,0.1,0.05,0.26,0.05,0.46v5.64c0,0.25-0.1,0.42-0.31,0.51
				c-0.14,0.05-0.32,0.07-0.55,0.07h-1.09h-1.13c-0.52,0-0.92-0.02-1.2-0.07h-1.03c-0.21,0-0.32,0.05-0.34,0.14
				c0,0.02-0.01,0.05-0.03,0.09c-0.02,0.03-0.03,0.07-0.03,0.12v0.51v1.16c0,0.34-0.01,0.6-0.03,0.79c0,0.66-0.05,2.11-0.14,4.34
				l-0.07,1.03c-0.05,0.96-0.09,1.65-0.14,2.09v3.25c0,0.77-0.16,1.26-0.48,1.47c-0.3,0.11-0.5,0.18-0.62,0.2L55,43.38
				c-0.89,0-1.52,0.02-1.88,0.07l-3.59,0.03c-0.46,0.02-1.28,0.03-2.46,0.03C46.75,43.51,46.51,43.3,46.36,42.86z"/>
			<path class="st5" d="M68.37,42.76c-0.93-0.8-1.57-2.07-1.91-3.83c-0.23-1.16-0.34-2.91-0.34-5.23c0-1.69,0.09-3.53,0.27-5.54
				c0-0.32,0.02-0.77,0.07-1.37c0.02-0.48,0.05-1.16,0.07-2.03c0.02-0.88,0.03-1.65,0.03-2.31c0-0.34-0.02-0.58-0.07-0.72
				c-0.05-0.32-0.07-0.57-0.07-0.75c0-0.36,0.39-0.55,1.16-0.55h2.05c1.46-0.05,2.86,0,4.2,0.14c0.93,0.09,1.65,0.19,2.15,0.31
				c0.62,0.16,1.03,0.39,1.23,0.68c0.18,0.34,0.27,0.93,0.27,1.78c0,1.03-0.01,1.97-0.03,2.82c-0.02,0.85-0.05,1.61-0.07,2.27
				c-0.02,0.16-0.03,0.41-0.03,0.75c0,0.46-0.02,1.23-0.07,2.32c-0.05,2.01-0.07,3.68-0.07,5.03c0,0.84,0.03,1.46,0.1,1.85
				c0.07,0.37,0.25,0.55,0.55,0.55c0.62,0,1.29-0.15,2.02-0.44c0.46-0.23,0.77-0.4,0.96-0.51V24.23c-0.07-0.52-0.1-1.04-0.1-1.54
				c-0.05-0.14-0.07-0.33-0.07-0.58v-0.31c0-0.41,0.08-0.69,0.24-0.85c0.16-0.14,0.54-0.21,1.13-0.21c0.66,0,1.52-0.03,2.56-0.1
				c0.36,0,0.87-0.02,1.5-0.07c0.46,0,0.79-0.03,0.99-0.1c0.14,0,0.3,0.02,0.48,0.07c0.27,0,0.5,0.01,0.68,0.03l1.03,0.03
				c0.5,0.02,1.13,0.11,1.88,0.27l0.96,0.27c0.2,0.07,0.34,0.15,0.39,0.24c0.06,0.09,0.09,0.21,0.09,0.34
				c0,3.37-0.07,6.76-0.2,10.15c-0.14,4.47-0.21,7.84-0.21,10.12c0,0.91-0.43,1.37-1.3,1.37h-1.74c-0.46,0.05-1.29,0.09-2.5,0.14
				c-0.68,0.05-1.22,0.07-1.61,0.07l-1.57,0.07c-0.62,0-1.08-0.1-1.4-0.31c-0.32-0.2-0.54-0.56-0.65-1.06
				c-1.23,0.62-2.53,1.11-3.9,1.47c-1.37,0.34-2.78,0.51-4.24,0.51C71.13,44.26,69.49,43.76,68.37,42.76z"/>
			<path class="st5" d="M101.32,42.86c-0.34-0.75-0.51-2.12-0.51-4.1c0-1.91,0.03-4.11,0.1-6.6c0.02-0.8,0.03-2.03,0.03-3.69
				l-0.1-0.14h-3.79c-0.3,0-0.53-0.16-0.7-0.5c-0.17-0.33-0.3-0.79-0.39-1.38c-0.11-0.68-0.17-1.66-0.17-2.94v-0.48
				c0-0.23,0.01-0.41,0.03-0.55v-0.51v-0.31c0-0.14,0.07-0.26,0.2-0.36c0.14-0.1,0.3-0.18,0.48-0.22c0.23-0.07,0.57-0.1,1.03-0.1
				h2.6c0.57,0,1,0.01,1.3,0.03l1.26,0.03H115c0.89,0,1.47,0.01,1.74,0.03c0.11,0.02,0.27,0.05,0.48,0.07
				c0.21,0.02,0.35,0.07,0.44,0.14c0.16,0.07,0.26,0.15,0.29,0.26c0.03,0.1,0.05,0.26,0.05,0.46v5.64c0,0.25-0.1,0.42-0.31,0.51
				c-0.14,0.05-0.32,0.07-0.55,0.07h-1.09h-1.13c-0.52,0-0.92-0.02-1.2-0.07h-1.03c-0.2,0-0.32,0.05-0.34,0.14
				c0,0.02-0.01,0.05-0.03,0.09c-0.02,0.03-0.03,0.07-0.03,0.12v0.51v1.16c0,0.34-0.01,0.6-0.03,0.79c0,0.66-0.05,2.11-0.14,4.34
				l-0.07,1.03c-0.05,0.96-0.09,1.65-0.14,2.09v3.25c0,0.77-0.16,1.26-0.48,1.47c-0.3,0.11-0.5,0.18-0.61,0.2l-0.85,0.03
				c-0.89,0-1.52,0.02-1.88,0.07l-3.59,0.03c-0.46,0.02-1.28,0.03-2.46,0.03C101.72,43.51,101.48,43.3,101.32,42.86z"/>
			<path class="st5" d="M127.75,43.65c-2.19-0.57-3.85-1.63-4.99-3.18c-1.32-1.85-1.98-4.41-1.98-7.69c0-2.35,0.26-4.34,0.79-5.98
				c0.52-1.64,1.33-2.99,2.43-4.03c1.09-1.05,2.5-1.82,4.22-2.31c1.72-0.49,3.82-0.74,6.31-0.74c1.94,0,3.76,0.3,5.47,0.89
				c2.1,0.75,3.73,1.9,4.89,3.45c1.44,1.85,2.15,4.27,2.15,7.28c0,3.51-0.52,6.24-1.57,8.2c-1.05,1.8-2.56,3.08-4.55,3.83
				c-1.62,0.62-3.86,0.92-6.73,0.92C131.46,44.3,129.32,44.08,127.75,43.65z M134.55,40.47c0.34-0.73,0.58-1.88,0.72-3.45
				c0.14-1.44,0.2-2.79,0.2-4.07v-1.37v-0.85c0-1-0.07-2.22-0.2-3.66c-0.14-1.55-0.38-2.72-0.72-3.52c-0.18-0.39-0.4-0.58-0.65-0.58
				c-0.5,0-0.87,0.48-1.09,1.44c-0.23,1.32-0.34,2.52-0.34,3.59c-0.07,0.91-0.1,2.34-0.1,4.27c0,1.3,0.03,2.37,0.1,3.21
				c0,1.07,0.11,2.31,0.34,3.73c0.23,1.19,0.59,1.78,1.09,1.78C134.17,40.98,134.39,40.81,134.55,40.47z"/>
			<path class="st5" d="M168.66,44.61c-0.34-0.2-0.63-0.43-0.86-0.68c-0.07-0.11-0.11-0.17-0.14-0.17c-0.02-0.05-0.06-0.07-0.1-0.07
				l-0.07-0.03l-0.14-0.14l-2.91-4.31c-0.14-0.3-0.33-0.62-0.58-0.96c-0.16-0.16-0.3-0.33-0.41-0.51c-0.09-0.14-0.18-0.21-0.27-0.21
				c-0.07,0-0.12,0.03-0.15,0.1c-0.03,0.07-0.06,0.16-0.09,0.27c-0.07,0.62-0.1,1.45-0.1,2.5c0,1-0.06,1.81-0.17,2.43
				c-0.07,0.3-0.17,0.44-0.31,0.44h-0.21c-0.05-0.02-0.1-0.05-0.17-0.07c-0.8,0.07-1.99,0.15-3.59,0.24
				c-1.55,0.09-2.73,0.14-3.56,0.14c-0.23,0-0.41-0.02-0.55-0.07h-0.75h-0.62h-0.31l-1.23-0.41l-0.1-0.27
				c0-0.02-0.01-0.07-0.02-0.14c-0.01-0.07-0.02-0.16-0.02-0.27c0-0.14-0.02-0.39-0.07-0.75c-0.11-1.39-0.16-1.94-0.14-1.64
				c-0.05-0.59-0.13-1.62-0.24-3.08l-0.1-1.26c0-0.41-0.01-0.77-0.03-1.09c-0.02-0.32-0.05-0.59-0.07-0.82l-0.07-0.75
				c-0.07-0.93-0.1-1.81-0.1-2.63c0-0.02,0.01-0.06,0.02-0.1c0.01-0.05,0.02-0.14,0.02-0.27c0.04-0.14,0.07-0.35,0.07-0.65
				l0.03-0.62l0.03-0.41c0-0.48-0.02-1.17-0.07-2.09c-0.09-0.57-0.14-1.3-0.14-2.19c0-1.28,0.08-2.21,0.24-2.8
				c0.2-0.82,0.55-1.23,1.03-1.23c2.57,0,5.2,0.03,7.86,0.1c0.59,0,1.48,0.02,2.67,0.07l1.33,0.03c1.82,0.05,3.09,0.07,3.79,0.07
				c2.94,0.14,5.16,0.88,6.67,2.22c0.68,0.57,1.19,1.25,1.52,2.05c0.33,0.8,0.5,1.65,0.5,2.56c0,1.05-0.19,2.02-0.58,2.91
				c-0.32,0.71-0.78,1.36-1.37,1.95c-0.57,0.57-1.22,1.03-1.95,1.37c0.14,0.07,0.32,0.22,0.55,0.44c0.09,0.11,0.25,0.26,0.48,0.44
				l0.48,0.34c0.07,0.11,0.15,0.22,0.24,0.32c0.09,0.1,0.18,0.21,0.27,0.32l1.61,1.98c0.73,0.93,1.2,1.62,1.4,2.05
				c0.16,0.3,0.24,0.52,0.24,0.68c0,0.23-0.09,0.43-0.27,0.62c-0.18,0.18-0.46,0.41-0.82,0.68c-0.27,0.21-0.59,0.4-0.96,0.58
				c-0.34,0.18-0.6,0.35-0.79,0.51l-1.26,0.68c-0.46,0.25-0.95,0.47-1.47,0.65c-0.02,0-0.05,0.01-0.09,0.03
				c-0.03,0.02-0.09,0.05-0.15,0.07c-0.14,0.07-0.51,0.19-1.13,0.38c-0.11,0.07-0.31,0.13-0.58,0.17c-0.07,0.05-0.15,0.08-0.24,0.1
				c-0.09,0.02-0.16,0.03-0.21,0.03h-0.17c-0.02,0.11-0.07,0.17-0.14,0.17H169h-0.1C168.81,44.64,168.73,44.63,168.66,44.61z
				 M163.3,32.57c0.71,0,1.26-0.35,1.67-1.06c0.39-0.64,0.6-1.37,0.65-2.19c0.04-0.48,0.07-1.05,0.07-1.71v-0.38
				c0-0.52-0.09-1.07-0.27-1.64c-0.18-0.73-0.56-1.25-1.13-1.57c-0.25-0.2-0.58-0.31-0.99-0.31c-0.11,0-0.21,0.14-0.27,0.41
				c-0.21,0.5-0.32,1.3-0.34,2.39c-0.09,0.46-0.14,0.99-0.14,1.61l-0.03,1.03c-0.05,1.32-0.07,2.42-0.07,3.28
				c0,0.02,0.01,0.05,0.03,0.07c0.02,0.02,0.04,0.03,0.07,0.03l0.24,0.03H163.3z"/>
			<path class="st5" d="M180.97,43.32c-0.14-0.13-0.24-0.29-0.31-0.5c-0.09-0.41-0.16-0.87-0.2-1.37c-0.02-0.16-0.03-0.38-0.03-0.65
				v-0.44l0.03-4.24c0-1.44,0.03-2.85,0.1-4.24v-10.8c0-0.23,0.15-0.34,0.44-0.34c1.57,0,2.75-0.01,3.52-0.03h3.42
				c0.07,0,0.13-0.01,0.17-0.03c0.05-0.02,0.1-0.03,0.17-0.03c0.3-0.05,0.71-0.06,1.23-0.03c0.39,0,0.8,0.03,1.23,0.1
				c0.14,0.09,0.24,0.11,0.31,0.07c0.04,0,0.14-0.02,0.27-0.07c0.34,0,0.61,0.02,0.8,0.07c0.19,0.05,0.35,0.15,0.46,0.31
				c0.11,0.2,0.2,0.46,0.27,0.75c0.02,0.23,0.03,0.71,0.03,1.44v6.67v0.51c-0.02,0.18-0.03,0.59-0.03,1.23
				c0,0.68-0.02,1.22-0.07,1.61l-0.03,1.54c-0.02,0.34-0.03,0.77-0.03,1.3l-0.03,0.55v2.19c0,1.37-0.06,2.53-0.17,3.49
				c0,0.32-0.08,0.64-0.24,0.96c-0.41,0-1,0.02-1.78,0.07c-0.36,0-0.6,0.02-0.72,0.07h-0.34h-0.1c-0.16,0-0.24-0.02-0.24-0.07
				c-0.18-0.05-0.29-0.07-0.31-0.07l-0.27,0.14h-3.14c-0.02,0.02-0.21,0.03-0.55,0.03h-1.3h-1.26l-0.85,0.03
				C181.25,43.51,181.11,43.45,180.97,43.32z"/>
			<path class="st5" d="M196.69,42.83c-0.02-0.07-0.03-0.18-0.03-0.34c0-0.23,0.05-0.57,0.14-1.03c0.05-0.3,0.09-0.53,0.12-0.7
				s0.06-0.3,0.09-0.39c0.68-3.21,1.36-6.04,2.02-8.48l2.39-10.8c0-0.05,0.03-0.11,0.1-0.21c0.07-0.09,0.15-0.15,0.24-0.17h0.17
				c0,0.02,0.03,0.03,0.1,0.03c0.27,0,0.58-0.03,0.92-0.1c0.34-0.07,0.65-0.1,0.92-0.1c0.5,0,0.97,0.03,1.4,0.1
				c0.2,0,0.43,0.01,0.68,0.03c0.25,0.02,0.51,0.03,0.79,0.03c0.09,0,0.19-0.02,0.31-0.07h0.61h0.79l0.82-0.03
				c0.16-0.02,0.35-0.03,0.58-0.03c0.18,0,0.27-0.01,0.27-0.03h0.55h1.16h1.44c1.28,0,2.12,0.02,2.53,0.07
				c0.07,0,0.16,0.01,0.29,0.02c0.13,0.01,0.2,0.04,0.22,0.09c0.16,0,0.32-0.01,0.48-0.03c0.16-0.02,0.31-0.03,0.44-0.03
				c0.32-0.07,0.63-0.1,0.92-0.1c0.14,0,0.27,0.03,0.41,0.1c0.14,0.07,0.29,0.1,0.44,0.1l0.17-0.03h0.1
				c0.07,0.05,0.14,0.11,0.22,0.19c0.08,0.08,0.12,0.14,0.12,0.19l2.39,10.8c0.73,2.67,1.39,5.49,1.98,8.48
				c0,0.14,0.05,0.29,0.14,0.44c0.02,0.16,0.06,0.38,0.1,0.65c0.04,0.27,0.07,0.5,0.07,0.68c0.02,0.09,0.03,0.22,0.03,0.38
				c0,0.32-0.07,0.58-0.2,0.79c-0.09,0.14-0.23,0.2-0.41,0.2h-0.44c-0.34,0-0.6-0.01-0.79-0.03h-0.89h-0.85h-0.68
				c-0.18,0-0.27-0.01-0.27-0.03h-2.15v-0.07c-0.09-0.05-0.21-0.07-0.34-0.07c-0.02,0.02-0.05,0.05-0.07,0.07
				c0,0.05-0.02,0.07-0.07,0.07h-0.1h-0.27c-0.11-0.05-0.34-0.07-0.68-0.07c-0.68-0.05-1.22-0.07-1.61-0.07
				c-0.14-0.2-0.28-0.62-0.43-1.23c-0.15-0.62-0.3-1.3-0.46-2.05c-0.05-0.36-0.09-0.62-0.14-0.75c-0.48,0.09-1.11,0.14-1.88,0.14
				h-1.06h-0.99l-0.24,1.09c-0.3,1.5-0.54,2.44-0.72,2.8c-0.09,0-0.21,0.02-0.34,0.07c-0.05,0.02-0.1,0.05-0.17,0.07h-0.14
				c-0.14,0-0.24-0.02-0.31-0.07c-0.05-0.05-0.1-0.07-0.17-0.07l-1.54,0.07h-0.55h-0.51c-0.09,0.05-0.21,0.07-0.34,0.07h-0.14h-3.14
				h-0.31c-0.25,0.02-0.76,0.03-1.54,0.03h-0.89c-0.18,0.02-0.44,0.03-0.79,0.03h-0.41C197.01,43.51,196.81,43.28,196.69,42.83z
				 M212.86,33.46c-0.07-0.32-0.18-0.92-0.34-1.81c-0.05-0.23-0.16-0.84-0.34-1.85l-0.27-1.64c-0.07-0.46-0.14-0.85-0.2-1.2
				l-0.03-0.44c-0.07-0.11-0.1-0.22-0.1-0.31l-0.03-0.2c-0.02,0.05-0.03,0.11-0.03,0.2c0,0.09-0.02,0.15-0.07,0.17v0.14l-0.07,0.44
				c-0.02,0.16-0.05,0.34-0.09,0.53c-0.03,0.19-0.07,0.4-0.12,0.63l-0.17,0.96c-0.25,1.44-0.4,2.27-0.44,2.5
				c-0.02,0.25-0.08,0.63-0.17,1.13c-0.05,0.16-0.09,0.4-0.14,0.72L209.96,35h1.74l0.24-0.07h0.07c0.27,0,0.48,0.02,0.61,0.07
				c0.09,0,0.18,0.02,0.26,0.05c0.08,0.03,0.15,0.06,0.22,0.09L212.86,33.46z"/>
			<path class="st5" d="M234.16,43.44c-0.98,0-1.73-0.01-2.26-0.03l-2.8-0.03c-0.2,0-0.4-0.09-0.58-0.27
				c-0.18-0.18-0.27-0.38-0.27-0.58V35v-3.28l-0.03-2.8c0-0.93,0.02-2.11,0.07-3.52c0-0.3,0.03-1.06,0.1-2.29v-0.79
				c0-0.64,0.13-1.15,0.38-1.54c0.11-0.21,0.3-0.31,0.55-0.31c1.12,0,2.34,0.02,3.66,0.07c0.18,0.02,0.44,0.03,0.79,0.03
				c0.75,0,1.31,0.01,1.67,0.03h1.85c0.09,0,0.36,0,0.8,0c0.44,0,0.79,0.06,1.04,0.17c0.41,0.23,0.61,0.75,0.61,1.57l-0.03,0.27
				c0,0.07-0.02,0.24-0.07,0.51c-0.07,0.34-0.1,0.59-0.1,0.75c0,0.25,0.03,0.57,0.1,0.96c0.05,0.27,0.07,0.46,0.07,0.55l0.03,0.21
				v4.79v2.22v2.12v0.41c0,0.18,0.1,0.3,0.31,0.34c0.07,0.02,0.22,0.03,0.44,0.03h2.5c0.62-0.02,1.55-0.03,2.8-0.03
				c0.25,0,0.46,0.07,0.62,0.22c0.16,0.15,0.24,0.3,0.24,0.46v6.53v0.07c0,0.18-0.09,0.33-0.27,0.44c-0.2,0.09-0.44,0.15-0.72,0.17
				c-0.3,0.07-0.76,0.1-1.4,0.1h-4.96C236.94,43.48,235.23,43.47,234.16,43.44z"/>
		</g>
	</g>
	<path class="st6" d="M241.71,54.54c0,0-214.36-0.39-219.4,0C17.26,54.93,4.67,41.25,4.67,41.25c-0.18,3.37,9.02,12.06,12.99,15.15
		c3.97,3.09,223.84,1.37,223.84,1.37s11.18-0.17,20.06-0.32c8.88-0.15,14.17-7.7,14.17-7.7C270.72,55.66,241.71,54.54,241.71,54.54z
		"/>
	<circle class="st2" cx="24.33" cy="17.61" r="1.89"/>
	<path class="st2" d="M21.95,31.54c0,0-6.21,1.16-7.78,3.58s-5.89,4.1-5.89,4.42s2.52,3.79,5.26,4.94
		c2.74,1.16,8.73,1.17,10.41,2.32c1.68,1.15-2.74-9.05-2.84-10.53S26.26,32.27,21.95,31.54z"/>
	<path class="st2" d="M33.54,31.42c-0.05-1.5-0.66-2.27-1.1-1.46c-0.49,0.9-1.2,2.09-1.82,2.68c-1.06,1.01-0.73,4.99,0.53,3.69
		c1.26-1.3,1.66-3.27,2.06-3.23C33.43,33.13,33.58,32.4,33.54,31.42z"/>
	<path class="st2" d="M268.27,34.76c-0.35,1.67-4.28,2.18-5.1,4.15s-3.47,2.52-4.89,3.94c-1.43,1.43,3.67,4.3,6.39,3.2
		c2.72-1.1,6.93-3.29,7.41-5.52c0.48-2.23-0.82-6.92-1.16-8.01C270.58,31.43,268.67,32.79,268.27,34.76z"/>
	<ellipse class="st2" cx="250.05" cy="49.38" rx="2.38" ry="1.6"/>
	<circle class="st2" cx="270.89" cy="20.89" r="1.6"/>
	<path class="st7" d="M265.64,4.99c-7.19-0.75-17.84-0.36-17.84-0.36l-5.1,0.25c0,0-221.14-1.47-225.11,1.62S4.42,18.28,4.6,21.65
		c0,0,12.59-13.67,17.64-13.28c5.04,0.39,220.67-0.24,220.67-0.24l4-0.2c0,0,21.18-2.24,32.12,7.14
		C279.03,15.06,272.84,5.74,265.64,4.99z"/>
	<polygon class="st2" points="250.59,2.42 254.43,2.42 249.12,11.71 	"/>
	<polygon class="st2" points="33.07,58.25 40.82,44.26 36.95,58.25 	"/>
	<polygon class="st6" points="40.82,44.26 36.95,57.61 38.88,57.66 	"/>
	<polygon class="st7" points="253.85,3.43 249.12,11.71 255.31,3.53 	"/>
</g>
</svg>
