<?xml version="1.0" encoding="utf-8"?>
<!-- Generator: Adobe Illustrator 25.4.1, SVG Export Plug-In . SVG Version: 6.00 Build 0)  -->
<svg version="1.1" xmlns="http://www.w3.org/2000/svg" xmlns:xlink="http://www.w3.org/1999/xlink" x="0px" y="0px"
	 viewBox="0 0 390 570" style="enable-background:new 0 0 390 570;" xml:space="preserve">
<style type="text/css">
	.st0{fill:#C3B0CF;stroke:#2B1452;stroke-width:4;stroke-miterlimit:10;}
	.st1{fill:#FFFFFF;}
	.st2{fill:#2B1452;}
	.st3{fill:#C3B0CF;}
	.st4{fill:#FFFFFF;stroke:#2B1452;stroke-width:4;stroke-miterlimit:10;}
	.st5{fill:none;stroke:#2B1452;stroke-width:4;stroke-miterlimit:10;}
	.st6{fill:url(#SVGID_1_);stroke:#2B1452;stroke-width:4;stroke-miterlimit:10;}
	.st7{fill:#C6C1D7;stroke:#2B1452;stroke-width:4;stroke-miterlimit:10;}
	.st8{fill:url(#SVGID_00000026159434894131338210000012202009315835194792_);stroke:#2B1452;stroke-width:4;stroke-miterlimit:10;}
	.st9{fill:url(#SVGID_00000111905884777531820490000010391440920554118587_);stroke:#2B1452;stroke-width:4;stroke-miterlimit:10;}
	.st10{fill:url(#SVGID_00000138555221591523293310000003850867563740096411_);stroke:#2B1452;stroke-width:4;stroke-miterlimit:10;}
	.st11{fill:#B4B0CF;stroke:#0F233A;stroke-width:4;stroke-miterlimit:10;}
	.st12{fill:#003C8A;}
	.st13{fill:#B4B0CF;}
	.st14{fill:#FFFFFF;stroke:#0F233A;stroke-width:4;stroke-miterlimit:10;}
	.st15{fill:#547CB1;}
	.st16{fill:none;stroke:#0F233A;stroke-width:4;stroke-miterlimit:10;}
	.st17{fill:#003C8A;stroke:#0F233A;stroke-width:4;stroke-miterlimit:10;}
	.st18{fill:#BAC9D8;stroke:#003C8A;stroke-width:4;stroke-miterlimit:10;}
	.st19{fill:#BCCFB0;stroke:#1C260B;stroke-width:4;stroke-miterlimit:10;}
	.st20{fill:#5B6F40;}
	.st21{fill:#BCCFB0;}
	.st22{fill:#FFFFFF;stroke:#1C260B;stroke-width:4;stroke-miterlimit:10;}
	.st23{fill:none;stroke:#1C260B;stroke-width:4;stroke-miterlimit:10;}
	.st24{fill:#5B6F40;stroke:#1C260B;stroke-width:4;stroke-miterlimit:10;}
	.st25{fill:#CFB0B4;stroke:#450619;stroke-width:4;stroke-miterlimit:10;}
	.st26{fill:#830619;}
	.st27{fill:#CFB0B4;}
	.st28{fill:#FFFFFF;stroke:#450619;stroke-width:4;stroke-miterlimit:10;}
	.st29{fill:#9C3847;}
	.st30{fill:none;stroke:#450619;stroke-width:4;stroke-miterlimit:10;}
	.st31{fill:#830619;stroke:#450619;stroke-width:4;stroke-miterlimit:10;}
	.st32{fill:#D8ABC7;stroke:#661846;stroke-width:4;stroke-miterlimit:10;}
	.st33{fill:#CD4C95;}
	.st34{fill:#D8ABC7;}
	.st35{fill:none;stroke:#661846;stroke-width:4;stroke-miterlimit:10;}
	.st36{fill:#FFFFFF;stroke:#661846;stroke-width:4;stroke-miterlimit:10;}
	.st37{fill:#C42D82;stroke:#661846;stroke-width:4;stroke-miterlimit:10;}
	.st38{fill:#E2CEBA;stroke:#3F2910;stroke-width:4;stroke-miterlimit:10;}
	.st39{fill:#FFA22D;}
	.st40{fill:#E2CEBA;}
	.st41{fill:#FFFFFF;stroke:#3F2910;stroke-width:4;stroke-miterlimit:10;}
	.st42{fill:#FFDBB3;}
	.st43{fill:none;stroke:#3F2910;stroke-width:4;stroke-miterlimit:10;}
	.st44{fill:#FFA22D;stroke:#3F2910;stroke-width:4;stroke-miterlimit:10;}
	.st45{fill:#CCB0CF;}
	.st46{fill:#CFBFB0;}
	.st47{fill:#5C733D;}
</style>
<g id="sketch">
</g>
<g id="레이어_2">
	<g>
		<path class="st0" d="M-599.19,150.58c0,0-62.81,21.96-58.72,75.06c4.09,53.11,27.57,30.64,43.91,18.89
			c16.34-11.74,30.64-20.94,50.55-19.91"/>
		<path class="st1" d="M-363.43,351.71c-16.21,7.61-42.82,11.82-78.2,7.31c-35.38-4.52-94.85-4.52-139.27-72.27
			s-83.56-145.66-54.2-266.68C-605.74-100.94-518.91-116-475.37-114.49c43.53,1.51,151.31,21.56,160.97,179.67
			c4.24,69.38-21.08,157.41-42.91,193.63c0,0-22.9,43.94-5.27,61.06c4.79,4.65,11.26,8.08,22.1,2.94s24.32-18.21,36.44-16.56
			c19.59,2.66-2.63,6.32-9.28,9.64c-4.89,2.45-15.09,8.86-18.6,12.19c-7.36,6.99-15.36,13.27-23.87,18.81
			C-359.59,349.38-362.74,351.39-363.43,351.71z"/>
		<ellipse class="st2" cx="-407.12" cy="393.24" rx="125.31" ry="13.28"/>
		<path class="st3" d="M-580.9,286.75c44.42,67.75,103.89,67.75,139.27,72.27c35.38,4.52,61.99,0.3,78.2-7.31
			c0.69-0.33,3.84-2.33,7.65-4.81c8.51-5.54,16.51-11.82,23.87-18.81c3.51-3.34,13.71-9.75,18.6-12.19
			c6.64-3.32,28.86-6.98,9.28-9.64c-12.12-1.65-25.6,11.42-36.44,16.56s-17.31,1.71-22.1-2.94c-17.64-17.12,5.27-61.06,5.27-61.06
			c21.83-36.22,45.92-154.99,42.91-193.63c-12.31-157.93-117.44-178.16-160.97-179.67c0,0,55.94,11.15,97.61,60.72
			c23.89,28.43,47.6,81.88,48.45,125.65c2.08,107.21-18.39,143.61-42.13,151.71c-25.41,8.68-53.07-3.42-71.98,58.67
			C-470.71,371.88-580.9,286.75-580.9,286.75z"/>
		<path class="st4" d="M-407.19,150.58c0,0-62.81,21.96-58.72,75.06c4.09,53.11,27.57,30.64,43.91,18.89
			c16.34-11.74,30.64-20.94,50.55-19.91"/>
		<g>
			<path class="st4" d="M-478.54,73.57l7.83,6.79l6.08-8.28c0,0,11.67-1.26,19.69-1.93c1.39-4.5,1.55-8.91,1.52-11.72
				c-0.02-2.08-2.06-3.51-4.05-2.9c-32.27,10-82.07,5.37-97.22,3.63c-2.45-0.28-4.48,1.97-3.87,4.36c0.82,3.22,2.33,6.27,4.18,9.07
				C-526.25,73.54-487.24,75.33-478.54,73.57z"/>
			<path class="st4" d="M-464.63,72.08l-4.01,5.47c-1.11,1.52-3.28,1.76-4.7,0.53l-5.19-4.5c-8.7,1.76-47.71-0.02-65.84-0.97
				c3.79,5.73,8.99,10.41,12.57,13.24c2.43,1.92,5.54,2.81,8.62,2.49c43.65-4.48,46.81,0.91,62.2-2.91
				c9.71-2.41,14.1-8.92,16.05-15.27C-452.97,70.81-464.63,72.08-464.63,72.08z"/>
		</g>
		<path class="st3" d="M-513.9,98.44l35.5-0.85c1.69-0.04,2.61,1.97,1.48,3.22l-7.52,8.31c-1.53,1.69-3.71,2.66-6,2.66h-15.54
			c-3.35,0-6.35-2.06-7.55-5.18l-2.13-5.54C-516.13,99.82-515.23,98.47-513.9,98.44z"/>
		<circle class="st3" cx="-388.79" cy="58.26" r="33.08"/>
		<circle class="st3" cx="-605.55" cy="58.26" r="33.08"/>
		<path class="st5" d="M-363.43,351.71c-16.21,7.61-42.82,11.82-78.2,7.31c-35.38-4.52-94.85-4.52-139.27-72.27
			s-83.56-145.66-54.2-266.68C-605.74-100.94-518.91-116-475.37-114.49c43.53,1.51,151.31,21.56,160.97,179.67
			c4.24,69.38-21.08,157.41-42.91,193.63c0,0-22.9,43.94-5.27,61.06c4.79,4.65,11.26,8.08,22.1,2.94s24.32-18.21,36.44-16.56
			c19.59,2.66-2.63,6.32-9.28,9.64c-4.89,2.45-15.09,8.86-18.6,12.19c-7.36,6.99-15.36,13.27-23.87,18.81
			C-359.59,349.38-362.74,351.39-363.43,351.71z"/>
		<radialGradient id="SVGID_1_" cx="-452.5397" cy="-8.7115" r="41.3633" gradientUnits="userSpaceOnUse">
			<stop  offset="1.331947e-07" style="stop-color:#483464"/>
			<stop  offset="1" style="stop-color:#33214D"/>
		</radialGradient>
		<path class="st6" d="M-482.36,8.51c13.05,22.61,36.99,33.23,53.46,23.72c16.47-9.51,19.24-35.55,6.18-58.16
			s-36.99-33.23-53.46-23.72S-495.42-14.11-482.36,8.51z"/>
		
			<ellipse transform="matrix(0.866 -0.5 0.5 0.866 -57.6024 -232.3979)" class="st7" cx="-462.46" cy="-8.71" rx="21.9" ry="30.07"/>
		
			<radialGradient id="SVGID_00000127032159498035537900000002437553601324016042_" cx="-548.7531" cy="-8.7115" r="40.7336" gradientUnits="userSpaceOnUse">
			<stop  offset="1.331947e-07" style="stop-color:#483464"/>
			<stop  offset="1" style="stop-color:#33214D"/>
		</radialGradient>
		
			<path style="fill:url(#SVGID_00000127032159498035537900000002437553601324016042_);stroke:#2B1452;stroke-width:4;stroke-miterlimit:10;" d="
			M-519.39,8.24c-12.86,22.27-36.43,32.73-52.65,23.36c-16.22-9.36-18.95-35.01-6.09-57.27c12.86-22.27,36.43-32.73,52.65-23.36
			C-509.26-39.67-506.53-14.02-519.39,8.24z"/>
		
			<ellipse transform="matrix(0.5 -0.866 0.866 0.5 -261.9467 -471.128)" class="st7" cx="-538.98" cy="-8.71" rx="29.61" ry="21.57"/>
		<circle class="st1" cx="-443.49" cy="-14.66" r="6.63"/>
		<circle class="st1" cx="-519.45" cy="-14.66" r="6.63"/>
	</g>
	<g>
		<path class="st0" d="M623.26,168.84c0,0-62.81,21.96-58.72,75.06c4.09,53.11,27.57,30.64,43.91,18.89
			c16.34-11.74,30.64-20.94,50.55-19.91"/>
		<path class="st1" d="M859.02,369.97c-16.21,7.61-42.82,11.82-78.2,7.31c-35.38-4.52-94.85-4.52-139.27-72.27
			c-44.42-67.75-83.56-145.66-54.2-266.68C616.71-82.68,703.54-97.74,747.08-96.23c43.53,1.51,151.31,21.56,160.97,179.67
			c4.24,69.38-21.08,157.41-42.91,193.63c0,0-22.9,43.94-5.27,61.06c4.79,4.65,11.26,8.08,22.1,2.94
			c10.84-5.13,24.32-18.21,36.44-16.56c19.59,2.66-2.63,6.32-9.28,9.64c-4.89,2.45-15.09,8.86-18.6,12.19
			c-7.36,6.99-15.36,13.27-23.87,18.81C862.86,367.64,859.71,369.65,859.02,369.97z"/>
		<ellipse class="st2" cx="815.33" cy="411.5" rx="125.31" ry="13.28"/>
		<path class="st3" d="M641.55,305.01c44.42,67.75,103.89,67.75,139.27,72.27c35.38,4.52,61.99,0.3,78.2-7.31
			c0.69-0.33,3.84-2.33,7.65-4.81c8.51-5.54,16.51-11.82,23.87-18.81c3.51-3.34,13.71-9.75,18.6-12.19
			c6.64-3.32,28.86-6.98,9.28-9.64c-12.12-1.65-25.6,11.42-36.44,16.56c-10.84,5.13-17.31,1.71-22.1-2.94
			c-17.64-17.12,5.27-61.06,5.27-61.06c21.83-36.22,45.92-154.99,42.91-193.63C895.74-74.49,790.61-94.73,747.08-96.23
			c0,0,55.94,11.15,97.61,60.72c23.89,28.43,47.6,81.88,48.45,125.65c2.08,107.21-18.39,143.61-42.13,151.71
			c-25.41,8.68-53.07-3.42-71.98,58.67C751.74,390.13,641.55,305.01,641.55,305.01z"/>
		<path class="st4" d="M815.26,168.84c0,0-62.81,21.96-58.72,75.06c4.09,53.11,27.57,30.64,43.91,18.89
			c16.34-11.74,30.64-20.94,50.55-19.91"/>
		<g>
			<path class="st4" d="M743.91,91.82l7.83,6.79l6.08-8.28c0,0,11.67-1.26,19.69-1.93c1.39-4.5,1.55-8.91,1.52-11.72
				c-0.02-2.08-2.06-3.51-4.05-2.9c-32.27,10-82.07,5.37-97.22,3.63c-2.45-0.28-4.48,1.97-3.87,4.36c0.82,3.22,2.33,6.27,4.18,9.07
				C696.2,91.8,735.21,93.59,743.91,91.82z"/>
			<path class="st4" d="M757.82,90.33l-4.01,5.47c-1.11,1.52-3.28,1.76-4.7,0.53l-5.19-4.5c-8.7,1.76-47.71-0.02-65.84-0.97
				c3.79,5.73,8.99,10.41,12.57,13.24c2.43,1.92,5.54,2.81,8.62,2.49c43.65-4.48,46.81,0.91,62.2-2.91
				c9.71-2.41,14.1-8.92,16.05-15.27C769.48,89.07,757.82,90.33,757.82,90.33z"/>
		</g>
		<path class="st3" d="M708.55,116.7l35.5-0.85c1.69-0.04,2.61,1.97,1.48,3.22l-7.52,8.31c-1.53,1.69-3.71,2.66-6,2.66h-15.54
			c-3.35,0-6.35-2.06-7.55-5.18l-2.13-5.54C706.32,118.08,707.22,116.73,708.55,116.7z"/>
		<circle class="st3" cx="833.66" cy="76.52" r="33.08"/>
		<circle class="st3" cx="616.9" cy="76.52" r="33.08"/>
		<path class="st5" d="M859.02,369.97c-16.21,7.61-42.82,11.82-78.2,7.31c-35.38-4.52-94.85-4.52-139.27-72.27
			c-44.42-67.75-83.56-145.66-54.2-266.68C616.71-82.68,703.54-97.74,747.08-96.23c43.53,1.51,151.31,21.56,160.97,179.67
			c4.24,69.38-21.08,157.41-42.91,193.63c0,0-22.9,43.94-5.27,61.06c4.79,4.65,11.26,8.08,22.1,2.94
			c10.84-5.13,24.32-18.21,36.44-16.56c19.59,2.66-2.63,6.32-9.28,9.64c-4.89,2.45-15.09,8.86-18.6,12.19
			c-7.36,6.99-15.36,13.27-23.87,18.81C862.86,367.64,859.71,369.65,859.02,369.97z"/>
		
			<radialGradient id="SVGID_00000080196481930928238020000015601437231767836549_" cx="769.91" cy="9.5479" r="41.3633" gradientUnits="userSpaceOnUse">
			<stop  offset="1.331947e-07" style="stop-color:#483464"/>
			<stop  offset="1" style="stop-color:#33214D"/>
		</radialGradient>
		
			<path style="fill:url(#SVGID_00000080196481930928238020000015601437231767836549_);stroke:#2B1452;stroke-width:4;stroke-miterlimit:10;" d="
			M740.09,26.77c13.05,22.61,36.99,33.23,53.46,23.72s19.24-35.55,6.18-58.16c-13.05-22.61-36.99-33.23-53.46-23.72
			C729.8-21.88,727.03,4.15,740.09,26.77z"/>
		<ellipse transform="matrix(0.866 -0.5 0.5 0.866 97.0451 381.2732)" class="st7" cx="759.99" cy="9.55" rx="21.9" ry="30.07"/>
		
			<radialGradient id="SVGID_00000008833868901827491770000004108438604466886563_" cx="673.6966" cy="9.5479" r="40.7336" gradientUnits="userSpaceOnUse">
			<stop  offset="1.331947e-07" style="stop-color:#483464"/>
			<stop  offset="1" style="stop-color:#33214D"/>
		</radialGradient>
		
			<path style="fill:url(#SVGID_00000008833868901827491770000004108438604466886563_);stroke:#2B1452;stroke-width:4;stroke-miterlimit:10;" d="
			M703.06,26.5c-12.86,22.27-36.43,32.73-52.65,23.36c-16.22-9.36-18.95-35.01-6.09-57.27c12.86-22.27,36.43-32.73,52.65-23.36
			C713.19-21.41,715.92,4.24,703.06,26.5z"/>
		<ellipse transform="matrix(0.5 -0.866 0.866 0.5 333.465 596.6742)" class="st7" cx="683.47" cy="9.55" rx="29.61" ry="21.57"/>
		<circle class="st1" cx="778.96" cy="3.6" r="6.63"/>
		<circle class="st1" cx="703" cy="3.6" r="6.63"/>
	</g>
	<g>
		<path class="st11" d="M1078.66,168.84c0,0-62.81,21.96-58.72,75.06s27.57,30.64,43.91,18.89s30.64-20.94,50.55-19.91"/>
		<path class="st1" d="M1314.42,369.97c-16.21,7.61-42.82,11.82-78.2,7.31c-35.38-4.52-94.85-4.52-139.27-72.27
			s-83.56-145.66-54.2-266.68s116.19-136.07,159.72-134.57s151.31,21.56,160.97,179.67c4.24,69.38-21.08,157.41-42.91,193.63
			c0,0-22.9,43.94-5.27,61.06c4.79,4.65,11.26,8.08,22.1,2.94s24.32-18.21,36.44-16.56c19.59,2.66-2.63,6.32-9.28,9.64
			c-4.89,2.45-15.09,8.86-18.6,12.19c-7.36,6.99-15.36,13.27-23.87,18.81C1318.26,367.64,1315.12,369.65,1314.42,369.97z"/>
		<ellipse class="st12" cx="1270.73" cy="411.5" rx="125.31" ry="13.28"/>
		<path class="st13" d="M1096.96,305.01c44.42,67.75,103.89,67.75,139.27,72.27c35.38,4.52,61.99,0.3,78.2-7.31
			c0.69-0.33,3.84-2.33,7.65-4.81c8.51-5.54,16.51-11.82,23.87-18.81c3.51-3.34,13.71-9.75,18.6-12.19
			c6.64-3.32,28.86-6.98,9.28-9.64c-12.12-1.65-25.6,11.42-36.44,16.56s-17.31,1.71-22.1-2.94c-17.64-17.12,5.27-61.06,5.27-61.06
			c21.83-36.22,45.92-154.99,42.91-193.63c-12.31-157.93-117.44-178.16-160.97-179.67c0,0,55.94,11.15,97.61,60.72
			c23.89,28.43,47.6,81.88,48.45,125.65c2.08,107.21-18.39,143.61-42.13,151.71c-25.41,8.68-53.07-3.42-71.98,58.67
			C1207.14,390.13,1096.96,305.01,1096.96,305.01z"/>
		<path class="st14" d="M1270.66,168.84c0,0-62.81,21.96-58.72,75.06s27.57,30.64,43.91,18.89s30.64-20.94,50.55-19.91"/>
		<g>
			<path class="st14" d="M1199.31,91.82l7.83,6.79l6.08-8.28c0,0,11.67-1.26,19.69-1.93c1.39-4.5,1.55-8.91,1.52-11.72
				c-0.02-2.08-2.06-3.51-4.05-2.9c-32.27,10-82.07,5.37-97.22,3.63c-2.45-0.28-4.48,1.97-3.87,4.36c0.82,3.22,2.33,6.27,4.18,9.07
				C1151.6,91.8,1190.62,93.59,1199.31,91.82z"/>
			<path class="st14" d="M1213.22,90.33l-4.01,5.47c-1.11,1.52-3.28,1.76-4.7,0.53l-5.19-4.5c-8.7,1.76-47.71-0.02-65.84-0.97
				c3.79,5.73,8.99,10.41,12.57,13.24c2.43,1.92,5.54,2.81,8.62,2.49c43.65-4.48,46.81,0.91,62.2-2.91
				c9.71-2.41,14.1-8.92,16.05-15.27C1224.89,89.07,1213.22,90.33,1213.22,90.33z"/>
		</g>
		<path class="st13" d="M1163.95,116.7l35.5-0.85c1.69-0.04,2.61,1.97,1.48,3.22l-7.52,8.31c-1.53,1.69-3.71,2.66-6,2.66h-15.54
			c-3.35,0-6.35-2.06-7.55-5.18l-2.13-5.54C1161.72,118.08,1162.62,116.73,1163.95,116.7z"/>
		<circle class="st15" cx="1289.06" cy="76.52" r="33.08"/>
		<circle class="st15" cx="1072.3" cy="76.52" r="33.08"/>
		<path class="st16" d="M1314.42,369.97c-16.21,7.61-42.82,11.82-78.2,7.31c-35.38-4.52-94.85-4.52-139.27-72.27
			s-83.56-145.66-54.2-266.68s116.19-136.07,159.72-134.57s151.31,21.56,160.97,179.67c4.24,69.38-21.08,157.41-42.91,193.63
			c0,0-22.9,43.94-5.27,61.06c4.79,4.65,11.26,8.08,22.1,2.94s24.32-18.21,36.44-16.56c19.59,2.66-2.63,6.32-9.28,9.64
			c-4.89,2.45-15.09,8.86-18.6,12.19c-7.36,6.99-15.36,13.27-23.87,18.81C1318.26,367.64,1315.12,369.65,1314.42,369.97z"/>
		<ellipse transform="matrix(0.866 -0.5 0.5 0.866 159.3872 613.937)" class="st17" cx="1225.32" cy="9.55" rx="34.43" ry="47.28"/>
		<ellipse transform="matrix(0.866 -0.5 0.5 0.866 158.0579 608.9761)" class="st18" cx="1215.39" cy="9.55" rx="21.9" ry="30.07"/>
		<ellipse transform="matrix(0.5 -0.866 0.866 0.5 556.2824 982.6052)" class="st17" cx="1129.1" cy="9.55" rx="46.56" ry="33.91"/>
		
			<ellipse transform="matrix(0.5 -0.866 0.866 0.5 561.1679 991.0671)" class="st18" cx="1138.87" cy="9.55" rx="29.61" ry="21.57"/>
		<circle class="st1" cx="1234.36" cy="3.6" r="6.63"/>
		<circle class="st1" cx="1158.4" cy="3.6" r="6.63"/>
	</g>
	<g>
		<path class="st19" d="M623.26,770.24c0,0-62.81,21.96-58.72,75.06c4.09,53.11,27.57,30.64,43.91,18.89
			c16.34-11.74,30.64-20.94,50.55-19.91"/>
		<path class="st1" d="M859.02,971.38c-16.21,7.61-42.82,11.82-78.2,7.31s-94.85-4.52-139.27-72.27
			c-44.42-67.75-83.56-145.66-54.2-266.68c29.36-121.02,116.19-136.07,159.72-134.57c43.53,1.51,151.31,21.56,160.97,179.67
			c4.24,69.38-21.08,157.41-42.91,193.63c0,0-22.9,43.94-5.27,61.06c4.79,4.65,11.26,8.08,22.1,2.94
			c10.84-5.13,24.32-18.21,36.44-16.56c19.59,2.66-2.63,6.32-9.28,9.64c-4.89,2.45-15.09,8.86-18.6,12.19
			c-7.36,6.99-15.36,13.27-23.87,18.81C862.86,969.05,859.71,971.05,859.02,971.38z"/>
		<ellipse class="st20" cx="815.33" cy="1012.91" rx="125.31" ry="13.28"/>
		<path class="st21" d="M641.55,906.41c44.42,67.75,103.89,67.75,139.27,72.27s61.99,0.3,78.2-7.31c0.69-0.33,3.84-2.33,7.65-4.81
			c8.51-5.54,16.51-11.82,23.87-18.81c3.51-3.34,13.71-9.75,18.6-12.19c6.64-3.32,28.86-6.98,9.28-9.64
			c-12.12-1.65-25.6,11.42-36.44,16.56c-10.84,5.13-17.31,1.71-22.1-2.94c-17.64-17.12,5.27-61.06,5.27-61.06
			c21.83-36.22,45.92-154.99,42.91-193.63c-12.31-157.93-117.44-178.16-160.97-179.67c0,0,55.94,11.15,97.61,60.72
			c23.89,28.43,47.6,81.88,48.45,125.65c2.08,107.21-18.39,143.61-42.13,151.71c-25.41,8.68-53.07-3.42-71.98,58.67
			C751.74,991.54,641.55,906.41,641.55,906.41z"/>
		<path class="st22" d="M815.26,770.24c0,0-62.81,21.96-58.72,75.06c4.09,53.11,27.57,30.64,43.91,18.89
			c16.34-11.74,30.64-20.94,50.55-19.91"/>
		<g>
			<path class="st22" d="M743.91,693.23l7.83,6.79l6.08-8.28c0,0,11.67-1.26,19.69-1.93c1.39-4.5,1.55-8.91,1.52-11.72
				c-0.02-2.08-2.06-3.51-4.05-2.9c-32.27,10-82.07,5.37-97.22,3.63c-2.45-0.28-4.48,1.97-3.87,4.36c0.82,3.22,2.33,6.27,4.18,9.07
				C696.2,693.21,735.21,695,743.91,693.23z"/>
			<path class="st22" d="M757.82,691.74l-4.01,5.47c-1.11,1.52-3.28,1.76-4.7,0.53l-5.19-4.5c-8.7,1.76-47.71-0.02-65.84-0.97
				c3.79,5.73,8.99,10.41,12.57,13.24c2.43,1.92,5.54,2.81,8.62,2.49c43.65-4.48,46.81,0.91,62.2-2.91
				c9.71-2.41,14.1-8.92,16.05-15.27C769.48,690.48,757.82,691.74,757.82,691.74z"/>
		</g>
		<path class="st21" d="M708.55,718.11l35.5-0.85c1.69-0.04,2.61,1.97,1.48,3.22l-7.52,8.31c-1.53,1.69-3.71,2.66-6,2.66h-15.54
			c-3.35,0-6.35-2.06-7.55-5.18l-2.13-5.54C706.32,719.48,707.22,718.14,708.55,718.11z"/>
		<circle class="st20" cx="833.66" cy="677.93" r="33.08"/>
		<circle class="st20" cx="616.9" cy="677.93" r="33.08"/>
		<path class="st23" d="M859.02,971.38c-16.21,7.61-42.82,11.82-78.2,7.31s-94.85-4.52-139.27-72.27
			c-44.42-67.75-83.56-145.66-54.2-266.68c29.36-121.02,116.19-136.07,159.72-134.57c43.53,1.51,151.31,21.56,160.97,179.67
			c4.24,69.38-21.08,157.41-42.91,193.63c0,0-22.9,43.94-5.27,61.06c4.79,4.65,11.26,8.08,22.1,2.94
			c10.84-5.13,24.32-18.21,36.44-16.56c19.59,2.66-2.63,6.32-9.28,9.64c-4.89,2.45-15.09,8.86-18.6,12.19
			c-7.36,6.99-15.36,13.27-23.87,18.81C862.86,969.05,859.71,971.05,859.02,971.38z"/>
		
			<ellipse transform="matrix(0.866 -0.5 0.5 0.866 -202.3286 466.8073)" class="st24" cx="769.91" cy="610.95" rx="34.43" ry="47.28"/>
		
			<ellipse transform="matrix(0.866 -0.5 0.5 0.866 -203.6578 461.8463)" class="st19" cx="759.99" cy="610.95" rx="21.9" ry="30.07"/>
		
			<ellipse transform="matrix(0.5 -0.866 0.866 0.5 -192.2533 888.9153)" class="st24" cx="673.7" cy="610.95" rx="46.56" ry="33.91"/>
		
			<ellipse transform="matrix(0.5 -0.866 0.866 0.5 -187.3678 897.3771)" class="st19" cx="683.47" cy="610.95" rx="29.61" ry="21.57"/>
		<circle class="st1" cx="778.96" cy="605" r="6.63"/>
		<circle class="st1" cx="703" cy="605" r="6.63"/>
	</g>
	<g>
		<path class="st25" d="M1078.66,770.24c0,0-62.81,21.96-58.72,75.06s27.57,30.64,43.91,18.89s30.64-20.94,50.55-19.91"/>
		<path class="st1" d="M1314.42,971.38c-16.21,7.61-42.82,11.82-78.2,7.31c-35.38-4.52-94.85-4.52-139.27-72.27
			s-83.56-145.66-54.2-266.68s116.19-136.07,159.72-134.57c43.53,1.51,151.31,21.56,160.97,179.67
			c4.24,69.38-21.08,157.41-42.91,193.63c0,0-22.9,43.94-5.27,61.06c4.79,4.65,11.26,8.08,22.1,2.94
			c10.84-5.13,24.32-18.21,36.44-16.56c19.59,2.66-2.63,6.32-9.28,9.64c-4.89,2.45-15.09,8.86-18.6,12.19
			c-7.36,6.99-15.36,13.27-23.87,18.81C1318.26,969.05,1315.12,971.05,1314.42,971.38z"/>
		<ellipse class="st26" cx="1270.73" cy="1012.91" rx="125.31" ry="13.28"/>
		<path class="st27" d="M1096.96,906.41c44.42,67.75,103.89,67.75,139.27,72.27c35.38,4.52,61.99,0.3,78.2-7.31
			c0.69-0.33,3.84-2.33,7.65-4.81c8.51-5.54,16.51-11.82,23.87-18.81c3.51-3.34,13.71-9.75,18.6-12.19
			c6.64-3.32,28.86-6.98,9.28-9.64c-12.12-1.65-25.6,11.42-36.44,16.56c-10.84,5.13-17.31,1.71-22.1-2.94
			c-17.64-17.12,5.27-61.06,5.27-61.06c21.83-36.22,45.92-154.99,42.91-193.63c-12.31-157.93-117.44-178.16-160.97-179.67
			c0,0,55.94,11.15,97.61,60.72c23.89,28.43,47.6,81.88,48.45,125.65c2.08,107.21-18.39,143.61-42.13,151.71
			c-25.41,8.68-53.07-3.42-71.98,58.67C1207.14,991.54,1096.96,906.41,1096.96,906.41z"/>
		<path class="st28" d="M1270.66,770.24c0,0-62.81,21.96-58.72,75.06s27.57,30.64,43.91,18.89s30.64-20.94,50.55-19.91"/>
		<g>
			<path class="st28" d="M1199.31,693.23l7.83,6.79l6.08-8.28c0,0,11.67-1.26,19.69-1.93c1.39-4.5,1.55-8.91,1.52-11.72
				c-0.02-2.08-2.06-3.51-4.05-2.9c-32.27,10-82.07,5.37-97.22,3.63c-2.45-0.28-4.48,1.97-3.87,4.36c0.82,3.22,2.33,6.27,4.18,9.07
				C1151.6,693.21,1190.62,695,1199.31,693.23z"/>
			<path class="st28" d="M1213.22,691.74l-4.01,5.47c-1.11,1.52-3.28,1.76-4.7,0.53l-5.19-4.5c-8.7,1.76-47.71-0.02-65.84-0.97
				c3.79,5.73,8.99,10.41,12.57,13.24c2.43,1.92,5.54,2.81,8.62,2.49c43.65-4.48,46.81,0.91,62.2-2.91
				c9.71-2.41,14.1-8.92,16.05-15.27C1224.89,690.48,1213.22,691.74,1213.22,691.74z"/>
		</g>
		<path class="st27" d="M1163.95,718.11l35.5-0.85c1.69-0.04,2.61,1.97,1.48,3.22l-7.52,8.31c-1.53,1.69-3.71,2.66-6,2.66h-15.54
			c-3.35,0-6.35-2.06-7.55-5.18l-2.13-5.54C1161.72,719.48,1162.62,718.14,1163.95,718.11z"/>
		<circle class="st29" cx="1289.06" cy="677.93" r="33.08"/>
		<circle class="st29" cx="1072.3" cy="677.93" r="33.08"/>
		<path class="st30" d="M1314.42,971.38c-16.21,7.61-42.82,11.82-78.2,7.31c-35.38-4.52-94.85-4.52-139.27-72.27
			s-83.56-145.66-54.2-266.68s116.19-136.07,159.72-134.57c43.53,1.51,151.31,21.56,160.97,179.67
			c4.24,69.38-21.08,157.41-42.91,193.63c0,0-22.9,43.94-5.27,61.06c4.79,4.65,11.26,8.08,22.1,2.94
			c10.84-5.13,24.32-18.21,36.44-16.56c19.59,2.66-2.63,6.32-9.28,9.64c-4.89,2.45-15.09,8.86-18.6,12.19
			c-7.36,6.99-15.36,13.27-23.87,18.81C1318.26,969.05,1315.12,971.05,1314.42,971.38z"/>
		
			<ellipse transform="matrix(0.866 -0.5 0.5 0.866 -141.3158 694.5101)" class="st31" cx="1225.32" cy="610.95" rx="34.43" ry="47.28"/>
		
			<ellipse transform="matrix(0.866 -0.5 0.5 0.866 -142.645 689.5492)" class="st25" cx="1215.39" cy="610.95" rx="21.9" ry="30.07"/>
		
			<ellipse transform="matrix(0.5 -0.866 0.866 0.5 35.4496 1283.3082)" class="st31" cx="1129.1" cy="610.95" rx="46.56" ry="33.91"/>
		<ellipse transform="matrix(0.5 -0.866 0.866 0.5 40.335 1291.77)" class="st25" cx="1138.87" cy="610.95" rx="29.61" ry="21.57"/>
		<circle class="st1" cx="1234.36" cy="605" r="6.63"/>
		<circle class="st1" cx="1158.4" cy="605" r="6.63"/>
	</g>
	<g>
		<path class="st32" d="M627.11,1371.65c0,0-62.81,21.96-58.72,75.06c4.09,53.11,27.57,30.64,43.91,18.89
			c16.34-11.74,30.64-20.94,50.55-19.91"/>
		<path class="st1" d="M862.87,1572.78c-16.21,7.61-42.82,11.82-78.2,7.31c-35.38-4.52-94.85-4.52-139.27-72.27
			c-44.42-67.75-83.56-145.66-54.2-266.68c29.36-121.02,116.19-136.07,159.72-134.57c43.53,1.51,151.31,21.56,160.97,179.67
			c4.24,69.38-21.08,157.41-42.91,193.63c0,0-22.9,43.94-5.27,61.06c4.79,4.65,11.26,8.08,22.1,2.94
			c10.84-5.13,24.32-18.21,36.44-16.56c19.59,2.66-2.63,6.32-9.28,9.64c-4.89,2.45-15.09,8.86-18.6,12.19
			c-7.36,6.99-15.36,13.27-23.87,18.81C866.71,1570.45,863.57,1572.46,862.87,1572.78z"/>
		<ellipse class="st33" cx="819.18" cy="1614.31" rx="125.31" ry="13.28"/>
		<path class="st34" d="M645.41,1507.82c44.42,67.75,103.89,67.75,139.27,72.27c35.38,4.52,61.99,0.3,78.2-7.31
			c0.69-0.33,3.84-2.33,7.65-4.81c8.51-5.54,16.51-11.82,23.87-18.81c3.51-3.34,13.71-9.75,18.6-12.19
			c6.64-3.32,28.86-6.98,9.28-9.64c-12.12-1.65-25.6,11.42-36.44,16.56c-10.84,5.13-17.31,1.71-22.1-2.94
			c-17.64-17.12,5.27-61.06,5.27-61.06c21.83-36.22,49.31-135.62,42.91-193.63c-12.31-157.93-117.44-178.16-160.97-179.67
			c0,0,55.94,11.15,97.61,60.72c23.89,28.43,47.6,81.88,48.45,125.65c2.08,107.21-18.39,143.61-42.13,151.71
			c-25.41,8.68-53.07-3.42-71.98,58.67C755.59,1592.95,645.41,1507.82,645.41,1507.82z"/>
		<path class="st35" d="M819.11,1371.65c0,0-62.81,21.96-58.72,75.06c4.09,53.11,27.57,30.64,43.91,18.89
			c16.34-11.74,30.64-20.94,50.55-19.91"/>
		<g>
			<path class="st36" d="M747.76,1294.64l7.83,6.79l6.08-8.28c0,0,11.67-1.26,19.69-1.93c1.39-4.5,1.55-8.91,1.52-11.72
				c-0.02-2.08-2.06-3.51-4.05-2.9c-32.27,10-82.07,5.37-97.22,3.63c-2.45-0.28-4.48,1.97-3.87,4.36c0.82,3.22,2.33,6.27,4.18,9.07
				C700.05,1294.62,739.07,1296.4,747.76,1294.64z"/>
			<path class="st36" d="M761.67,1293.15l-4.01,5.47c-1.11,1.52-3.28,1.76-4.7,0.53l-5.19-4.5c-8.7,1.76-47.71-0.02-65.84-0.97
				c3.79,5.73,8.99,10.41,12.57,13.24c2.43,1.92,5.54,2.81,8.62,2.49c43.65-4.48,46.81,0.91,62.2-2.91
				c9.71-2.41,14.1-8.92,16.05-15.27C773.34,1291.88,761.67,1293.15,761.67,1293.15z"/>
		</g>
		<path class="st34" d="M712.4,1319.51l35.5-0.85c1.69-0.04,2.61,1.97,1.48,3.22l-7.52,8.31c-1.53,1.69-3.71,2.66-6,2.66h-15.54
			c-3.35,0-6.35-2.06-7.55-5.18l-2.13-5.54C710.17,1320.89,711.07,1319.55,712.4,1319.51z"/>
		<circle class="st33" cx="837.51" cy="1279.33" r="33.08"/>
		<circle class="st33" cx="620.75" cy="1279.33" r="33.08"/>
		<path class="st35" d="M862.87,1572.78c-16.21,7.61-42.82,11.82-78.2,7.31c-35.38-4.52-94.85-4.52-139.27-72.27
			c-44.42-67.75-83.56-145.66-54.2-266.68c29.36-121.02,116.19-136.07,159.72-134.57c43.53,1.51,151.31,21.56,160.97,179.67
			c4.24,69.38-21.08,157.41-42.91,193.63c0,0-22.9,43.94-5.27,61.06c4.79,4.65,11.26,8.08,22.1,2.94
			c10.84-5.13,24.32-18.21,36.44-16.56c19.59,2.66-2.63,6.32-9.28,9.64c-4.89,2.45-15.09,8.86-18.6,12.19
			c-7.36,6.99-15.36,13.27-23.87,18.81C866.71,1570.45,863.57,1572.46,862.87,1572.78z"/>
		
			<ellipse transform="matrix(0.866 -0.5 0.5 0.866 -502.5151 549.3076)" class="st37" cx="773.76" cy="1212.36" rx="34.43" ry="47.28"/>
		
			<ellipse transform="matrix(0.866 -0.5 0.5 0.866 -503.8444 544.3466)" class="st32" cx="763.84" cy="1212.36" rx="21.9" ry="30.07"/>
		
			<ellipse transform="matrix(0.5 -0.866 0.866 0.5 -711.1589 1192.9563)" class="st37" cx="677.55" cy="1212.36" rx="46.56" ry="33.91"/>
		
			<ellipse transform="matrix(0.5 -0.866 0.866 0.5 -706.2734 1201.4181)" class="st32" cx="687.32" cy="1212.36" rx="29.61" ry="21.57"/>
		<circle class="st1" cx="782.81" cy="1206.41" r="6.63"/>
		<circle class="st1" cx="706.85" cy="1206.41" r="6.63"/>
	</g>
	<g>
		<path class="st38" d="M65.77,289.61c0,0-62.81,21.96-58.72,75.06s27.57,30.64,43.91,18.89s30.64-20.94,50.55-19.91"/>
		<path class="st1" d="M301.53,490.75c-16.21,7.61-42.82,11.82-78.2,7.31c-35.38-4.52-94.85-4.52-139.27-72.27
			S0.5,280.12,29.86,159.11S146.05,23.04,189.59,24.54S340.9,46.1,350.55,204.21c4.24,69.38-21.08,157.41-42.91,193.63
			c0,0-22.9,43.94-5.27,61.06c4.79,4.65,11.26,8.08,22.1,2.94s24.32-18.21,36.44-16.56c19.59,2.66-2.63,6.32-9.28,9.64
			c-4.89,2.45-15.09,8.86-18.6,12.19c-7.36,6.99-15.36,13.27-23.87,18.81C305.37,488.42,302.22,490.42,301.53,490.75z"/>
		<ellipse class="st39" cx="257.84" cy="532.28" rx="125.31" ry="13.28"/>
		<path class="st40" d="M84.06,425.78c44.42,67.75,103.89,67.75,139.27,72.27c35.38,4.52,61.99,0.3,78.2-7.31
			c0.69-0.33,3.84-2.33,7.65-4.81c8.51-5.54,16.51-11.82,23.87-18.81c3.51-3.34,13.71-9.75,18.6-12.19
			c6.64-3.32,28.86-6.98,9.28-9.64c-12.12-1.65-25.6,11.42-36.44,16.56s-17.31,1.71-22.1-2.94c-17.64-17.12,5.27-61.06,5.27-61.06
			c21.83-36.22,45.92-154.99,42.91-193.63C338.25,46.29,233.12,26.05,189.59,24.54c0,0,55.94,11.15,97.61,60.72
			c23.89,28.43,47.6,81.88,48.45,125.65c2.08,107.21-18.39,143.61-42.13,151.71c-25.41,8.68-53.07-3.42-71.98,58.67
			C194.25,510.91,84.06,425.78,84.06,425.78z"/>
		<path class="st41" d="M257.77,289.61c0,0-62.81,21.96-58.72,75.06s27.57,30.64,43.91,18.89s30.64-20.94,50.55-19.91"/>
		<g>
			<path class="st41" d="M186.42,212.6l7.83,6.79l6.08-8.28c0,0,11.67-1.26,19.69-1.93c1.39-4.5,1.55-8.91,1.52-11.72
				c-0.02-2.08-2.06-3.51-4.05-2.9c-32.27,10-82.07,5.37-97.22,3.63c-2.45-0.28-4.48,1.97-3.87,4.36c0.82,3.22,2.33,6.27,4.18,9.07
				C138.71,212.58,177.72,214.37,186.42,212.6z"/>
			<path class="st41" d="M200.33,211.11l-4.01,5.47c-1.11,1.52-3.28,1.76-4.7,0.53l-5.19-4.5c-8.7,1.76-47.71-0.02-65.84-0.97
				c3.79,5.73,8.99,10.41,12.57,13.24c2.43,1.92,5.54,2.81,8.62,2.49c43.65-4.48,46.81,0.91,62.2-2.91
				c9.71-2.41,14.1-8.92,16.05-15.27C211.99,209.85,200.33,211.11,200.33,211.11z"/>
		</g>
		<path class="st42" d="M151.06,237.48l35.5-0.85c1.69-0.04,2.61,1.97,1.48,3.22l-7.52,8.31c-1.53,1.69-3.71,2.66-6,2.66h-15.54
			c-3.35,0-6.35-2.06-7.55-5.18l-2.13-5.54C148.83,238.85,149.73,237.51,151.06,237.48z"/>
		<circle class="st39" cx="276.17" cy="197.3" r="33.08"/>
		<circle class="st39" cx="59.41" cy="197.3" r="33.08"/>
		<path class="st43" d="M301.53,490.75c-16.21,7.61-42.82,11.82-78.2,7.31c-35.38-4.52-94.85-4.52-139.27-72.27
			S0.5,280.12,29.86,159.11S146.05,23.04,189.59,24.54S340.9,46.1,350.55,204.21c4.24,69.38-21.08,157.41-42.91,193.63
			c0,0-22.9,43.94-5.27,61.06c4.79,4.65,11.26,8.08,22.1,2.94s24.32-18.21,36.44-16.56c19.59,2.66-2.63,6.32-9.28,9.64
			c-4.89,2.45-15.09,8.86-18.6,12.19c-7.36,6.99-15.36,13.27-23.87,18.81C305.37,488.42,302.22,490.42,301.53,490.75z"/>
		
			<ellipse transform="matrix(0.866 -0.5 0.5 0.866 -36.7033 123.6701)" class="st44" cx="212.42" cy="130.32" rx="34.43" ry="47.28"/>
		<ellipse transform="matrix(0.866 -0.5 0.5 0.866 -38.0326 118.7091)" class="st38" cx="202.5" cy="130.32" rx="21.9" ry="30.07"/>
		
			<ellipse transform="matrix(0.5 -0.866 0.866 0.5 -54.761 165.7999)" class="st44" cx="116.21" cy="130.32" rx="46.56" ry="33.91"/>
		
			<ellipse transform="matrix(0.5 -0.866 0.866 0.5 -49.8755 174.2618)" class="st38" cx="125.98" cy="130.32" rx="29.61" ry="21.57"/>
		<circle class="st1" cx="221.47" cy="124.37" r="6.63"/>
		<circle class="st1" cx="145.51" cy="124.37" r="6.63"/>
	</g>
	<rect x="-18.52" y="-190.45" class="st15" width="55.44" height="55.44"/>
	<rect x="56.34" y="-190.45" class="st15" width="55.44" height="55.44"/>
	<rect x="131.2" y="-190.45" class="st20" width="55.44" height="55.44"/>
	<rect x="206.06" y="-190.45" class="st29" width="55.44" height="55.44"/>
	<rect x="280.92" y="-190.45" class="st33" width="55.44" height="55.44"/>
	<rect x="355.77" y="-190.45" class="st39" width="55.44" height="55.44"/>
	<rect x="56.34" y="-114.59" class="st13" width="55.44" height="55.44"/>
	<rect x="131.2" y="-114.59" class="st21" width="55.44" height="55.44"/>
	<rect x="206.06" y="-114.59" class="st27" width="55.44" height="55.44"/>
	<rect x="280.92" y="-114.59" class="st45" width="55.44" height="55.44"/>
	<rect x="355.77" y="-114.59" class="st46" width="55.44" height="55.44"/>
	<rect x="56.34" y="-266.31" class="st12" width="55.44" height="55.44"/>
	<rect x="131.2" y="-266.31" class="st47" width="55.44" height="55.44"/>
	<rect x="206.06" y="-266.31" class="st26" width="55.44" height="55.44"/>
	<rect x="280.92" y="-266.31" class="st33" width="55.44" height="55.44"/>
	<rect x="355.77" y="-266.31" class="st39" width="55.44" height="55.44"/>
</g>
</svg>
